<?xml version="1.0" encoding="UTF-8"?><svg id="Layer_2" xmlns="http://www.w3.org/2000/svg" viewBox="0 0 504.67 103.69"><defs><style>.cls-1{fill:#d94927;stroke-width:0px;}</style></defs><g id="Layer_1-2"><path class="cls-1" d="M88.75,22.34c-.26.26-.65.52-.78.78-.26.39-.26.91-.52,1.3-.13.26-.52.52-.78.78-.13.26-.13.52-.26.65-.13.13-.26.26-.39.39-.26.26-.39.91-.91.78-.26,1.56-1.69,3.78-3.39,4.04-1.17,0-2.48-.52-3-1.82-.65-.13-1.04-.39-1.56-.65-.13-.78-1.04-.65-1.04-1.43-1.04-.26-1.56-1.04-2.35-1.56-.65-.52-1.69-1.04-2.08-2.21-1.43-.78-2.74-1.69-4.3-2.61-1.3-.65-2.87-1.82-4.82-1.95-.39-.65-1.3-.78-1.82-1.3-1.82-.13-3.65-.52-5.6-.91-1.82.65-5.21.26-7.04-.26-.52,0-1.04.52-1.69.65-.26.13-.78-.13-1.17,0-.26,0-.65.26-.91.39-.65.13-1.43,0-2.08.13-.78.26-1.56.78-2.35.78-.65.13-.65,1.04-1.04,1.43-2.08.39-3.39,1.56-4.56,2.87-.52,0-.91,0-1.17.13-1.04,1.04-2.61,1.3-3.26,2.74-1.95,0-1.95,1.96-3.78,1.96-.52.78-.78,1.56-1.3,2.08-.26.13-.65.26-.91.39-.78.52-.91.78-1.69,1.43-.65.65-.78.78-1.3,1.43-.52,1.04-1.3,2.87-2.35,3.52-.26,1.69-1.04,2.74-1.82,3.78-.26.52,0,.91-.26,1.43-.13.65-.91,1.43-1.04,2.08-.13.78.13,1.69.13,2.35,0,.52-.39.91-.39,1.43-.39,2.08-.26,4.56-.39,6.51,0,.65.13,1.82.13,2.61.13.78.13,1.82.13,2.34.13.65.65,1.04.78,1.69.26.65,0,1.43.65,1.82-.65,1.43.65,1.43.39,3,.26.39.39.65.78,1.04.13.13,1.04.91,1.17,1.3.26.39.39.65.65,1.04.39.39.65.65,1.04,1.3.65.91,1.82,2.21,2.61,3.26.65.65,1.04,1.04,1.69,1.82.52.78,1.17.91,2.08,1.56.39.26.65.91,1.43,1.04.65.91,2.35,1.04,2.74,2.21,1.95.65,3.39,1.82,5.73,2.48.39,0,.91.13,1.3.26,1.04.13,2.48.13,3.13.26,1.3.13,2.08.13,3.65,0,.26,0,.91.26,1.17.26.52,0,1.04-.39,1.56-.39s1.04.26,1.56.26c1.95.13,3.91-.52,5.99.13.52-.13.78-.52,1.43-.65,1.95.52,3.65-.65,4.56,0,.65,0,.78-.52,1.3-.65.78-.13,1.04.26,1.69.26.91-.13,1.43-.91,2.35-1.17.39-.26,1.04-.13,1.69-.26.39-.13.78-.26,1.3-.39.91-.13,2.08-.52,2.87-.52,1.69-.13,3.52,0,4.56-1.17.78.26.78.13,1.17-.39,1.69.13,2.61-.39,4.04-.52.65.52.13,1.95,1.17,2.08-.13.78.13,1.17.26,1.69.26.78,1.17,1.69,1.3,3,.13.52-.13.91-.13,1.43s.13.91.13,1.3.39.52.39.78c.13.39-.13.78,0,1.04.13.78.39,1.43.39,1.96-.13.52-.65,1.17-.65,1.69-1.3.39-3.39.91-4.3-.13-1.3.26-2.22.91-3.39,1.56-.13.13-.39.13-.65.26-.78.65-1.69.65-2.48.78-.65.13-1.3.39-2.08.39-.78.65-1.56,1.17-2.74,1.56-.26.13-.78.39-.91.39-1.17.39-2.61.13-3.78.39-.91.13-1.69.52-2.35.78-.52,0-.91-.13-1.04-.39-.39.39-.78.26-1.3.39-.78,0-1.82-.39-2.74-.26-.65,0-1.43.39-2.08.52-.52,0-1.04-.26-1.69-.26-.39,0-1.04.26-1.43.13-2.35,0-4.82-.65-7.17-.26-.78,0-.52-.78-1.17-.65-.78-.26-1.04.13-1.69.13-.52-.91-2.35-.26-3-.91-.52-.52-1.17-.39-1.43-.39-.78-.39-1.43-.91-1.82-1.56-.39.26-1.17.13-1.69.13-.65-.39-1.17-.91-1.95-1.3-1.56-.13-3.13-.13-3.65-1.69-.65-.13-1.17-.13-1.69-.26-.26-.13-.52-.39-.91-.52-.65-.13-1.04-.13-1.56-.39-.13,0-.52-.13-.65-.26-.26-.39-.52-.39-.65-.39-.13-.13,0-.52-.13-.65-.26-.13-.52-.13-.65-.26-2.08-1.3-4.82-3-7.04-4.56-.65-1.04-.91-2.21-2.35-2.61.13-.65-.65-.65-.52-1.43,0-.39-.91-.26-1.04-.65,0-.52-.39-.52-.39-.65-.26-.65-1.3-.91-1.43-1.43-.39-.91-1.17-1.69-1.82-2.61-.26-.26-.26-.52-.52-.65-.39-.65-1.3-2.08-1.56-3.13-.26-.39-.65-.65-1.04-.91.26-1.3-.65-1.43-.52-2.61-.39-.39-.78-.78-1.04-1.43.13-1.56-.39-2.35-1.04-3.13.13-.78.39-1.04.26-1.95-.39-.78-.78-1.82-1.17-3-.26-.91-.13-.91-.39-2.21-.13-.78-.65-2.87-.52-4.04.13-.78.65-1.43.91-2.08-.26-1.3-.13-2.61.52-3.65-.26-1.82-.13-4.04.52-5.99q.13-.39.26-.65c.26-.52.26-1.82.52-2.74,0-.26.65-1.04.39-2.08.26-.52.65-.91.91-1.43.26-2.08,1.43-3.91,2.61-5.86.26-.26.52-.52.65-.78.91-1.43,1.56-3.39,2.61-4.82.91-1.04,2.08-1.82,2.61-3.13,1.04.13,1.04-.91,1.95-.91.13-.52.52-.91.91-1.3.13-.13.26-.39.39-.65.52,0,.39-.26.39-.39.65-.65,1.43-1.17,1.69-2.08,1.04,0,1.3-.78,1.82-1.43,1.17-.26,1.43-1.43,2.74-1.56.26-1.04,2.08-.65,2.35-1.82,1.43-.13,2.74-1.04,4.04-1.56.65-.26,1.43-.65,2.08-.91.26,0,.91,0,1.3-.13.26-.13.39-.52.65-.65.65-.13,1.56-.13,2.35-.26,1.04-.39,2.08-.91,3.13-1.3.52-.13,1.3-.26,1.95-.39.65-.13,1.43-.52,2.48-.26.52,0,1.04,0,2.08-.26,1.82-.26,5.34-1.3,6.78,0,1.04-.52,2.08-1.04,3.39-.39.52,0,1.04-.26,1.69-.39.52,0,.91.26,1.56.26.78.13,1.43,0,2.21.13,1.04.13,2.08.65,3.26.91.65.13,1.3,0,1.95.26.52,0,1.04.39,1.43.39.52,0,1.04-.26,1.43-.13,1.56.26,2.87,1.43,4.43,1.3,1.95,1.69,4.82,2.34,6.25,4.56.52.13,1.04.52,1.56.65,1.17,1.43,2.21,2.87,4.17,3.52.26.78,1.3.78,2.08,1.04.13.39.65.39.39,1.04.78,0,1.43.13,1.82.26.26.78.65,1.3,1.04,1.95-.13,1.43-.78,2.48-1.56,3.52Z"/><path class="cls-1" d="M194.94,64.29c-.13.52-.13,1.04-.26,1.43-.13.52-.78,1.04-.91,1.56-.13.13-.13.78-.26.78-.26,1.17.13,2.61-.52,4.17,0,.13-.26.65-.39.78-.26.52-.65.52-.91,1.3,0,.26,0,.52-.13.78-.13.13-.39.13-.52.26-.13.39-.65,1.3-1.3,1.69,0,.39-.26.78-.13,1.43-1.43.91-1.43,2.48-2.48,3.91-.39.39-.39.52-.39.65-.65.52-.78.91-1.04,1.17-.52.39-1.04.52-1.56,1.04-.26.26-.26.65-.39.91-.91.78-1.95,1.43-2.35,2.61-.52.13-1.04.39-1.3.65-.26.13-.26.39-.52.65-.13.13-.39,0-.52.13-.26.13-.26.52-.52.65-.52,0-.39.39-.39.39-.65.39-1.3.52-1.69.78-.91.91-3,1.56-4.04,2.61-.52,0-1.17.65-1.3.26-.52.52-.78,1.04-1.43,1.43-.78.52-2.08.39-2.35,1.43-.52,0-.91-.13-1.04-.26-1.04.91-2.08,1.69-3.91,1.82-.91.78-3.52,1.43-5.47,1.56-.78,0-1.82-.13-2.48-.13-1.04.13-1.95.78-2.87.78-.65.13-1.3-.26-2.08-.65-.26.26-.39,0-.78,0-1.04.13-2.08.52-3.13.52-1.04.13-2.08-.13-3-.26-.39.26-2.08,0-2.48-.39-1.17.78-2.35-.26-3.52-.52-1.69-.52-3.52,0-4.69-1.17-1.95,0-3.39-.52-4.3-1.56-.52.13-.91-.13-1.3-.26-.91-.26-1.3-.52-2.08-1.04-.13-.13-.26-.39-.39-.52-.26-.13-.78-.26-1.3-.65-.13-.13-.26-.26-.39-.39-.39-.26-.78-.39-1.04-.65-.52-.52-.91-1.3-1.43-1.69-.91,0-1.43-.52-2.21-1.3-.78-.65-2.21-1.56-2.48-2.61-1.04-.26-2.22-.65-2.74-1.3-.13-.65-.52-.52-.78-.91-.52-.52-1.3-1.3-1.82-1.95-.26-.13-.26-.65-.26-1.17-.52-.65-1.04-1.04-1.69-1.56-.13-.39-.39-.78-.52-1.3-.78-.65-1.56-1.56-2.08-2.48-1.3-.91-1.17-3.13-2.61-3.91.13-1.43-.91-2.21-1.43-3.39-.39-.91-.39-1.95-.52-3-.13-.52-.65-1.17-.65-1.82,0-.26.26-.39.26-.65-.13-.52-.52-1.17-.65-1.69-.13-.65,0-1.43-.13-2.08l-.39-1.95c0-.52.26-1.43-.39-1.82.13-.52.26-1.17.26-1.69s-.26-.78-.39-1.3c.26-.52,0-.65,0-.65.13-1.17.39-1.95.13-3.39-.39-.65.13-1.3,0-2.48,0-.39-.26-.78-.39-1.3,0-.52,0-1.43.13-2.08,0-.65.39-1.17.39-1.82.13-.39-.13-.78-.13-1.3,0-.39.26-.78.26-1.04-.13-.52-.39-1.04-.39-1.43,0-.91.26-1.82.39-2.74.26-.91.26-2.08.52-2.74.13-.39.52-.65.65-1.04.52-1.04,1.04-2.35,1.56-3.52.65-1.69.78-3.65,2.21-4.56.13-1.3.78-2.08,1.04-3.13,0-.65.65-.65.91-.91-.13-.78.26-1.04.52-1.69.13-.39.65-.78.78-1.17.13-.26.13-.91.26-1.3s.65-.39.39-1.04c.91-.39,1.43-1.3,1.82-2.21.91-.39,1.56-1.04,1.95-2.08,1.04-.13,1.04-1.3,2.35-1.17.26-.52.65-.78,1.17-1.04.26-.52.91-.52,1.17-1.04,1.3-.13,2.08-1.04,3.13-1.56,1.04-.52,2.21-.65,3.26-1.43,1.56.13,2.35-.39,3.13-1.04,1.17.26,2.21-.13,3.13-.52,1.3-.39,3.65-.91,5.34-1.3,1.43-.39,2.61-.52,4.04-1.04.26,0,.65,0,1.04-.13.26-.13.26-.39.65-.39.39-.13.91,0,1.43,0,.39,0,.78.39,1.3.39.13.13.26-.13.52-.13s.26.13.52.26c.26,0,.78.13,1.17.13.39.13.65.39,1.04.52,1.82.39,3.26.13,4.17,1.17,1.17-.52,3-.13,4.43-.13.78,0,.91.65,1.43.78.91,0,1.82.13,2.61.39.26,0,.52.26.78.39.39.13.91-.13,1.3,0,.52.13,1.17.52,1.56.65,1.56.52,2.87.52,3.65,1.82.65,0,.52-.65,1.43-.39,1.43.65,3.39.65,4.95,1.3.26.13.26.39.52.52.26,0,.39.13.52.13.52.26.78.52,1.04.65.78.39,1.82.52,1.95,1.3.65,0,1.3.39,1.82.65.78.52,1.43,1.3,2.35,1.95.26.26.39.65.78.91.26.26.78.26,1.04.39.52.52.78,1.17,1.17,1.69,1.43.13,1.82,1.17,3,1.43.39.65.78,1.17,1.43,1.82,0,.13,0,.39.13.52.26.13.65.26.78.39.26.26.39.78.65,1.3s.39,1.17.78,1.82c.52.91,1.69,2.08,1.43,3.91.78.52,1.04,1.69,1.56,2.74.13.13.13.52.26.65.52.52.39,1.04.52,1.43.26.78.65,2.21.78,3.39.13.65-.13,1.17,0,1.69.26,1.69,1.04,3.26,1.82,4.43-.13,2.08,0,3.65-.13,5.73-.13,2.21.52,4.69.39,7.56,0,3.26-.91,7.04-1.82,10.03ZM182.56,42.8c0-.78.13-1.69,0-2.35s-.52-1.17-.78-1.82c-.13-.78.52-1.04,0-1.56-.52-1.04-.91-2.48-1.3-3.78-.13-.39-.52-.52-.78-.78-.39-.39-.52-.65-.91-1.17-.13-.26-.52-.52-.78-.78-.26-.52-.26-.91-.65-1.3-1.04-1.17-2.74-2.08-4.3-3.26-.78-.52-1.3-1.17-2.08-1.69-.26-.26-.91-.39-1.17-.65-.52-.39-.78-.91-1.04-1.17-1.43-.65-3.26-.39-4.43-1.69-2.22.26-4.3-1.17-7.17-1.04-.52-.13-.78-.52-1.43-.65-1.17.39-1.95,0-2.87-.26-.65-.13-1.17-.39-1.69-.52-1.17-.26-2.35-.78-3.39-.91-.26,0-.52.26-.65.26-.91.13-1.82-.52-2.74-.52-.78,0-1.82.39-2.48.39,0,0-.26-.39-.39-.39-.26-.13-.65,0-.91,0-1.3-.26-3.52-.26-4.56-.52-.78-.39-1.69-.39-2.35-.91-.52.65-.78.78-1.17,1.04-1.17.39-1.69,1.3-2.61,1.82-.78.39-1.82.52-2.61.91-.39.26-.65.78-1.04,1.04-.39.39-.91.52-1.3.78-.78.65-1.3,1.69-2.35,1.95-.39.78-1.17,1.69-1.69,2.48-.65.78-1.17,1.82-2.22,2.21,0,1.3-.78,1.96-.91,3.13.13.39-.39.26-.52.39-.52,1.04-.65,1.56-.91,2.34-.13.39-.26.65-.52,1.04-.26.65-.78,1.17-1.04,1.82s-.52,1.3-.91,1.82c-.65,1.3-1.04,1.82-1.3,3.39-.39,1.69-.91,4.04-.78,5.08.13.26-.26.52-.26.52,0,.65.13,1.17,0,1.69,0,.52-.39.91-.39,1.3-.52,2.35,0,4.56.26,6.91.13,1.82-.13,3.65.13,4.82,0,.52.52,1.17.78,1.69.13.78.13,1.43.39,2.21,0,.13.26.52.39.78.26,1.04.52,2.48.91,3,.52.65,1.17,1.04,1.69,1.69s.78,1.43,1.17,2.08c.26.39.65.52.78.91.26.39.39.78.65,1.04.52.65,1.17,1.04,1.69,1.69.52.65.91,1.43,1.43,2.22,2.48,1.3,4.43,3,6.38,4.95,2.22.26,4.56,1.43,6.25,2.08.65.13,1.56.52,2.35.65.65,0,1.3-.26,2.08-.26,1.56.13,2.61.78,3.91,1.04,1.43.13,2.87-.13,4.17.52.78-.52,1.3-.39,2.21-.26,1.56-1.17,4.04-.52,6.12-1.04.26-.13.39-.39.52-.39.39-.26.52-.13.91-.26,1.17-.52,1.95-1.04,3-1.43.52-.13,1.17-.39,1.69-.52.26-.13.26-.39.65-.65.26-.26.65-.26,1.04-.39.52-.26,1.04-.91,1.82-.78.52-1.04,1.43-1.43,2.61-1.69.26-.65.78-.91,1.04-1.17.52-.39.52-.13.65-.65.13-.26.78-.65.91-.78.65-.91,1.3-1.82,1.95-2.48.13-.78.78-.91,1.04-1.3.13-.91.52-1.56.91-2.21.26-.78.91-1.3.91-2.35.91-.26.91-1.3,1.3-2.08,0-.13.26-.13.39-.39s.13-.52.26-.65c.26-.65.65-1.17.91-1.69.26-.65.52-1.04.78-1.56.26-.39.26-.91.52-1.3.13-.39.52-.65.65-1.04.13-.65,0-1.56.26-2.35.39-.65.91-1.17,1.04-2.21.13-.65-.26-1.56-.13-2.34.13-.65.65-1.43.91-2.22.26-1.04.78-2.48.65-3,0-.26.26-.52.26-.65v-1.43c.13-.78.52-1.17.52-1.82,0-.78-.39-1.69-.39-2.61Z"/><path class="cls-1" d="M275.85,99.6c-.26.26-.78.26-1.04.52-.39.13-.52.52-.91.52-.78.13-1.56.13-2.08-.26-2.21.52-4.17.13-6.12.52-.65.13-1.17.78-1.82,1.04-1.04.26-1.69.13-2.74.13-.65-.52-1.04-1.43-1.43-2.08-.52-.52-1.04-1.04-1.43-1.56-.39-.39-.52-1.04-.91-1.43-.13-.26-.26-.65-.52-.91-.65-.65-1.3-2.08-1.69-3.13-.52-.65-1.04-1.43-1.56-2.21-.52-.65-1.3-1.43-1.69-2.08-.26-.65-.26-1.3-.52-1.95-.52-1.04-1.56-1.82-1.69-3-.65-.65-1.04-1.69-2.22-1.95-.39-1.17-1.3-1.82-1.82-3-.26-.39-.52-1.04-.78-1.69-.26-.52-.26-1.17-.65-1.69-.52-.91-1.69-1.17-1.95-2.35-1.3,0-1.43-1.17-2.61-1.3-.91-1.69-2.22-3-3.26-4.69-2.48-1.17-3.91-3.52-6.52-4.69-.39-.91-1.17-1.3-2.35-1.43-.78,1.17-.39,2.87-.52,4.43-.13,1.95-.65,3.78-1.17,5.08-.26.91.52.78.39,1.69-.13.52-.52,1.3-.39,1.82,0,.78.65,1.56.65,2.74.13,1.17-.52,3.39-.65,4.69,0,.26.13.65.13,1.04s-.13.52-.13.78c0,1.17,0,2.21-.13,3.39,0,.39.26.91.13,1.3,0,.65-.52,1.3-.65,2.08,0,.39.26.52.26.78,0,.39-.26.39-.26.65,0,.52.26,1.04.13,1.43-.13,1.82-.78,2.48-.52,4.3.13.39.13.65.26,1.04,0,.13.26.39.13.78-.13,1.17-1.69,1.82-1.69,2.87-1.95-.13-3.52.91-5.08,0-1.17.39-3,.78-4.56.65-.26,0-.65.13-.91,0-.13-.13-.13-.39-.39-.39-.52-.13-1.04.39-1.3,0-.26-.39-.26-.91-.78-1.17.52-2.21-.52-4.3.78-5.86,0-.52-.26-1.04-.13-1.69,0-.39.13-.78.13-1.17,0-.78-.39-1.43-.39-2.08.13-.52.52-1.04.52-1.56.13-.78-.39-1.82-.39-2.87,0-.91.26-1.95.26-2.74,0-.91-.65-1.95-.13-3,.39-.65.13-2.21.13-3.52,0-.78.13-1.56.26-2.34,0-.91-.13-1.82-.13-2.74,0-.39.26-1.04.13-1.43,0-.52-.39-.26-.39-1.04,0-.52.26-1.17.26-1.69.13-.91,0-1.82.13-3,0-.65-.26-1.43-.13-2.08,0-.26.13-.78.13-1.04,0-.52-.26-.78-.39-1.3,0-.52.26-1.04.26-1.69,0-1.17-.52-3.26-.52-4.56,0-.39,0-.91.52-1.3-.39-.26-.26-1.17-.65-1.43.13-.78.39-1.56.52-2.34,0-1.17-.26-2.21,0-4.04.13-.39.52-.91.52-1.43,0-.65-.26-1.43-.13-2.08,0-1.56.26-3.39.52-5.08-.26-.13.13-.78.13-1.04.13-.39-.13-.91-.13-1.43,0-1.17.52-2.08.26-3.39,0-.39-.13-1.04-.13-1.82,0-.39.26-.78.26-1.04-.13-.65-.39-1.3-.39-1.96,0-.39.26-.52.26-.78,0-.39-.26-.39-.26-.65.26-.65,0-.78,0-1.43.13-1.3.26-2.08.13-3.65,0-.26-.26-.78-.26-.78,0-.39.39-.39.26-.65,0-.52-.39-1.3-.78-1.95.26-1.04,0-2.48.13-3.78,0-.39.26-1.04.26-1.43-.13-.39-.26-.65-.39-1.04-.13-.26-.13-.78-.26-1.04-.13-.65-.52-1.43-.52-1.95,0-1.04.52-1.95,1.04-2.74.39-.26.78-.52,1.43-.39.39-.39.78-.91,1.3-1.17,1.43-.26,1.95.52,2.74.91,1.43-.39,2.87-.13,4.69-.39.39,0,.65-.26,1.04-.39.52,0,1.04.26,1.43.26s.91-.26,1.3-.39c.91-.13,2.08,0,3.13.13h1.04c.26,0,.39.26.65.26.91-.26,1.56.13,2.08.26,1.43.13,2.87.13,4.17.26,1.3.13,2.74.26,4.17.65.52.13,1.04.65,1.56.78.65.13,1.69,0,2.48.26,1.82.39,3.65,1.3,5.47,1.69.91.26,2.08.52,2.87,1.17,2.22,0,4.3.52,5.6,1.17.78.26,2.08.52,2.74,1.17.78.65,1.56,1.17,2.22,1.82.13.13,0,.39,0,.52.26.13.65,0,.91.13.13.26.13.65.39.91.26.26.52.39.78.65.26.26.39.65.65.78.13.26.52.13.65.26.13.26.52.78,1.04.91.39,1.3,1.43,1.82,2.22,2.74.13.13,0,.52.13.65.13.13.39.13.52.26.26.52.13,1.3.78,1.69.39.39-.26.52,0,1.17.78,1.69.65,4.04,1.95,5.21-.13,1.43.39,2.48.91,3.52-.39.78,0,1.69,0,2.48,0,.91-.78,1.82-.13,2.35-.65,2.08-1.17,4.43-2.35,6.12-.26.26-.39.91-1.17.91.13,1.04-.65,1.17-.65,2.08-1.17.78-1.82,1.56-2.74,2.74-.52.65-.91.91-1.69,1.43-.26.13-.52.52-.65.65-.52.26-1.17.39-1.69.78-.39.52-.78.26-.91.39-.26.13-.39.52-.65.65-.52.26-1.17.52-1.69.78-.13.13-.39.52-.65.65-.26.13-.65.26-.78.39-1.56.65-3.52,1.17-5.08,2.34-.91-.26-1.69.52-2.74.78-1.3.39-2.35-.13-2.61,1.04-.26,1.17,1.04,1.56,2.08,2.35.39.91.91,1.82,1.95,2.08.26.26.39.65.26,1.04,1.17.13.91,1.43,2.08,1.56.26.65.65,1.17,1.04,1.69.13.39.65.52.91.91.26.13.13.39.26.65.13.13.52,0,.65.13.13.26,0,.65.13.91.13.13.39.13.39.39.65,1.04,1.43,2.35,1.82,3.65.52.52,1.04.91,1.69,1.43,0,.65.39.91.39,1.56,1.04,1.17,2.48,2.21,2.87,4.04.52.26.78.91,1.43,1.04.52,1.69,1.82,2.87,2.87,4.3.26.52.65.91,1.04,1.3.65.91,1.17,1.82,1.82,2.74.13.26.39.39.52.65.39.65.52,1.69,1.43,1.96.13.78.78,1.04.65,2.08.65.39,1.3.78,2.08,1.17.26,1.17.65,2.08.39,3.13-.26.52-.78,1.04-1.56,1.56ZM259.18,29.5c-.26-.52-.13-1.17-.26-1.43-.13-.52-.65-.78-1.04-1.3-.39-.78-.78-1.43-1.17-1.69-.52-.39-.78-1.04-1.3-1.17,0-.39-.39-.52-.39-1.17-.91.13-.91-.65-1.82-.52-.26-1.04-1.82-.91-2.21-1.95-1.3-.13-2.08-.78-3-1.3-.52.13-.91.52-1.69.39-.78-.13-1.43-.52-2.22-.65-.39-.13-.78.13-1.17.13-.52,0-1.3-.39-1.82-.39-.65-.26-1.43-.52-2.08-.52-1.3-.13-2.87.26-4.43.39-2.87,0-5.6-.52-8.21-.26-.26.65.39,1.04.39,1.69,0,.52-.26.78-.26,1.3.13.52.39,1.17.39,1.82s-.26,1.3-.26,1.3c.26,1.17.26,1.96.26,2.48-.26,2.21-.13,4.3-.26,6.51,0,2.48-.13,4.3-.26,6.38,0,.39.13.65.13,1.04,0,.65-.39,1.04-.39,1.69-.13,1.04,0,1.95.26,2.87,1.69.52,3.78.39,4.69.39.39,0,.39.13.78.13s.39-.13.91-.13c1.69.13,3.13.52,4.82.26.65,0,1.56-.13,2.35-.26.26-.13.39-.39.78-.52.52,0,1.04.13,1.43.13.39-.13.52-.39.91-.39.78-.26,1.3-.26,1.69-.39.39-.13.78-.26,1.04-.39.91-.39,1.95-.78,2.74-1.04.26,0,.52.13.65,0,.13,0,.39-.39.39-.39,1.17-.39,2.35-.78,3.39-.91.52-1.43,2.61-1.17,2.87-3,.52-.26,1.3-.13,1.43-.78.52-1.56.91-3.39,1.82-4.56-.13-1.3.39-1.43.65-2.74-.13-.39-.39-.65-.52-1.04Z"/><path class="cls-1" d="M347.91,22.21c-1.17,0-2.35.13-4.04-.13-.39,0-.78-.39-1.04-.39-.52,0-1.17.13-1.69.13-.65,0-1.04-.13-1.69-.26h-1.43c-2.21-.26-4.43.26-6.78.52v1.17c0,.39.26.65.26.65,0,.39-.26.65-.26.65,0,.52.13.91.13,1.43s-.26,1.04-.13,1.56c0,.39.26.91.39,1.43,0,1.04-.26,2.34-.13,3.78,0,.52.26,1.04.39,1.69.13.52,0,1.17.13,1.69.13.78.52,1.3.65,2.08,0,.78.13,2.21.13,3-.13.91-.52,1.82-.52,2.74,0,.78.65,1.43.78,2.35.26,1.17,0,2.61.13,3.91,0,.52.39,1.04.39,1.56.13.65-.13,1.3,0,1.82.13.78.39,1.43.78,2.34.13.39.26,1.17.13,2.08,0,.39-.26.78-.26,1.04,0,.52.39,1.04.39,1.56.26,2.35-.13,4.95.52,7.3-.26.39-.13,1.17-.52,1.43.26.65.52,1.3.65,1.95,0,.65-.26,1.17-.26,1.82s.26,1.17.39,1.69c0,.65-.26,1.17-.26,1.96,0,.52.13,1.17.13,1.69,0,1.17.13,2.35,0,3.39-.13.39-.52.91-.52,1.43,0,.78.13,1.82.13,2.74,0,.26-.13.52-.13.65.13.39,0,.39-.13.52,0,.26.26.52.26.91-.13,1.04-.52,2.22-.52,3.13,0,.39.26.52.39,1.04.26.91.39,1.43.65,2.34.26.91.13.91.13,1.96,0,.52.52,1.3-.26,1.82.78.65,1.69,1.43,1.17,3.13-.26,1.17-1.69,1.17-2.35,1.95-.52-.13-.91-.26-1.04-.65-1.82,0-3.78-.13-5.47-.78-.78.13-1.3.39-2.08.52-.65,0-1.3.13-1.69-.26-.52.65-1.3.52-2.74.65-.13,0-.26.26-.65.13-.78-.13-.78.13-1.04.26-.52.13-1.82,0-2.48.13-.91.13-1.95.39-2.74-.13-1.3-.26-.78-2.21-1.43-3.13.13-1.04,1.17-1.43.65-2.48.52-.65.91-1.3,1.3-1.96.26-.78.26-1.95.52-2.61.26-.65,0-1.04,0-1.96,0-1.17.39-2.21-.26-3.39.52-1.04.39-2.22.39-3.13.13-.13.26-.26.26-.65,0-.52-.39-1.17-.39-1.69,0-.78.52-1.69.52-2.48,0-.52-.39-.78-.39-1.3-.13-.52.26-1.3.26-1.82,0-.65-.13-1.43-.39-1.96.39-.13,0-.91.39-1.04-.39-.91-.26-2.08-.26-3.39-.13-1.56,0-3.65-.39-5.21,0-.39-.26-.65-.39-1.04-.13-2.48,1.17-5.21-.26-7.17.65-2.35-.26-5.86.26-7.95.13-1.04-.78-.78-.65-1.56,0-1.17.13-2.87-.26-4.04-.78-1.56-.26-5.34-.13-7.56-.26-.65-.65-1.04-.78-1.82-.26-1.43.39-2.74.52-4.17.13-1.17,0-2.48.13-3.26.13-1.43-.39-3.39-.39-4.95-2.08.13-4.17.52-6.25.65-.39,0-.52-.26-.91-.26-.65.13-2.61.39-3.78.52-.39.13-.91.39-1.3.39-1.17.26-2.48,0-3.78.13-2.08.39-4.3,1.3-6.51.78-.91-1.43-.39-3.26-.52-4.3-.13-.65-.13-1.17-.13-2.21,0-.39.26-.78.26-1.04s-.39-.52-.52-.65c-.13-.91.13-1.96.13-2.74,0-.91-.91-.65-.78-1.56.13-2.35-1.3-5.86.52-7.69.91-.26,1.69-.52,3-.13.39,0,.91.13,1.3.13.78.26,1.69.65,2.48.78.52,0,1.17-.26,1.82-.26.78,0,1.56.26,2.35.26.39.13.13,0,.78.13.26,0,.91.13.91.13.78,0,1.69-.52,2.48-.52,1.04,0,2.08.39,3.13.52.52,0,1.04-.13,1.56-.26.39,0,.65.13,1.04,0,.52,0,.91-.26,1.43-.39.52,0,.91.26,1.43.26.26,0,.52-.39.65-.39,1.3-.26,2.87.26,4.04-.13.65,0,.78.52,1.3.65.91-.26,1.43-.52,2.08.26.65-.52,1.3-.91,2.35-.91.65-.13,1.69.52,2.87.39.65.39,2.61-.13,3.13.52.78-.13,1.43-.26,2.08-.39h.91c.39,0,.78,0,1.3.13.52,0,.91.26,1.56.39,1.3.26,2.87.13,4.3.13,2.35-.13,5.08-.91,6.51-.26.26.13,1.3,1.3,1.43,1.69.13.39.13,1.17.13,1.69.13,2.08-.26,4.82-.13,7.3,0,1.3.39,2.61.52,3.65.13,1.17.65,2.34-.26,3.13Z"/><path class="cls-1" d="M420.48,9.44c.52.65,0,1.3,0,2.08-.13,1.82.13,3.78-.13,5.47-.13.78-.52,1.43-.91,2.08-.39.65-.65,1.43-1.04,1.82-1.43.91-3.52-.65-5.34.13-1.3-1.04-2.74,0-4.17-1.17-1.56.52-3-.13-4.56-.26-.52,0-1.04.26-1.56.13-.78-.13-1.69-.65-2.61-.65-.65-.13-1.43.13-2.21.13h-2.21c-2.22-.13-4.82-.39-7.95-.65-2.61-.26-5.08-.39-8.08,0-.78,1.56-.26,3.52-.13,5.34s.26,3.78.39,5.6c0,.52-.26,1.04-.26,1.56,0,1.04.26,2.74.26,4.17,0,1.04-.39,1.95.13,3,.78.26,1.82.39,2.61.39,1.04.13,2.22.13,3.26.13,1.82-.13,3.65-.13,5.47-.13,2.87,0,5.47,0,8.86-.26,1.56-.13,3-.65,4.43.13.91-.26,1.95-.26,2.74-.39.78-.13,1.17.13,2.08.13.39,0,.78-.26,1.04-.26,1.56.13,2.87.39,4.3.39.78-.13,1.56-.39,2.21-.26.78,0,.78.78,1.04,1.3.65,1.43.52,2.61.39,4.69-.13.13.26.26.13.65,0,.13-.39,1.04-.39,1.56-.13,2.08,0,3.91.65,5.6-.39.78-.65,1.95-1.3,2.61-.65-.13-1.17.39-1.69.39-.78,0-1.17-.39-1.82-.65-.26-.52-1.43.52-1.3-.65-.65-.26-.65.65-1.04.78-.65.26-1.82,0-2.35.65-.91-.65-2.08-.39-3.13-.13-.91-.39-1.69-.39-3.13-.52-.78-.39-2.21.52-3,.65-1.56-.52-3,0-4.17.52-.91.13-.78-.78-1.56-.65-.65.52-2.21.13-2.74.78-.91-.91-2.87.26-3.78-.78-.39.65-1.04.13-1.82.26-.65,0-1.3.26-1.95.26-.91.13-1.95-.52-2.87,0-.78.52-.39,1.43-.52,2.35-.13.52-.39,1.04-.39,1.56,0,.65.39,1.3.26,1.95,0,1.3-.52,2.87-.91,4.43-.13.39-.39.91-.39,1.17-.26,1.43.13,2.87-.78,4.04.26.52.39.91.39,1.43.13,1.3.13,2.87.13,4.3,0,1.04,0,2.21-.26,3.26-.13.52-.39,1.04-.39,1.56-.13.91.39,1.95.13,2.87,1.56.91,3.39.39,5.6.39.39,0,.65-.26.91-.26,1.95.13,5.08-.26,7.56-.26,1.3,0,2.35.39,3.52.13,1.17-.26,3-.52,4.3-.39.26.13.78-.13.78-.13,1.17,0,2.08.26,3.13.26,1.43,0,2.74-.13,4.04-.26.65-.13,1.3-.39,1.82-.39.26,0,.78.26,1.04.13.13,0,.52-.13.91-.13s.65.13,1.04.26c1.04,0,2.08-.65,3.52-.39.52.39.39,1.17.91,1.56-.13.78.65.78.78,1.43.26,4.04-.52,7.95-.65,12.38-.26.52-.91.65-1.56,1.04-.52.26-1.04.78-1.69.78s-1.43-.39-2.08-.52c-.78,0-1.56.26-2.48.26-1.43,0-3.13-.26-4.82-.39-.39,0-.78-.26-1.04-.26-.78.13-2.61.13-3.39-.39-.78-.13-1.04.52-1.69.52-1.69-.52-3.78-.39-5.86-.52-1.56-.13-3,.26-4.69.26-1.3.13-2.74-.13-4.17,0-1.43,0-2.74.39-4.04.26-.78,0-1.43-.39-2.21-.39-.39-.13-.39.13-.65.13s-.91-.39-1.56-.39c-1.43-.26-3-.13-4.3-1.04-.65.26-1.3,0-1.95,0,0,0-.52.26-.78.26-.13-.13-.52-.26-.91-.26-1.17.13-2.21.78-3.39.52-.26-.13-.39-.65-.78-.39-.39-.52-.39-1.17-.65-1.95-.13-.52-.52-1.04-.52-1.69-.13-.78.13-1.43,0-2.08-.13-.91-.65-1.69-.91-2.34.39-1.82-.26-3.39-.13-5.47.26-.52,0-.65,0-.78,0-.65.26-1.17.26-1.69s-.26-1.04-.39-1.56c-.13-.78.13-.52,0-1.43-.13-1.17-1.04-2.87-.52-4.43,0-.13.26-.65.26-.65,0-.39-.39-.65-.39-1.04,0-.91.39-1.82.52-2.87,0-.78-.13-1.43-.26-2.08,0-.26.39-.52.26-.91,0-.13-.39-.13-.39-.65,0-.65.26-1.43.26-2.08,0-.13-.26-.39-.26-.78.13-.52.65-1.69-.13-2.35.78-1.69,0-3.52,0-5.47-.13-.78.13-1.43.26-2.35,0-.65-.26-1.3-.26-1.82.13-1.04.13-1.95.13-3.13,0-.52.26-1.04.26-1.56-.13-.39-.39-1.17-.39-1.69,0-.65,0-1.17.39-1.43-.39-.78-.78-1.3-.13-2.08-.13-.52-.26-.91-.65-1.04,0-.65.52-.65.52-1.3.13-.65-.52-.39-.65-.78.52-1.17.26-2.48.26-3.78,0-.52.26-1.17.26-1.69,0-.78-.26-1.3-.13-1.95,0-.39.39-.78.39-1.17.39-1.56.13-3.13.78-4.3-1.04-2.08.13-5.34.13-8.34.13-2.08-.26-4.3,0-6.91,0-.26.26-.91.26-.91-.13-.91-.65-1.95-.65-2.87s.39-1.82.78-2.61c.26-.65.52-1.3,1.17-1.56,7.3,1.3,14.46-.26,20.85.26,1.82.13,3.65.78,5.47.91,1.17.13,2.35-.26,4.04-.39.39,0,.78.26,1.17.26.52,0,.91-.13,1.3-.13.78,0,1.56.39,2.35.39,1.17.26,2.48.26,3.78.39,1.04,0,2.21-.26,3.39-.13,1.56,0,4.04.65,5.99.78.26,0,.52-.26.91-.26.39.13.91.39,1.43.52,2.21.26,4.3,0,6.51.26.78.91,1.69,3.52-.13,4.04Z"/><path class="cls-1" d="M504,100.78c-1.04.65-3.13.78-4.04-.13-1.82.52-5.6.39-7.17-.78-2.35.78-5.73-.13-8.08-.65-1.17-.91-1.3-2.87-2.48-3.78-.52-1.56-1.3-2.87-2.48-3.91-.13-2.21-1.95-3-2.22-5.21.13-.65-.78-.26-.78-.65-.39-1.04-.65-1.95-1.04-2.74-.39-.91-1.17-1.56-1.17-2.61-1.3-1.04-1.43-2.61-2.48-3.78,0-.13.13-.39,0-.52-.52-.13-.39-.39-.52-.65-.26-.52-.91-1.3-1.04-2.21-.52-.65-.91-1.17-1.43-1.82-.65-.91-1.17-1.95-2.08-3-.13-.13-.39,0-.52-.13-.13-.13-.13-.52-.26-.65-.52-.65-1.04-1.17-1.43-1.96-.65.39-.65,1.43-1.04,2.08-.65,0-.52.65-.91,1.04-.39.26-.78,1.04-1.43,1.43-.26.91-.78,1.69-1.17,2.48-.39.78-.91,1.56-1.56,2.08.13.91-.52,1.17-.39,2.08-.65,0-.65.91-.91,1.3-.13.13-.26.39-.39.52-.26.65-.78,1.56-1.56,1.69,0,2.08-1.43,2.74-2.35,3.91-.39,1.69-1.17,2.74-2.22,3.78,0,1.82-.91,2.74-1.69,3.78-.13,1.43-.65,2.35-1.43,3.26-.13.26-.52.39-.65.65-.13.39.13,1.17-.65,1.3,0,.52.13,1.3-.26,1.56-.78,1.17-2.08,1.3-3.91.65-.78-.39-1.69-.78-2.08-1.17-1.17.13-1.95-.26-2.74-.65-.26-.13-.52-.13-.91-.26-.13,0-.39-.39-.52-.39-.26-.13-.65.13-.91,0-.26-.26-.52-.65-.78-.91-1.3,0-2.21-.26-3.13-.52-.78-.91-1.04-2.08-.78-3.13.13-.78,1.17-1.69,1.95-2.48.65-.91,1.3-1.95,2.08-2.08,0-.65.52-1.04.91-1.69.13-.13.26-.52.39-.78.13-.13.39-.13.52-.13.13-.52.78-1.17,1.04-1.69.13-.26.13-.78.26-1.04.65-.65.91-1.43,1.3-2.08.52-.39.26-.65.39-.91.13-.13.52-.13.65-.39.65-.91.91-2.08,1.95-2.61.26-2.35,1.56-4.17,2.48-6.12.26-.39.26-.91.39-1.43.13-.13.78-.52.65-.78.13-1.04.65-1.82,1.17-2.74.39-.78.52-1.3.91-2.48.26-1.17.65-1.43,1.3-2.48.52-1.17,1.17-2.35,1.69-3.52.13-.39.13-.52.26-.65.65-1.3.91-2.22,1.3-3.13.65-1.3,1.82-2.74,1.82-3.52,0-1.17-.78-2.08-1.43-2.87,0-1.17-.78-1.96-1.17-2.87-.13-.39-.13-.78-.26-1.04-.39-.91-.91-1.43-1.43-2.21-.13-.39-.13-.91-.39-1.3-.13-.39-.39-.65-.52-1.04-.52-1.17-.91-2.34-1.43-3.78-.13-.39-.26-.91-.39-1.3s-.65-.65-.78-1.04c-.26-.39-.26-.91-.39-1.3-.13-.13-.26-.26-.39-.39-.78-.91-1.43-2.87-2.08-4.04-.13-.39-.13-.91-.39-1.3-.26-.39-.65-.52-.78-.78-.26-.52-.26-1.04-.39-1.56-.26-.65-.65-1.56-1.17-2.34-.65-.78-1.43-1.43-2.08-2.08-1.3-1.3-2.48-2.87-3.65-4.56-.52-.65-.91-1.69-1.95-2.08,0-.65-.52-1.17-.91-1.69-.39-.52-1.04-1.04-1.3-1.56-.13-.65-.13-1.43.13-2.21.13-.91-.78-.78-.65-1.56.78-.91.26-1.82,1.17-2.74,1.04-.26,1.82-.26,3.26.13.78.13,1.82.65,3,.65.52,0,1.04-.26,1.69-.39,1.04,0,2.35,0,3.78-.13.91,0,1.82.26,2.48.13,1.04-.13,1.3-.39,1.69-.39.91.13,2.87-.13,3.65.52,1.04.91.91,2.74,1.95,3.78v1.3c.65.65.78,1.82.91,3,.26.78.26,1.56.65,2.48.13.52.26,1.43.52,2.34.39,1.04,1.3,2.74,1.43,4.43.78,1.04,1.82,1.82,1.95,3.65.78.52.91,1.43,1.43,2.35.26.26.52.39.65.65.13.13-.13.39,0,.52,1.04,1.17,1.82,2.08,2.48,3,.26.52.52,1.04.91,1.56.78,1.04,1.43,2.61,2.48,3.65.26.65.39,1.17.65,1.82.91-.13,1.04-1.17,1.3-1.82.13-.39.52-.65.65-1.04s0-.91.26-1.17c0-.26.39-.39.65-.65.13-.26,0-.78.13-1.04.26-.26.52-.39.65-.65.13-.26.13-.52.26-.78.39-.91.78-1.95,1.56-2.74,1.43-2.21,1.95-4.56,3.65-5.99-.13-.52.26-.91.52-1.3.26-.78.78-1.43,1.04-2.21.39-.91.39-1.43.91-2.08.52-.78.78-1.69,1.3-2.61.26-.52.78-1.04,1.04-1.56.39-.65.39-1.3.78-1.95.65-1.17,1.82-2.08,2.08-3.52.52,0,1.56-1.04,2.35-1.17.39-.13,1.17,0,1.95,0,.52,0,1.17-.13,1.69-.13.39,0,.78.39,1.17.39.91.13,1.82-.13,2.74-.13s1.82.26,2.74.26c3.13.13,5.34-.39,6.91.39.52.26,1.17.78,1.3,1.3.52,2.08-2.08,3.78-2.48,5.86-1.04.26-1.3,1.43-1.95,2.21-.26.26-.78.91-.91,1.69-.39.13-.52.39-1.04.39.39.91-.52,1.17-.78,1.69-.39.39-.26,1.17-.91,1.43,0,.78-.26,1.43-.65,2.08-.91,1.3-1.82,3.65-2.74,5.34-.13.39-.39.65-.65,1.04-.13.52,0,1.17-.13,1.56-.26.39-.65.91-.91,1.43-.52,1.04-.78,1.69-1.56,2.61-.13.13-.39.39-.39.52-.52.65-.91,2.08-1.95,2.48-.13,1.56-1.56,2.34-2.22,3.65-.13.26-.13.91-.26,1.04-.65.65-.91.91-1.3,1.43,0,.26,0,.52-.13.65-.13.26-.52.26-.65.39-.26.39-.52,1.17-.91,1.69-.91,1.43-2.21,2.61-2.87,4.17-.65,0-.78.39-1.17.65-.13.91-.78,1.17-.91,2.08,0,.78.65.91.78,1.69.65.13.26.78.65,1.17.13.39.78.65.91.91.26.26.39.91.65,1.3.26.39.65.52,1.04.78-.26.78.39.65.65.91.13.13.13.78.39,1.04.13.13.52,0,.65.26.52.78.91,1.56,1.3,2.34.39.52.78,1.04,1.3,1.69.26.39.26.65.52,1.3.13.13.39.26.52.39.13.39.39.91.52,1.3,1.3,2.34,2.61,4.82,3.91,7.43.13.39.39.78.52,1.3.13.39.26.78.39,1.17.39.78.91,1.43,1.3,2.21.13.26,0,.39.13.65.13.13.26.13.39.39s.13.39.26.65.26.52.52,1.04c.26.39.78.91,1.04,1.43.39.78.65,1.56,1.04,2.21.39.65.91,1.17,1.43,1.82.13.26,0,.52.13.65.65.91,1.69,2.08,2.74,3,.52.52,1.3,1.04,1.69,1.56.26.39-.13,1.04.52,1.04-.13.91.26,1.3.13,2.08.26.78,1.56.52,1.69,1.3.13,1.3-.39,2.08-.65,3Z"/></g></svg>