<?xml version="1.0" encoding="UTF-8"?><svg id="Layer_2" xmlns="http://www.w3.org/2000/svg" viewBox="0 0 3332.92 808.59"><g id="artwork"><path d="M2994.48,209.44c-.48-4.74-3.16-10.48-3.91-15.07-.22-1.36-.94-3.9,1.4-3.4,14.38,8.56,7.76,31.73,15.48,42.47,3.37,4.69,16.87,7.81,20.11,2.81,3.45-5.34-2.39-32.24-5.21-38.68-2.3-5.25-10-17.37-14.84-19.98-2.85-1.54-9.74-2.95-13.4-4.74-26.99-13.24-43.57-38.89-73.35-45.58-11.03-2.48-22.5-1.52-33.46-4.53-17.55-4.81-40.99-20.95-58.56-21.47-7.44-.22-7.01,9.22-12.44,12.03-6.3,3.25-5.37-6.01-6.71-9.81-2.36-6.69-19.78-19.08-26.05-15.94-7.47,3.74,6.69,17.69,1.5,22.47-5.82-4.84-13.56-6.14-19.82-10.15-2.36-1.51-7.15-6.82-7.91-7.15-4.1-1.77-11.03-2.14-15.78-4.14-3.55-1.5-8.16-4.84-12.3-6.69-13.9-6.21-20.52-9.83-29.49,5.85-7.88,13.76-8.94,37.17-5.88,52.47.73,3.65,7.06,26.29,9.22,26.77,5.09,1.13,3.36-7.64,3.64-9.24.53-3,4.86-8.4,5.57-11.51,2.62-11.52-2.54-8.73-7.41-14.53-5.71-6.79-.75-27.29,2.95-34.88,5.14-10.55,10.15-6.81,18.04-1.58,11.27,7.47,17.78,18.94,31.46,23.5,3.92,1.31,9.59,1.56,12.94,3.05,3.77,1.67,12.06,9.43,17.59,12.39,9.03,4.84,35.97,12.84,38.45,23.51,3.28,14.13-9.03,2.01-14.37,1.32-6.1-.79-8.47,3.66-7.19,9.25,1.12,4.92,11.43,7.91,7.3,14.72-2.21,3.64-24.55,5.14-30.38,15.59-.88,1.58-1.21,6.07-2.64,6.37-.69.15-9.1-4.6-13.14-4.69-3.26-.07-7.22,3.08-10.91,3.6-8.91,1.24-15.64.54-13.2-10.19,1.17-5.14,10.53-8.1,7.04-16.42-2.11-5.02-5.29-1.01-10.22-.78-2.45.11-2.12-2.37-6.52,1.5-2.78-.62-2.37-23.05-8.89-21.92-6.69,1.17-2.18,24.37-1.69,29.29-.65,2.41-6.54,1.11-8.21.41-1.09-.46-6.34-9.55-8.2-11.78-6.04-7.27-14.33-12.4-20.37-19.69.84-9.16,1.54-19.57.89-28.78-1.12-15.83-5.93-21.26,2.23-37.66,10.43-20.98,28.33-18.38,47.52-11.04,11.67,4.46,22.24,15.22,35.89,9.48,5.43-2.28,7.07-5.5,14.66-5.14,2.29.11,12.85,3.63,15.38,4.7,3.17,1.34,6.22,5.12,10.99,6,4.38.81,9.28-.14,13.75.25,11,.94,23.71,9.51,35.4,13.58,31.86,11.08,76.34,17.7,103.96,36.97,8.84,6.17,14.07,13.51,24.28,17.69,1.94.79,4.37.56,6.53,1.47,17.8,7.48,23.65,21.68,34.31,35.64,3.69,4.84,17,18.4,18.7,22.27.92,2.09,2.31,10.29,2.3,12.68-.03,6.68-4.19,14.02-4.11,20.02.51,40.61,40.57,87.51,34.98,126.78-.74,5.22-6.59,11.57-11.19,13.79-3.52,1.69-13.02,2.42-15.46,5.02-.99,1.06-1.35,4.26-2.43,6.07-10.34,17.21-25.04,18.71-38.27,30.68-9.46,8.56-7.8,15.38-23.15,16.83-23.66,2.23-41.26-14.14-64.11-18.61-17.96-3.51-42.35-1.61-58.62-8.35-22.85-9.47-33.95-19.69-61.1-21.86-29.72-2.37-41.67-2.25-70-13.97-31.37-12.98-58.48-35.51-93.13-19.19-2.51,1.18-8.87,4.39-9.09,6.86,4.16,26.25,5.25,51.78,16.04,76.47,11.98,27.42,38.78,63.95,64.41,79.49,112.52,68.26,247.82,87.34,373.83,117.94,40.19,9.76,75.57,20.96,114.38,34.55,37.37,13.08,85.71,25.72,115.39,52.52,18.38,16.59,16.67,29.02-.82,45.58-20.23,19.15-56.01,33.22-82.89,21.09-5.34-2.41-11.21-7.73-16.38-10.6-92.87-51.48-222.45-79.9-327.76-93.04-115.77-14.45-237.63-16.28-351.62-40.24-15.12-3.18-21.24-4.24-31.79-16.19-24.31-27.55-36.36-90.18-61.02-108.85-13.25-10.03-17.48-1.44-28.68,4.17-57.09,28.59-109.61,59.27-172.98,72.89-102.56,22.03-224.57,27.03-327.51,6.18-62.16-12.59-119.57-40.49-175.65-69.23-84.05-43.06-167.39-109.78-265.29-116.52-6.94-.48-27.13-1.16-32.93,1.14-4.93,1.95-18.09,16.92-23.58,21.39-14.51,11.83-37.28,25.43-53.71,35.24-138.7,82.8-313.78-.09-456.93-29.49-53.18-10.92-115.59-22.44-169.64-24.29-29.17-.99-72.47-1.03-97.42,14.62-32.36,20.3-65.38,48.5-96.75,71.15-54.17,39.12-108.89,77.46-162.59,117.24-19.19,8.11-40.62,8.83-61.15,6.81-17.82-1.75-58.62-9.91-58.3-33.47.19-14.04,15.41-19.47,22.77-29.21,6.16-8.14,12.91-27.6,22.81-30.93,8.24-2.77,23.57-2.89,33.22-4.76,64.19-12.44,123.5-58.93,166.46-106.38,31.22-34.48,57.28-97.58,106.61-108.24,20.24-4.38,44.55-1.88,65.31-.65,63.72,3.79,127.05,10.11,190.91,12.02,140.47,4.19,193.66-129.98,281.93-213.84,4.44-4.21,17.03-13.11,19.57-17.4,3.13-5.27-5.18-9.38-9.37-11.72-70.09-39.09-151.12-8.9-221.6,10.68-130.04,36.12-261.61,56.54-397.44,51.48-57.24-2.14-119.73-6.8-175.44-19.49-78.64-17.91-158.9-52.36-238.54-63.33-24.99-3.44-27.84,4.78-48.57,11.13-13.72,4.21-37.74,6.35-51,.45C22.78,88.65,1.59,71.01.32,60.62-4.27,22.99,41.28,2.05,72.78.11c18.8-1.15,67.19,6.69,84.07,14.98,1.39.68,2.52,1.21,3.43,2.55-2.02,1.11-5.7,6.08-7.19,6.76-8.95,4.06-19.8-4.05-28-6.54-10.58-3.22-16.06-3-26.55,0-15.07,4.31-38.61,12.39-44.69,28.27-1.83,4.79-3.23,22.62,1.47,25.46,3.65,2.21,25.89-3.3,25.81-7.8-.08-4.54-4.36-8.28-2.59-15.97,2.76-12.05,28.57-14.12,38.21-12.63,9.19,1.42,7.13,7.67,4.27,14.13-1.19,2.67-7.77,10.34-4.74,12.32,8.76,5.73,36.75-19.51,50.44-9.44,4.23,3.11-1.46,15.61,1.6,20.89,16.35-6.5,35.43-10.3,52.51-4.03,17.72,6.51,1.01,13.79-.37,18.72-.39,1.38.02,4.29,1.34,4.29h18.99c.99,0,7.54-2.49,8.57-3.42,7.17-6.55-8.46-20.73-12.29-26.82-3.73-5.93-7.35-12.35-6.77-19.7,5.48.67,44.19,11.98,45.55,13.94,2.31,3.33-5.55,21.63-5.59,26.5-.07,8.14,7.55,8.17,12.91,11.11,9.19,5.04,20.95,14.81,32.13,11.9,13.91-3.62,13.36-19.83,31.93-12.98,15.71,5.79,29.7,37.23,42.72,40.21,16.22,3.72,30.35-21.59,43.75-20.81,4.6.27,11.63,3.98,15.46,6.61,6.29,4.31,18.12,20.43,23.02,21.98,10.78,3.42,22.37-19.26,33.22-21.86,22.13-5.29,34.08,25.8,51.56,33.01,14.77,6.09,32.08,4.22,45.53-3.93,10.94-6.62,26.49-26.04,38.34-26.4,12.72-.39,18.62,11.43,29.82,10.67,8.68-.58,14.13-13.66,20.06-14.01,1.48-.09,7.8.88,9.69,1.22,26.02,4.76,48.24,35.32,77.27,20.75,17.54-8.81,39.65-35.13,57.96-36.98,5.01-.51,18.71,1.24,21.92-1.08,3.51-2.54,3.21-21.69,9.01-24.96,7.13-4.01,34.42,2.23,38.49,11.43-3.87,8.39-35.51,14.1-37.79,16.73-2.13,2.46,2,7.55,4.79,8.41,8.04,2.47,30.15-5.09,37.75-9.33,3.71-2.07,15.23-10.75,16.82-14.23,2.05-4.48-9.3-15.06-11.3-19.67-3.55-8.16-1.24-19-14.93-9.47-3.13,2.18-3.66,5.08-6.66,6.13-2.43-1.94-11.92-11.89-11.47-14.27,1.48-7.79,38.4-12.31,45.82-11.63,1.9,1.68-9.36,7.75-7.85,13.26,1.91,6.95,20.3,4.61,17.85,16.71,9.71-1.14,19.65-2.64,29.47-1.99,8.56.57,19.99,5.1,27.53-.49,5.58-4.14,16.79-19.55,22.54-20.45,1.6-.25,6.62-.64,6,1.98-1.81,7.68-7.69,15.29-5.61,24.27.62,2.67,12.59,2.3,14.83-2.04,5.36-10.42-1.68-38.83,5.65-44.3,4.12-3.08,16.89-.54,21.26,1.84,6.07,3.32,5.34,8.98,9.33,11.66,3.23,2.17,23.07,5.53,26.33,4.4,4.29-1.49-.55-14.64,8.41-17.57,3.24-1.06,20.36-2.45,21.78-.35,1.69,2.5-1.14,10.97,7.14,12.84,8.8,1.99,12-6.97,19.72-6.82,14.19.28,13.99,7.99,22.06,14.01,9.97,7.44,12.57-.21,20.98-.99,7.52-.7,19.86,3.75,26.38,7.6,4.64,2.74,10.84,10.13,15.84,11.15,9.71,1.98,36.57-3.87,41.52,7.48,1.58,3.61.5,8.24-3.7,8.78-8.77,1.13-16.32-4.92-24.48-1.47l-37.62,31.32c-3.03,3.96,1.93,10.87,3.09,16.02,1.06,4.7,2.78,11.35-1.27,15.04-4.71,4.29-5.77.09-9-.8-5.84-1.6-22.75,5.42-29.31,7.2-3.25,4.66-5.01,14.24.09,18.02,1.72,1.28,6.3,2.05,6.78,2.73.29.41,2.75,8.46,2.96,9.51.29,1.52.71,6.1.07,7.1-.19.3-5.77,3-6.37,3.12-6.2,1.18-13.84-2.08-19.43,3.03-3.35-3.47-3.07-14.36-9.36-13.77-3.39.32-17.32,17.8-19.5,21.42-2.91,4.83-8.65,18.37-8.11,23.71.27,2.69,2.12,4.81,2.01,8.07-.1,2.97-3.21,8.19-2.87,9.9.59,2.99,12.27,6.18,15.33,12.6,2.67,5.61,4.05,20.22.56,25.31-2.2,3.22-14.05-1.19-15.99-3.9-1.78-2.49-.92-16.75-.08-20.39-7.16-.42-12.72,3.05-20.04,1.41-2.78,16.4,4.56,33.52,2.05,50.53-10.44,2.35-13.03-6.48-20.39-10.94-8.73,8.4-10.21,28-4.07,37.87.82,1.31,6.37,8.09,7.45,6.51,1.98-5.71-.92-26.23,10.33-22.29,1.97.69,4.53,8.22,5.41,10.59,1.16,3.13,5.25,15.32,5.25,17.73v18.48c-4.61-.61-13.55-10.8-18.02-9.59-9.04,2.45-1.42,25.03-16.47,24.65-1.55-.04-12.67-2.47-13.06-3.01-1.19-1.65.23-11.31-2.2-15.78-3.27-6-13.23-2.18-13.23,1.23v15.98c0,.36-1.11,1.17-1.66,1.34-5.87,1.9-26.38-6.6-34.09-7.58-4.48-.57-10.23-1.59-13.09,2.39-1.42,1.99-8.55,15.05-9.55,17.43-3.06,7.33,1.67,14.07-9.88,11.66-2.73-.57-8.2-3.92-9.59-6.39-1.33-2.35-2.05-7.79-4.82-9.42-3.32-1.94-14.93-1.02-19.55-2.19-5.03-1.27-8.42-10.99-14.29-10.69-4.55.23-5.76,12.21-5.45,15.92-3.15-.65-6.78-.76-9.81-1.68-3.39-1.03-12.39-6.55-14.63-6.36-1.81.15-4.94,4.16-7.89,5.3-8.88,3.44-16.48-1.84-24.21-2.34-3.19-.21-2.38,2.13-2.92,2.09-1.78-.12-4.6-5.99-6.51-4-2.26,2.36,2.84,3.79,2.99,4.01.5.73-3.63,2.39-.51,3.95,4.06-3.37,4.76-.22,7.48.55,19.6,5.53,38.75,14.37,59.55,13.5,6.39-.27,15.71-3.21,21.74-1.83,4.66,1.07,13.09,12.17,17.18,15.8,1.01.9,6.76,5.7,7.22,5.82,1.07.27,6.66-1.48,7.1-2.06,1.15-1.56,0-8.77,3.48-8.61.86.04,14.98,3.96,15.68,4.36,5.24,3.03.14,11.66,6.99,13.98,3.74,1.27,7.84,2.3,8.82-2.26,1.23-5.74,3.51-30.4,8.2-32.75,7.19-3.6,11.75,5.25,14.82,10.19,3.95,6.36,3.59,13.3,12.59,12.28,16.52-1.87,8.75-28.59,23.15-30.88,10.63-1.69,18.72.88,22.61,11.24,2.76,7.34,1.07,12.15,1.81,19.18s3.42,4.01,7.93,6.05c10.52,4.76,7.69,14.19,24.28,9.14,3.57-1.09,17.09-9.6,18.22-12.65,1.35-3.66-4.21-12.91-4.25-17.52-.03-3.16,2.51-14.94,6.29-15.25,6.43-.53,18.36,25.7,21.51,27.26,3.37,1.67,7.44-3.03,12.36-1.39,3.79,1.26-.65,11.25,3.64,13.42,2.03,1.02,3.82-2.33,6.54-2.54,11.39-.88,3.08,16.59,9.02,20.87,4.44,3.2,10.91-.68,12.93-4.95,1.24-2.62-1.18-10.02-.44-14.41,1.13-6.72,8.1-5.82,13.43-5.53,7.27.39,15.71,2.66,23.11,2.89,2.08.06,8.48-2.61,9.26.67.83,3.49-4.14,12.05-.56,17.1,3.51,4.95,10.35,3.21,13.26,5.22,3.68,2.54.73,15.62,11.78,11.92,5.89-1.97-2.6-13.76-3.17-16.58-1.04-5.16,5.96-10.34,10.13-12.42,9-4.49,20.54-6.18,29.66-10.8.43,9.71-2.27,20.08-6.8,28.65-1.12,2.11-6.98,9.37-7.04,9.98-.27,3.01,3.41,3.55,5.86,2.88,8.38-2.3,10.53-13.37,14.74-19.28,8.14-11.44,14.47,7.02,26.23.73.96-1.07-5.46-17.4-6.8-19.67-1.67-2.83-4.29-4.33-6.03-6.96-2.95-4.44-9.1-16.67.28-16.37,7.44.24,9.07,6.45,13.52,10.56,5.17,4.77,16.86,12.51,24.03,8.98,3.6-1.77,3.75-14.01,5.04-17.94,3.72-11.4,9.78-3.14,14.31-6.46,2.23-1.64,7.73-21.96,7.71-25.56-.03-5.42-4.16-11.25-4.86-16.24-1.23-8.7,6.21-25.76,13.83-30.65,10.36-6.66,7.85,12.03,18.2,10.27,3.19-.54,15.86-9.62,17.7-12.59,1.19-1.93,2.32-4.6,2.99-6.78,3.38-10.97.17-14.19,10.01-22.99,1.96-1.75,4.4-.6,4.54-3.88.19-4.33-.47-8.99-5.21-10.32-1.87-.52-4.03.16-5.65-.34s-6.05-15.96-6.37-18.6c-1.25-10.21.14-13.39,11.25-12.27,2.51.25,13.58,5.98,14.48,5.03-.86-5,.21-17.25-1.16-21.31-1.29-3.82-9.44-2.27-9.84-2.66-1.25-1.26.21-5.64,2.95-6.54,15.09-4.96,27.11,12.25,32.21,23.85,2.3,5.24,7.97,25.33,11.24,27.72,5.79,4.22,12.49-4.18,17.1-4.15,6.97.05,8.6,15.87,7.03,21.11-1.83,6.09-12.91,19.04-18.6,22.37-1.79,1.05-4.77,1.38-4.94,1.56-.29.31.82,7.94.95,8.37.28.95,1.74.42,2.65.99.45.28.5,1.65.97,1.67,2.4.11,8.75-7.52,11.95-2.06,2.1,3.59.54,20.11,1.92,22.05.37.52,10.46,4.69,11.94,3.18,3.3.5,3.64,14.17,5.57,18.28.35.74,3.78,6.19,4.07,6.43.93.8,5.05-3.93,6.42-4.05,2.77-3.33,7.14-14.66,11.28-15.78,4.76-1.28,19.46,6.2,21.54,11.13,5.75,13.65-29.23,9.68-29.33,20.15-.06,6.45,3.06,3.68,6.36,4.73,2.02.65,3.27,2.4,5.26,2.76,5.65,1.05,12.62-2.68,17.37-5.54,3.34-2.01,9.08-7.97,11.09-8.92,6.96-3.28,11.92,11.77,14.15,15.82,1.63,2.96,11.13,13.3,5.59,15.95-4.86,2.33-18.32,2.15-20.76,4.2-3.18,2.67,1.46,7.87,4.61,8.22,1.35.15,9.91-.64,11.64-.96,4.73-.86,12.56-5.58,16.33-5.72,2.47-.09,8.09,3.16,12.18,3.68,14.31,1.82,19.98-4.28,31.83-5.59,23.33-2.57,14.03,11.35,17.61,27.11,1.16,5.11,5.89,14.5,12.27,13.76.88-.1,2.49-.89,2.49-1.53v-22.98c0-3.14,6.32-7.54,9.5-7.55,6.11-.02,28.66,21.44,28.47,27.41-.09,2.89-3.03,7.51-5.93,8.22-1.65.4-2.23-2.1-3.66-2.39-.76-.15-10.2,1.08-10.97,1.68-2.72,2.1-1.12,6.24,1.09,8.07l3.99-2.99-.49,3c5.04,2.28,6.32-3.84,8.23-4.72,1.53-.71,3.61.05,5.73-.79,2.96-1.17,9.23-7,13.33-8.65,6.75-2.72,16.54-3.57,23.37-.99,7.33,2.77,11.55,10.69,19.31,11.18,0-8.26,1.15-16.97,5.6-24.05,9.4,4.14,18.81,4.89,28.9,6.06,4.91.57,10.38-.74,15.22,1.77,7.29,3.79,2.99,27.42,13.83,29.14,5.08.81,10.99.22,16.82,1.17,5.43.88,13.15,6.65,14.54-3.67,1.39-10.29-2.15-6.98-7.34-7.43-6.64-.58-15.54-13.98-15.62-20.53-.09-7.38,3.48-13.29,11.28-12.19,7.11,1,25.42,9.37,30.13,14.85,8.24,9.59-6.4,8.3-7.46,17.3,11.06,8.85,15.7,19.67,32.09,14.1,12.71-4.32,4.67-12.01,1.77-18.82-3.14-7.4-5.54-20.18,1.67-25.68,8.98-6.85,17.82,14.29,18.43,21.62.75,8.99-5.54,10.4-5.98,16.87-.25,3.65,4.45,21.95,3.06,23.46-1.13.45-3.81-1.19-3.98-1-.3.32-2.1,7.42-2.11,8.49,0,2.05,5.86,14.07,7.05,15.07,1.06.88,4.82-1.66,7.48-1.61,3.38.06,8.94,1.36,11.49,3.6,5.58,4.89,2.62,11.58,6.06,16.92,2.59,4.02,11.7,9.55,16.45,9.52,5.57-.03,4.9-2.58,7.8-4.26,7.59-4.4,10.87,3.37,17.74,4.22-4.95-9.64,4.09-32.58,14.59-33.94,16.59-2.15,15.13,29.83,20.2,38.64,3.13,5.44,4.92,2.73,7.24,4.67,3.82,3.18,2.63,9.85,9.94,12.22,9.73,3.15,6.27-13.58,7.45-18.66,1.01-4.36,9.27-15.06,13.95-14.9,5.54.19,11.5,4.48,11.7,10.47.46,13.99-21.29,25.19-21.05,27.98.22,2.58,9.32.73,11.2.23,12.24-3.24,23.62-15.93,28.93-27.03,3.9-8.15,8.5-31.76,18.57-34.4,8.76-2.3,34.17,12.95,30.22,18.7-.64.93-19.57,2.8-22.48,3.02-4.41.33-24.72-2.6-19,7.02,1.16,1.95,12.96,2.79,16.02,2.97,7.17.41,32.62.47,37.08-4.89,5.62-6.76.46-21.3.32-28.58-.05-2.56,1.18-4.99,1.06-6.94-.21-3.25-3.79-4.07-2.8-8.8.37-1.79,11.4-17.09,13.41-19.62,2.98-3.75,9.31-13.07,14.42-11.67,3.67,1.01,12.44,10.92,11.83,14.85-1.13,7.34-20.93,14.3-23.91,19.13-1.93,3.14-.82,6.11,1.5,8.63,6.54,1.05,12.14,5.58,18.95,4.86,10.7-1.12,12.42-13.83,16.29-14.83,2.33-.61,7.71,6.23,12.32,3.91.41-10.77-13.03-16.72-4.99-27.46,6.23-8.33,27.64-11.38,30.06-15.16,1.37-2.14.84-5.86.91-8.32-3.55,4.47-11.84-.45-13.48-4.01-3.65-7.91,5.85-24.09,13.49-27.46,4.86-2.14,13.34-1.07,11.06-8.88-.3-1.02-5.56.19-5.11-8.06.32-5.74,6.14-11.73,6.12-16.04-.02-5.6-4.74-3.24-7.1-3.93-2.3-.66-6.68-4.39-9.28-5.73-6.03-3.1-11.26-3.5-15.69-10.29-2.08-3.18-3.74-16.88-2.32-20.25,2.26-5.38,21.31-8.21,26.61-7.02,7.93,1.78,6.61,19.75,17.74,16.33,7.23-2.22,6.32-7.95,9.1-12.91.44-.78,5.43-6.94,5.84-7.14,6.46-3.2,21.46,7.96,17.32-8.3-.94-3.7-9.21-15.23-7.31-17.16,2.02-2.06,20.66,3.48,23.69,6.3,3.59,3.34,5.3,15.61,7.97,16.51,8.33,2.83,21.97-5.19,31.84,2.15,11.91,8.87,7.64,34.29,21.73,45.22,10.25,7.95,33.79.73,42.6,10.38,4.19,4.59,8.76,17.12,5.22,22.66-4.55,7.13-16.8-6.23-24.41-4.38-2.19.53-2.72,11.12-2.53,13.42,2.26,28.37,18.07,38.16,40.2,50.73,16.61,9.43-3.34,19.86.12,30.86,1.65,5.26,7.46,3.97,11.54,5.45,2.81,1.02,6.06,3.65,8.95,4.06.98.14,5.75-.44,5.97-.66,1.4-1.46-1-13.31,7.15-19.33,9.65-7.12,17.16,4.76,25.02,9.84,13.79,8.91,17.27,4.55,31.88.58.95,3.01,6.58,21.47,8.49,21.76,2.24-.85,6.17-2.31,7.43-4.38,3.14-5.15-1.63-14.25,9.85-9.63,1,.4,6.25,5.31,6.25,5.74v15.48c2.31-.37,7.34.78,9.06-.44.64-.45,2.9-8.59,2.87-9.94-.19-8.81-9.23-17.6-12.41-25.59-6.3-4.22-7.5,2.2-10.31,3.96-1.38.87-11.14,4.28-12.64,4.07-3.32-.47-10.97-8.93-11.52-12.59-1.15-7.75,14.03-26.22,21.52-27.36,8.93-1.36,11.62,10.51,16.88,10,5.93-.57,8.11-13.75,5.44-18.42-5.48-9.62-23.19-3.47-31.18-5.81-3.45-1.01-11.56-14.14-6.08-15.7,3.58-1.01,18.51,4.16,25.64,2.69,15.35-3.18,12.05-33.96,3.2-35.72-11.66-2.31-5.67,13.17-8.48,19.97-.76.68-17.4-8.45-17.82-9.66-3.08-8.89,10.67-18.06,10.64-25.81-.04-12.07-16.77-21.3-18.59-29.17-2.16-9.31,5.9-21.44,3.24-29.22-2.85-8.34-16.3-7.88-23.44-9.03-.42,5.89,5.01,9.22,6.71,14.76,3.46,11.28,1.44,23.24-13.14,18.13-7.85-2.76-19.08-20.15-17.56-28.36,1.25-6.77,19.75-9.19,15.49-18.5-.54-1.18-5.56-5.83-7.05-6.04-2.93-.41-12.88,3.98-17.2,4.77-12.46,2.26-21.36,2.5-21.32-13.23s13.99-12.58,25.07-10.49c.18-4.32-3.73-7.08-5.82-10.66-1.63-2.8-1.79-6.21-4.25-8.74-5.64-5.8-26.11-10.06-27.7-17.27-1.07-4.83-.19-12.26-1.31-17.67-2.47-11.85-15.1-14.84-23.81-20.16-12.13-7.42-25.9-18.08-27.07-33.38,2.06-.2,4.02.03,6.05.45,13.88,2.86,29.17,9.55,43.29,12.68,13.02,7.25,29.55,40.75,41.9,45.04,9.27,3.21,6.14-6.27,12.29-7.23,5.78-.9,21.63,6.63,22.46,12.55.64,4.54-9.15,23.68,2.25,21.23,6.58-1.41,6.32-12.92,12.36-13.54,9.33-.96,21.27,16.68,35.6,13.46,11.63-2.61-5.59-35.03,13.66-22.12,12.86,8.63,11.53,16.91,18.02,28.87,2.43,4.47,3.97,1.86,3.96-2.08,0-4.76-4.11-17.8,2.58-18.46,10.15-1.01,26.04,19.9,33.98,26.07,3.07,6.64-8.68,15,5.13,16.85,9.99,1.34,18.08-1.31,23.59,9.4,3.49,6.79,2.71,17.65,14.12,10.53,1.62-1.01,10.66-9.41,10.66-10.32v-20.98c0-3.08,19.25-.88,22.24-.25,5.19,1.11,13.31,3.53,12.75,10.12-.62,7.34-22.55,10.55-22.92,17.03-.06,1.08,1.38,6.01,2.02,6.96,3.05,4.57,5.19-1.75,8.42-2.37,9.36-1.81,17.85,3.94,21.87,12.07,8.02,16.23-15.35,15.84-12.31,25.24,1.07,3.32,16.49,1.7,19.87,2.68-1.06,10.34-3.89,24.61,9.27,28.29,7.79,2.18,14.49-19.18,13.7-20.25-.16-.21-2.77-.71-3.88-1.62-6.01-4.93-6.48-7.08-5.91-14.82.21-2.86,3.78-21.9,4.78-23.19.97-1.25,6.89-3.09,8.67-3.32,6.49-.85,26.05-.15,25.51,9.4-.58,10.21-19.25,1.18-20.03,10.1-.86,9.81,10.93,11.72,11.91,16.9,1.83,9.69-2.55,20.57-2.96,29.96-.12,2.8-.77,7.24,2.69,8.27,8.05,2.4,8.07-4.05,10.35-9.74,4.4-3,12.39,15.75,14.51,18.86,25.02,36.75,69.79,22.3,106.07,38.86,12.02,5.48,21.89,16.64,36.71,10.06,8-3.55,4.7-8.13-.49-12.3-13.39-10.76-34.54-14.14-50.18-19.79-6.51-2.35-17.13-10.46-23.74-9.37-5.77.95-10.5,8.01-16.73,8.36-9,.51-18.69-12.31-21.62-19.86-2.42-6.24-1.97-13.2-7.57-18.41-8.12-7.54-15.95,5.28-18.58-3.41-2.54-8.42,4.13-15.27,5.31-22.77.72-4.59-1.88-14.25,3.63-10.15,4.29,3.19,8.41,8.85,12.59,12.4,3.85,3.26,16.01,13.81,16.01,2.98v-15.98c0-.22.94-1.51,2-1.01,5.8,2.74,8.87,38.13,21.04,45.91,6.56,4.2,8.69-3.34,12-1.02,2.2,1.55,2.19,13.2,10.53,14.55,6.85,1.11,9.95-7.14,14.69-5.84,5.53,1.52,14.67,16.06,20.47,17.6,7.12,1.89,12.73-3.1,12.26-10.22-.8-12.22-8.55-24.62-5.98-37.96.5-2.58,5.34-7.48,5.94-12.09.87-6.6-3.8-13.77-.69-20.62,2.25-4.95,8.48-5.08,9.49-13.54,1.19-9.99-9.57-38.78-18.23-44.2-2.93-1.83-8.47-2.52-11.76-4.23-10.25-5.33-13.86-19.95-18.59-29.38-.85-1.7-6.68-9.62-6.17-10.3,7.51-1.1,16.84-6.5,24.37-5.97,2.7.19,6.9,2.32,10.21,2.86,2.21.36,5.23-.38,6.78.04.75.2.94,2.82,2.03,4.13,2.39,2.85,8.58,7.47,12.58,6.93-.43-5.96.59-12.62,0-18.48ZM2761.53,147.99c-2.75,1.89-9.96-14.24-16.96-7.47-2.66,2.58-1.7,12.98-.08,15.77.79,1.36,11.78,6.39,13.63,6.65,7.18,1.01,4.45-2.48,5.59-6.29,1.08-3.62,3.43.13,5.14.13,4.39,0,9.85-5.03,10.46-9.55,1.67-12.49-15.7-9.76-17.79.75ZM2793.3,169.21c-1.81-1.81-9.41-1.39-12.13-1.11-5.07.52-17.73,3.93-18.58,9.43-1.97,12.86,15.16,10.33,22.63,6.6,4.34-2.16,13.12-9.89,8.08-14.93ZM3040.17,220.07c-5.15,1.45-3.19,19.5,2.75,17.82,2.67-.76,5.41-20.12-2.75-17.82ZM2964.48,232.92c2.82-7.97-.27-10.87-8.51-10.06-9.27.9-3.17,18.41,3.04,21.04,1.62.69,1.65-.91,1.97-1.97.91-2.96,1.04-6.89,1.52-10.01l1.98,1.01ZM3068.45,364.77l-31.11-105.29-1.46-1.43c-17.58,7.3-25.79-12.75-41.35-15.12-5.69,25.79,10.4,50.3,6.69,76.13-.83,5.78-5.07,9.6-5.66,14.34-.71,5.75,1.68,13.17.93,19.89-.41,3.61-2.75,7.08-2.97,10.1-.42,5.84,2.16,18.64,2,26.9-.17,9.02-5.86,31.39,8.58,32.38,12.87.89,35.57-16.26,38.14-28.65,1.85-8.9-3.79-12.74-6.07-20.46-1.99-6.76-2.27-13-4.94-20.04-2.8-7.41-7.94-13.4-10.75-20.71,11.11.31,18.27,27.17,22.98,29.47,4.16,2.03,19.48-.09,24.99,2.49ZM592.83,414.37c6.87-6.72,6.78-11.39,10.8-18.68,5-9.1,14.77-2.6,23.09-6.89,1.56-4.46.89-10.25,2.48-14.51,1.16-3.13,4.01-3.72,4.04-6.98.04-3.85-4.77-14.06-8.33-15.81-3.76-1.85-12.17,2.77-12.77,6.84-.92,6.25,13.08,10.58,7.72,17.13-.84,1.02-12.14,8.28-13.19,8.24-3.79-.13-20.21-19.98-20.52-3.49-.12,6.3,4.93,12.06,1.48,17.47-7.73,12.12-19.48,10.58-30.01,14.96-7.86,3.27,2.8,14,3.37,20.85.31,3.73-2.43,5.11-1.29,8.21,13.36.52,10.81-14.95,19.53-19.46,1.51-.78,3.41-.16,4.65-.87,1.99-1.13,7.23-5.33,8.95-7.01ZM719.14,376.75c-4.74-18.01-10.63-10.77-23.51-10.9-11.9-.13-7.25-2.82-11.03-9.02-7.32-12.01-30.7-.41-24.94,9.94.26.46,4.82,3.61,5.79,4.19,7.61,4.54,21.16,5.41,30.14,5.84,7.8.38,15.73-.35,23.53-.05ZM2563.9,542.31c-5.08-4.75,5.18-16.92,5.32-22.64.03-1.02-.21-1.77-1.22-2.01-7.57-1.83-14.19,7.88-26.09,3.15-11.41-4.54-18.4-12.79-32.79-10.19-7.63,1.38-.67,11.39-.57,13.47.08,1.72-1.61,4.02-1.86,6.11-1.06,8.85,4.13,7.23,7.14,12.68,4.53,8.22,8.41,35.81,22.2,33.64,8.39-1.32,15.88-16.08,21.09-15.56.54.05,6.45,4.01,6.92,4.66,4.48,6.15-1.19,16.36,10.1,14.99,2.28-.28,3.63-2.21,5.48-1.71,6.08,1.67,11.28,13.48,13.95,14.23,5.38,1.5,10.51-7.72,7.8-12.38-2.58-4.44-17.79-5.91-22.5-7.97-4.36-1.91-7.12-10.34-4.76-14.21,2.08-3.41,17.76-9.98,14.06-15.06-6.71-3.16-18.35,4.34-24.28-1.2ZM2690.95,590.14c-2.44-2.36-6.39-6.52-6.46-10.08-.1-4.93,10.55-12.55,1.63-17.55-11.84-6.63-15.9,10.39-16.55,19.03-5.3-2.55-44.24-2.26-45.04.61-1.54,5.53,7.03,30.15,11.68,33.26,2.98,1.99,5.48-.66,8.36,1.09,4.18-8.3-5.89-15.74-12.97-17.99,4.81-9.94,15.71-9.93,25.25-7.73,1.9.44,17,5.66,17.71,6.27,2.88,2.48,1.99,10.87,4.56,15.42,2.34,4.13,11.94,14.25,17,13.97,6.66-.37-1.25-14.96,4.96-19.91,2.7-2.15,8.72-.39,11.47-3.51-7.38-4.78-14.96-6.49-21.59-12.88ZM2713.57,603.51c8.79,2.24,19.6,4.42,26.52,10.96,2.47,2.33,4.9,7.41,7.39,9.6,2.5,2.2,9.46,6.63,11.58,2.43,2.42-4.79-2.16-4.44-4.56-6.45-2.77-2.34-3.07-4.75-4.57-6.42-6.23-6.96-13.46-15.46-23.79-14.01-2.94.41-4.27,2.05-6.34,2.65s-5.74-.68-6.23,1.25ZM2983.92,661.01c6.9,3.19,19.25,8.82,26.92,6.31,4.94-1.62-.33-12.23-6.71-11.58-1.23.13-2.58,1.54-4.2,1.68-2.47.21-7.59.49-9.74-.15-2.74-.82-8.94-8.37-12.8-10.19-2.59-1.22-13.96-4.5-14.82-1.02.32,1.62.78,3.69,1.95,4.89.74.76,12.07,6.61,14.26,7.74,1.36.7,3.65,1.64,5.14,2.32ZM3051.21,655.7c-12.09,1.7-19.84,11.54-4.76,16.27,12.35,3.87,44.72,7.44,56.24,2.22,4.49-2.04,5.02-4.35-.7-4.78-11.03-.84-23.97,1.39-34.83-1.16-2.29-.54-6.31-4.39-7.72-6.27-3.33-4.44-.42-7.37-8.24-6.27ZM3127.45,690.43c-.99-1,3.94-7.95,1.51-12-1.33-2.21-4.32-1.07-5.52-1.65-2.19-1.06-12.06-8.19-13.98-6.32-.9,2.85,2.23,3.87,2.79,5.69,2.43,7.81-3.89,7.64-5.13,10.52-3.05,7.09,4.43,9.28,8.85,12.78,2.59,2.05,3.89,5.27,8.45,6.51,9.22,2.5,20.71-16.85,16.51-16.54-4.57,2.08-8.61-.86-13.48,1.01ZM3195.7,704.13c1.03.83,7.94,2.25,9.32,2.23,4.13-.08,1.95-6.34.42-8.46-3.08-4.27-21.13-9.12-26.55-9.49-5.45-.37-14.11,1.54-18.97,1.12-3.05-.27-6.46-4.96-6.33,1.39.12,6.31,4.07,5.16,5.91,7.19,4.18,4.59-.91,20.21,11.88,8.75,3.82-3.42,7.98-13,14.37-11.43.69.17.51,1.57,1.42,1.93,1.03.41,2.78-.15,4.26.55,1.95.91,2.96,5.16,4.27,6.22ZM3241.1,704.73c-3.23-2.4-10.79-4.45-11.39,1.31-.09.85.67,8.86.9,9.67.16.55,5.92,8.28,6.77,9.22,1.44,1.57,7.87,7.12,9.55,7.44,2.65.51,10,.28,12.92-.04,4.27-.46,8.87-5,13.41.69,4.43,5.55,3.4,15.22,6.08,17.89,6.52,6.51,15.84-8.59,8.6-16.58-9.49-10.47-30.97-3.69-38.56-14.41-3.29-4.64-1.68-10.28-8.28-15.2Z"/><path d="M2889.51,595.54c11.75-1.12,23.64-3.54,35.45-4.05,70.29-3.03,154.89,15.6,224.25,28.74,26.19,4.96,49.59,8.04,75.16,16.8,9.88,3.38,54.06,22.23,57.51,30.44,1.97,4.7.27,22.55-4.49,25.46-4.13,2.52-22.35-5.58-27.76-7.22-88.15-26.63-177.47-53.57-268.12-70.73-28.68-5.43-61.18-7.99-88.63-17.32-1.31-.45-3.05-.29-3.36-2.12Z"/><path d="M678.2,321.77c-1.92-2.26,7.29-14.33,9.3-16.58,36.16-40.38,110.3-3.84,154.39,5.35,10.94,2.28,23.78,4.6,34.82,6.16,14.05,1.98,32.62.46,45.59,6.38,10.24,4.68-4,10.9-9.84,11.61-41.21,5.02-95.76-4.92-137.86-7.87-24.79-1.74-49.61-.58-74.01-1.97-2.79-.16-21.67-2.22-22.4-3.09Z"/><path d="M478.83,452.29c-36.99,36.87-83.25,73.07-137.2,79.19-2.08.24-10.05,1.09-11.39.73-3.58-.98-8.84-9.17-7.83-12.87.65-2.39,12.41-11.28,15.15-12.9,3.08-1.82,16.22-6.45,16.78-7.2,2.05-2.74,1.72-15.07,5.04-20.93,12.77-22.54,44.68-14.8,65.37-16.59,13.23-1.15,36.04-20.98,48.78-28.18,7.83-4.43,19.76-12.54,27.64-5.33.12,1.64-19.52,21.26-22.35,24.09Z"/><path d="M2930.24,250.65c-.72.61-3.59,1.06-5.77,2.72-3.35,2.53-8.76,9.86-8.9,14.08-.21,6.22-.36,9.66-.94,16.03-.97,10.57,2.96,18.11,9.44,26.28,3.71,4.67,11.78,7.39,13.02,13.01.52,2.37-.39,13.51-.83,16.29-.24,1.52-1.87,7.23-2.47,8.5-1.51,3.21-9.64-.37-11.02-2.03-2.94-3.54,2.49-9.44-3.21-14.28-4.88-4.15-19.17-1.2-17.02-12.87.44-2.38,2.55-3.5,2.99-7.02.67-5.36-.16-15.64-5.03-19-2.12-1.46-4.69-1.15-6.54-2.46-5.78-4.12-2.46-10.84.36-15.72,3.7-6.42,13.78-11.49,4.52-18.12-5.93-4.25-16.5-3.98-16.96-13.81-.06-1.3,1.34-9.9,1.74-10.23,2.18-1.83,14.48,2.85,16.46,4.81,3.29,3.25.18,11.63,9.4,14.64,5.06,1.65,5.36-7.51,9.02-11.07,7.51-7.28,16.56,6.16,11.74,10.24Z"/><path d="M2534.84,477.43c-.86-.62-1.05-4.22-3.22-5.27-10.59-5.11-17.13,13.49-28.01,10.04-4.47-10.43-14.28-19.1-19.17-28.84-2.8-5.57-4.87-10.77,2.45-13.93,9.27-4,24.62,14.31,33.2,15.31,9.78,1.13,11.32-10.4,24.79-7.82,4.44.85,17.99,8.39,19.33,12.73,1.16,3.75-4.13,11.53-7.13,13.98-4.23,3.44-17.84,6.99-22.24,3.8Z"/><path d="M2823.77,261.12c-1.79,1.52-1.49,9.47-.82,11.85.35,1.24,5.77,6.53,6.97,8.99,8.58,17.68-18.47,8.82-25.85,8.86-1.94.01-8.44,1.1-10.38,1.69-6.87,2.09-11.83,10.79-18.04-.33-2.94-5.26,8.95-16.64,13.53-19.17,2.12-1.17,8.95-2.28,9.34-3.65.79-2.77-5.9-4.9-3.99-9.48,1.01-1.01,15.38,3.09,17.57.06,2.58-3.56-7.08-12.91.44-18.52,2.46-1.83,15.33-6.05,17.46-3.5,1.18,1.41,8.79,17.22,8.46,18.34-.87,2.88-12.38,2.89-14.7,4.85Z"/><path d="M1602.54,214.27c2.39,2.78,4.59,8.35,4.31,12.03-.23,2.99-4.72,16.66-8.45,16.61-2.5-.03-22.99-15.23-27.2-17.81-4.66-2.86-11.5-3.35-13.55-9.47-5.1-15.24,24.62-14.51,33.3-10.27,2.1,1.03,10.12,7.19,11.59,8.9Z"/><path d="M2846.51,234.9c-1.7,1.61-1.68-.36-2-1.46-1.78-6.01-2.5-12.63-10.47-12.61-4.44.01-19.52,4.16-19.58-3.38-.09-10.92,16.79-6.31,22.43-6.57,6.06-.28,13.9-4.02,12.46-11.2-1.19-5.92-10.96-3.73-5.69-14.1,5.42-10.66,12.3,1.36,18.98,4.75,5.89,2.99,22.93,6.58,25.96,11.05,2.54,3.75-2.16,8.8-6.55,8.62-5.71-.24-24.81-14.9-28.07-4.13-.75,2.48-.13,4.96-.68,7.31-.69,2.94-5.7,20.69-6.78,21.71Z"/><path d="M1360.72,57.35c11.83-1.44,25.17,4.95,36.24,8.22,2.8,2.06.17,14.13-3.71,15.31-6.48,1.97-22.53-4.09-29.77-3.84-5.92.2-10.33,5.12-17.02,5.12-5.97,0-16.04-3.74-10.07-11.15,3.74-4.65,18.28-12.91,24.34-13.65Z"/><path d="M1872.82,280.86c-3.27-13.38-26.53-25.11-25.95-40.36.43-11.14,23.97-10.54,26.83-5.99,1.06,1.68.88,3.96,2.07,5.93,2.07,3.43,9.88,7.02,10.82,10.16,1.84,6.15-2.91,8.78-5.18,13.39-2.68,5.45-4.3,12.64-8.6,16.87Z"/><path d="M290.93,59.23c2.62-.88,28.68,5.08,33.33,6.34,4.05,1.1,12.63,3.36,15.99,5,1.12.54,3.38,1.3,2.99,2.99-7.43,3.72-14.52,10.38-22.73,12.26-7.52,1.73-32.91,3.08-34.3-7.2-.5-3.7.72-18.05,4.72-19.39Z"/><path d="M1214.66,24.29c1.71-.59,5.77-.28,7.82-.15,6.88.43,42.43,6.67,45.02,11.97,1.64,3.36-2.81,17.34-7.07,18-1.23.19-10.14-.79-11.86-1.1-9.91-1.77-27.17-9.51-33.43-17.54-1.96-2.51-5.04-9.62-.48-11.18Z"/><path d="M2114.08,427.05c5.05-5.13,21.92-11.82,29.16-12.31,6.46-.44,25.6,2.4,20.35,12.34-1.48,2.81-17.93,14.93-21.33,16.64-4.99,2.52-8.47,2.73-13.76.7-2.46-.95-14.38-9.29-15.84-11.16-1.71-2.2-.27-4.49,1.42-6.21Z"/><path d="M1203.99,312.83c-2.4,13.59,7.77,10.93,14.74,14.74,5.58,3.05.53,13.36-2.41,17.26-19.25.77-35.35-7.02-42.09-25.74-.93-2.59-4.45-15.47-.71-16.25,1.58-.33,12.18,10.89,15.19,11.76,5.17,1.51,10.25-1.34,15.28-1.78Z"/><path d="M1284.67,35.31c3.11-.93,13.91.36,17.7.91,4.34.63,29.42,6.54,31.61,8.37,2.72,2.27,1.5,6.75-3.46,6.54-4.66-.2-23.36-5.07-25.59-3.58-3.35,2.25,4.26,9.88,5.28,12.8,2.81,8.09-3.32,10.24-10.28,9.29-4.92-.67-18.31-10.01-19.99-15-1.67-4.96-.87-17.65,4.74-19.33Z"/><path d="M1293.63,312c1.69-.58,3.95-.17,5.75-.08,4.23,1.54,30.08,14.81,31.09,16.89s.72,12.46.25,15.25c-.56,3.32-4.67,10.33-8.25,10.36-2.55.02-22.88-12.53-24.57-15.05-2.29-3.41,1.39-9.97-.12-14.87-.83-2.69-6.46-3.58-6.83-7.21-.17-1.69.98-4.71,2.68-5.29Z"/><path d="M1751.22,422.33c-2.04-1.89-6.93-5.71-5.24-8.48.46-.75,13.88-4.79,16.54-5.93,3.06-1.32,6.3-4.96,9.59-4.04.61.17,6.11,4.85,7.24,5.83,3.51,3,14.09,13.41,14.54,17.47,1.51,13.52-12.79,12.3-21.94,9.9-3.79-1-17.27-11.51-20.75-14.74Z"/><path d="M1224.64,291.98c3.39-1.14,19.68,5.09,23.86,6.85,7.07,2.98,18.05,7.49,18.43,16.59.13,3.12-3.84,13.08-7.2,13.16-7.66.17-24.49-5.26-29.17-11.81-1.94-2.71-8.01-19.84-7.62-22.38.19-1.23.43-1.97,1.7-2.4Z"/><path d="M373.23,79.07c14.22-.29,27.87,4.79,41.57,7.95.34.45-.74,5-1.15,5.96-.94,2.2-13.3,21.88-14.44,22.6-.88.56-1.32.32-2.17.26-16.66-1.09-23.98-22.62-23.8-36.78Z"/><path d="M1211.99,364.78c-.97,7.84.51,26.96-5.48,31.97-11.4,9.52-30.18-8.33-31.5-20.48-.44-4.02-.67-23.18,6.3-21.37,7.83,2.04,4.37,27.9,21.03,16.7,3.41-2.29,5.35-7.03,9.66-6.82Z"/><path d="M1843.09,319.1c3.15-4.87,25.85-.03,28.62,4.31.6.94,5.08,20.37,5.02,21.8-.29,7.08-14.26,18.63-20.93,10.08-2.56-3.29-10.74-19.77-12.04-23.92-.87-2.75-2.24-9.84-.67-12.27Z"/><path d="M1904.51,284.04c2.3-.35,20.85,6.9,21.78,8.81,3.89,8-12.22,30.14-19,34.96-10.57,7.51-12.65-11.45-12.57-18.49.06-5.29,3.94-24.39,9.79-25.28Z"/><path d="M176.02,24.36c8.05-1.68,14.42,4.87,21.58,7.95,3.12,1.35,14.07,3.92,15.7,5.28s1.14,3.97.77,5.78c-5.03,24.53-48.06,4.51-48.86-8.77-.27-4.57,6.94-9.44,10.82-10.25Z"/><path d="M1339.95,362.78c1.05,6.33-5.17,10.67-7.84,15.63-2.73,5.06-7.39,21.9-11.58,24.39-6.36,3.78-21.75-2.68-28.48-5.15-1.58-2.19,5.4-10.53,6.95-12.37,3.67-4.37,18.94-20.73,24.34-19.59,1.5.32,1.55,9.96,10.13,3.07,2.47-1.98,3.36-5.58,6.49-5.98Z"/><path d="M1154.67,327.16c7.2,7.46-.32,18.82-7.32,23.46-11.71,7.77-15.28,3.29-17.86-8.79-2-9.38-1.82-19.26-4.5-28.57-1.45-3.34,4.82-7.06,7.01-5.99,1.25.61,8.32,9.79,11.01,12.06,3.21,2.7,9.28,5.35,11.67,7.82Z"/><path d="M1761.54,227.05c11.7-3.34,15.47,30.77,10.78,36.82-5.05,6.51-24.11-3.18-28.87-8.09-13.12-13.52,2.88-15,10.32-20.43,2.5-1.82,6.34-7.89,7.77-8.3Z"/><path d="M1993.5,478.89c12.12-2.22,26.38,7.95,33.26,17.24,2.34,3.16,5.85,7.89,1.45,9.44-3.42,1.2-19.91,3.66-24.09,3.96-4.95.36-8.87-4.17-11.76-7.99-5.02-6.65-10.81-20.46,1.15-22.65Z"/><path d="M2150.47,299.08c24.04-4.05,17.47,7.14,12.17,23.15-3.96,1.08-10.59,9.02-13.44,9.56-5.42,1.04-18.94-2.11-20.29-8.71-1.56-7.6,14.23-22.76,21.56-24Z"/><path d="M2054.4,369.12c3.03,3.27,5.9,10.78,3.4,14.94-1.23,2.06-18.31,8.04-22.4,11.82-2.59,2.4-3.14,6.36-6.62,7.85-3.14-6.84-5.85-14.94-6.04-22.52-.41-15.66,21.1-23.51,31.67-12.09Z"/><path d="M1287.96,297.84c-9.16-11.47-27.77-14.68-26.9-32.31.82-16.46,17.23-18.21,25.35-5.59,7.97,12.39,2.56,24.43,1.56,37.89Z"/><path d="M1366.6,259.02c4.65-1.58,11.73,5.87,16.48,8.23,3.97,1.97,18.26,5.96,19.97,8.04,1.46,1.79-1.06,9.77-2.06,12.1-4.27,9.93-13.66,12.06-22.74,6.66-6.5-3.86-9.3-13.93-11.02-20.95-.66-2.68-3.73-13.02-.63-14.08Z"/><path d="M1848.22,416.31c4.01,4.26,7.95,7.04,6.6,13.9-.42,2.15-6.64,5.97-8.76,6.32-3.35.55-26.71-6.07-29.19-8.37-4.29-3.97-1.22-19.78,3.64-21.24,3.38-1.02,14.84-.07,18.32,1.29,2.69,1.05,7.26,5.84,9.39,8.1Z"/><path d="M1217.98,151c7.55,16.28,6.42,36.34,6.58,54-10.75,4.08-14-3.22-17.33-11.78-6.28-16.12-6.88-33.79,10.76-42.23Z"/><path d="M1312.46,247.92c1.73-.09,10.46,10.01,13.78,11.23,2.26.83,5.46-1.12,8.67,1.3,2.06,1.56,6.55,16.29,5.91,18.69-.25.95-6.17,6.84-7.36,7.71-7.38,5.42-18.24,3.84-21.99-4.99-2.87-6.75-1.35-22.74-.55-30.52.11-1.03.43-3.36,1.55-3.42Z"/><path d="M1977.56,290.03c5.65-.28,11.5,15.4,11.25,20.27-.26,4.97-7.29,16.1-11.5,18.58-5,2.95-15.04-8.47-16.92-13.17-1.55-3.9-2.77-15.4-1.12-18.87.92-1.94,15.73-6.69,18.28-6.81Z"/><path d="M1932.51,331.98c8.96-2.59,17.75,20.27,16.11,26.07-1.46,5.15-39.74,24.09-33.14-2.09,1.09-4.31,13.53-22.97,17.03-23.99Z"/><path d="M2142.72,235.9l-43.28-5.95c-3.74-6.47,2-13.34,7.93-15.88,3.74-1.6,17.12-5.33,21.11-5.9,12.16-1.75,11.68,19.57,14.24,27.74Z"/><path d="M2504.25,365.99c5.35-1.04,19.62,8.83,16.94,12.77-1.25,1.83-3.64.22-3.65,5.47-.03,9.9,10.67,19.06-2.58,25.33-1.44.68-9.99,3.27-10.76,3.08-2.2-.55-2.78-15.55-3.85-19.11-1.25-4.16-5.97-9.98-5.69-14.2.2-3.02,6.84-12.78,9.59-13.32Z"/><path d="M1339.96,127.03c1.58-.31,2.3.17,3.53.96,3.99,2.54,16.41,11.49,19.49,14.49,4.88,4.75,7.33,12.76,5.19,19.25-.57,1.73-7.64,10.67-8.91,11.06-6.95,2.16-11.42-3.56-14.72-8.88-5.98-9.64-1.99-10.95-2.55-20.43-.32-5.44-3.16-10.64-2.03-16.44Z"/><path d="M1168.01,252.39c.04-.22,1.06-2.27,1.17-2.33.92-.55,15.89.77,16.84,1.32,2.22,1.3,2.26,11.31,3.79,15.2,1.37,3.5,7.74,9.99,7.8,11.77.1,2.66-5.41,15.11-8.13,15.55-7.08,1.14-21.47-18.07-21.47-24.53,0-4.85-.73-12.64,0-16.98Z"/><path d="M2515.38,359.54c-4.2,4.18-14.64-3.45-17.98-6.75-7.77-7.65-16.33-23.96-5.8-32.5,8.1-6.56,11.78-3.14,16.19,4.84,3.01,5.44,12.07,29.93,7.59,34.4Z"/><path d="M1276.73,357.03c.25.2,2.75,4.92,2.95,5.55,1.27,4,3.17,22.12-2.15,22.19-.71,0-11.97-3.87-13.53-4.52-8.45-3.51-20.81-11.87-21.09-21.97-.32-11.43,5.81-4.43,12.69-3.6,4.88.59,17.42-.6,21.13,2.36Z"/><path d="M1553.21,280.54c-6.6-5.69-5.31-13.49-1.51-20.36,1.95-3.54,12.8-18.68,15.64-20.32,4.99-2.88,13.39.93,13.46,6.52.06,5.92-14.19,32.27-19.4,35.57-2.2,1.39-6.38.15-8.19-1.4Z"/><path d="M2902.51,153c-1.77,1.78,7.5,16.04,9.46,18.01,3.73,3.75,9.42,3.97,13.9,7.13,3.45,2.44,9.08,10.56,6.49,14.67-.56.9-19.82,4.56-20.72,3.99-1.18-.74-1.17-9.6-2.08-12.4-1.12-3.44-13.63-29.46-15.34-31.12-1.33-1.29-5.23-.69-4.73-5.75,1.07-10.79,27.91.87,29.01,5.98,1.35,6.29-13.53-2.99-15.99-.51Z"/><path d="M2062.55,458.97c6.6-.62,27.02,0,21.68,11.66-3.29,7.2-31.08,15.19-37.46,12.48-3.84-1.63-5.41-8.1-5.07-11.96.79-8.84,13.62-11.51,20.84-12.19Z"/><path d="M1380.95,118.03c-4.1-1.53-7.75-4.27-12.02-5.47-3.74-1.05-11.72-2.43-15.27-1.55-1.3.32-1.09,3.46-3.17,3-1.49-.33-7.59-6.01-7.61-8.45-.06-9.07,14.36-19.54,23.32-18.29,2.71.38,14.75,5.81,14.75,8.27v22.48Z"/><path d="M1504.62,156.19c7.02-2.1,13.61,4.18,17.08,9.49,3.28,5.02,13.25,27.54,8.21,31.77-.56.47-2.9,1.22-3.69,1.23-1.79.03-14.08-10.13-16.33-12.21-1.82-1.69-4.54-4.15-5.82-6.17-3.44-5.42-7.74-21.63.55-24.11Z"/><path d="M2078.4,397.08c1,.95,2.69,4.01,3.1,5.4,1.06,3.58,2.55,18,2.33,21.76-.8,13.31-15.43-.33-19.76-3.34-2.45-1.71-8.27-3.03-9.12-5.86-.64-2.1.32-15.03.8-17.8,1.21-6.97,18.59-3.99,22.66-.15Z"/><path d="M739.3,124.87c-1.84-2.95,1.39-10.09,3.9-12.26,1.18-1.02,3.72-2.09,5.25-2.74,5.52-2.36,24.84-7.8,30.14-6.78,5.38,1.03,3.75,8.47,2.26,12.19-4.24,10.59-19.97,14.32-30.25,13.83-1.82-.09-10.78-3.4-11.31-4.23Z"/><path d="M2052.75,280.86c-1.28-5.03,2.02-9.62,1.78-14.18-.46-8.48-7.72-14.76-7.86-22.29s7.14-8.04,12.58-4.5c7.16,4.66,19.18,25.98,16.35,34.34-.75,2.2-21.76,7.71-22.85,6.63Z"/><path d="M1939.14,261.24c3.95-3.98,12.43-7.57,18.08-7.38,5.24.18,20.23,5.01,19.6,11.46-.24,2.53-9.5,10.35-12,11.09-3.22.95-24.69,3.03-27.55,2.45-6.15-1.24-1.78-13.95,1.87-17.63Z"/><path d="M2778.53,214.93c1.1,6.24,11.02,36.29,8.55,40-.52.78-3.25,1.61-4.31,1.75-8.13,1.11-27.84-10.26-36.19-13.28,4.15-5.63,12.55-2.65,17.49-6.48,6.68-5.17,5.16-19.27,14.47-21.99Z"/><path d="M654.93,95.33c6.93-.78,23.01-1.19,29.65-.21,10.92,1.6,9.12,8.14,2.09,13.95-6.51,5.38-17.37,5.7-25.74,4.69-14.59-1.76-30.67-15.65-6-18.43Z"/><path d="M1785.57,387.48c-6.28,6.19-15.19-14.36-16.45-18.5-1.79-5.89-5.93-28.99,5.96-25.98,3.57.9,14.7,12.75,15.54,16.48,1.1,4.9-1.62,24.62-5.05,27.99Z"/><path d="M2092.75,273.86c-.02-11.75,12.11-25.28,23.58-26.88,16.94-2.36,27.22,8.93,12.39,21.38-12.03,1.9-24.4,1.41-35.97,5.5Z"/><path d="M1675.87,166.99c9.19.94,18.32,2.84,27.49,3.98,7.15.89,18.22.28,24.77,2.22,7.55,2.24-3.51,12.26-9.22,13.33-5.44,1.02-22.94,1.18-28.32.21-7.79-1.41-14.14-12.42-14.72-19.74Z"/><path d="M2592.56,232.87c-12.34-.94-38.14-7.94-39.74-22.69-.76-6.96,10.41-6.82,15.2-6.15s26.27,13.7,27.87,17.2c.89,1.95-4.5,7.99-3.33,11.64Z"/><path d="M582.89,96.27l43.61,1.95c3.73,1.27,6.68,14.67,5.51,18.17-1.73,5.18-13.63-3.76-16.58-4.19-2.34-.34-3.54,1.57-5.57,1.58-2.33.01-5.93-2.01-8.47-2.45-8.74-1.53-31.9-2.02-18.51-15.05Z"/><path d="M2260.44,421.97c4.95,4.58,1.34,25.79-2.72,30.97-3.68,4.7-21.94,8.75-22.07-.78-.1-7.91,8.1-30.75,16.78-32.29,1.8-.32,6.79.98,8.01,2.1Z"/><path d="M2229.71,180.97c.59,10.24-19.68,21.69-26.85,12.34-3.19-4.16-8.03-22.72-6.75-27.35,1.19-4.29,6.51-7.1,10.9-5.77,1.35.41,7.57,6.92,8.54,8.44,4.71,7.41,1.13,14.61,14.16,12.33Z"/><path d="M1271.98,135.01c.87,11.91-3.43,44.77-20.23,43.73-7.68-.48-8.78-3.91-7.08-10.58,2.88-11.28,13.02-34.47,27.31-33.15Z"/><path d="M1647.57,295.01c2.66-.62,9.17,2.49,11.24,4.39,5.66,5.22,6.76,15.68,6.05,22.9-1.03,10.46-4.21,11.46-13.67,7.69-4.44-1.77-16.17-6.81-14.1-12.41,2.65-4.35,5.79-21.49,10.49-22.58Z"/><path d="M2426.3,309.18c3.17,2.73,16.72,20.71,17.04,24.29.54,6.12-8.09,2.33-12.2,2.24-5.55-.12-9.39,2.87-15.02-1.88-2.75-2.32-9.88-15.25-10.29-18.77-1.09-9.44,13.55-11.84,20.47-5.88Z"/><path d="M1520.62,215.07c4.16-1.06,15.3,13.34,17.72,16.91,3.42,5.06,6.05,9.11,5.62,15.46-.7,10.22-5.65,4.61-12.54,4.39-2.51-.08-6.54,1.24-7.82.93-6.24-1.54-13.54-34.99-2.97-37.68Z"/><path d="M1325.2,201.18c2.27-2.12,11.85-2.58,15.03-1.99,16.19,2.97,7.8,36.64,2.06,38.58-14.99,5.05-14.71-25.64-18.04-33.5-.08-.93.28-2.47.94-3.09Z"/><path d="M2456.52,153.88c.42-.5.82-11.87,2.19-12.8,2.9-1.96,6.46,3.46,8.59,4.75,7.13,4.34,15.35,6.49,21.8,12.18,12.87,11.35,7.17,19.64-8.74,14.73-6.91-2.14-14.11-9.34-19.77-11.21-2.3-.76-16.03-1-8.91-6.01,1.53-1.08,4.69-1.45,4.85-1.64Z"/><path d="M2024.51,253.16c4.33,4.22,9.7,31.96,7.8,37.74-1.67,5.07-10.35,1.82-14.33.24-6.62-2.64-9.64-8.93-10.15-15.91-.44-6.17,9.4-29.16,16.68-22.07Z"/><path d="M1386.64,369.05c2.82,3.49-1.27,20.31-3.19,24.69s-4.97,8.98-10.03,7.08c-4.55-1.71-10.86-7.82-11.26-12.87-.35-4.38,4.18-22.42,7.27-25.19,3.84-3.43,14.64,3.12,17.2,6.29Z"/><path d="M1448.68,183.15c8.06-1.56,14.86,11.87,15.18,18.43.35,7.1-8.37,25.1-15.5,17.4-1.69-1.82-1.09-4.05-2.43-5.55-2.19-2.45-9-1.82-9.98-7.03-1.38-7.36,4.75-21.71,12.73-23.25Z"/><path d="M2021.39,318.95c4.56,1.51,7.24,5.53,11.68,8.04,4.13,2.34,16.96,5.27,12.73,12.36-4.65,7.82-32.26,17.63-34.81,3.71-2.03-11.08,3.66-16.46,10.39-24.11Z"/><path d="M1301.63,135.11c3.78-1.23,7.28,5.57,9.17,8.56,2.38,3.76,8.6,14.99,8.26,18.82-.43,4.84-13.85,12.51-18.58,12.54-7.05.04-8.89-6.78-8.53-12.59.28-4.48,5.69-26.03,9.69-27.33Z"/><path d="M1586.9,317.82c.73-7.67-12.56-15.59-12.01-21.38.36-3.74,5.52-7.29,7.98-10.11,5.13-5.87,4.66-11.79,14.03-3.98,14.05,11.71,5.65,31.27-9.99,35.47Z"/><path d="M1420.7,76.33c6.14-.3,12.37,1.48,17.14,5.32,15.61,12.56-6.32,12.16-14.14,13.67-5.35,1.03-24.33,7.68-25.76.23-1.96-10.13,13.99-18.79,22.76-19.22Z"/><path d="M558.19,110.04c-18.06-1.21-44.32,3.07-54.99-14.98l54.33.14c.7.21,1.36.7,1.54,1.42.38,1.57-2.07,10.46-.88,13.41Z"/><path d="M2187.71,278.86h-29.49c-1.76,0-4.96,2.66-6.97-2.02-3.25-7.57,7.58-18.72,14.44-20.49,13.63-3.51,26.84,8.67,22.02,22.5Z"/><path d="M1425.59,129.37c-2.82-2.35-5.77-4.48-8.18-7.31-2.71-3.19-9.56-11.66-4.89-14.94,6.63-4.65,29.71-.47,32.95,6.96.39.89-1.33,12.52-1.76,14.21-1.72,6.84-10.43,8.04-15.77,4.2-1.22-.87-1.52-2.44-2.34-3.13Z"/><path d="M2566.4,391.52c-2.18,1.27-26.65-3.02-30.03-5.02-14.89-8.84,1.66-19.07,12.74-18.81,2.35.06,21.33,7.92,22.04,9.07,1.49,2.38-2.54,13.48-4.75,14.77Z"/><path d="M599.85,127.32c3.93,4.54-7.42,9.65-11.23,10.62-11.18,2.84-24.48-3.48-31.89-11.91-2.17-2.47-2.04-2.49-.08-5.06,8.21-10.79,35.56-2.48,43.21,6.35Z"/><path d="M1924.5,384.86c3.95-1.05,12.46,13.8,13.06,17.61.49,3.1-.83,14.35-4.38,15.03-1.9.36-23.04-7.44-25.63-9.03-13.95-8.59,11.68-17.79,16.95-23.61Z"/><path d="M1829.55,350.93c8.09-1.67,8.82,16.56,7.58,21.64-3.31,13.54-24.56,24.78-26.26,6.56-.75-8.04,10.54-26.52,18.68-28.2Z"/><path d="M1985.39,220.21c3.34-.38,7.1,2.25,9.94,2.65,5.27.74,10.61-.81,15.19-.75,3.81.05.64,9.98-.56,12.49-.83,1.74-13.55,19.99-14.78,20.25-.37.08-6.66-2.69-6.91-2.97-2.61-2.97-4.92-15.73-5.97-20-.34-1.38-1.81-2.7-2.09-3.95-.7-3.11,1.95-7.36,5.18-7.72Z"/><path d="M1429.65,232.09c3.61-1.07,6.58,2.11,9.29,4.31,2.95,2.39,9.41,9,9.01,12.96-.14,1.39-12.6,14.26-14.52,15.52-6.24,4.11-16.88,1.69-16.55-7.47.17-4.82,7.89-23.88,12.76-25.33Z"/><path d="M1738.64,225.7c-1.37.78-9.76.27-11.86-.22-5.35-1.24-16.21-9.23-16.9-15.15-.82-6.96,7.05-14.13,13.57-14.35,1.04-.04,11.61,3.86,12.37,4.49,4.02,3.32,8.45,22.03,2.82,25.23Z"/><path d="M1802.81,350.78l-10.47-19.99c-2.93-8.21-3.76-19.63-.98-27.95,1.63-4.87,4.21-5.66,9.27-4.35,5.7,1.48,8.81,4.89,9.22,10.86.78,11.16-6.71,29.51-7.04,41.43Z"/><path d="M1295.66,193.26c4.93,6.09,4.4,24.72.33,31.17-1.38,2.18-10.07,9.13-12.45,8.47-1.43-.4-2.03-4.31-2.29-5.75-1.48-8.3-3.43-25.52-.76-33.19,1.65-4.74,4-7.57,9.24-5.25.45.2,5.67,4.22,5.93,4.55Z"/><path d="M1321.93,85.11c.62.72-.47,4.33-.92,5.51-1.51,3.97-8.21,18.77-10.61,21.36-1.45,1.57-9.05,5.79-10.48,4.64-3.06-9.15-14.7-23.94-4.21-31.57,3.8-2.77,24.16-2.32,26.21.06Z"/><path d="M1668.59,381.05c1.73,1.31,6.97,9.49,7.6,11.88.72,2.73,1.58,8.15-.22,10.41-2.73,3.43-26.43,3.61-29.18,0-2.28-3,1.69-22.54,4.05-24.11s15.13-.15,17.76,1.83Z"/><path d="M1834.95,276c7.86-1.49,15.51,1.85,21.37,6.85,9.71,8.29-10.78,31.98-21.52,25.5-5.44-3.28-2.48-26.61.15-32.35Z"/><path d="M2152.37,483.3c-5.72,6.67-19.5,10.98-28.12,9.32-4.6-.89-7.34-11.34-6.53-15.47,1.32-6.69,23.6-9.41,29.45-8.43,6.69,1.12,9.64,9.4,5.2,14.58Z"/><path d="M1174.97,206.98c-.08,4.59-9.65,26.39-13.45,26.68-1.7.13-6.67-5.28-7.93-6.83-4.25-5.22-7.86-14.25-12.12-18.85-2.61-2.81-6.65-.49-6.45-4.04,8.21,2.89,8.31-2.52,14.31-5.85,7.99,4.44,17,6.19,25.64,8.88Z"/><path d="M1393.19,199.27c-.49.28.18,2.48-2.57,1.53-3.76-1.29-9.23-13.45-8.7-17.28.51-3.67,10.21-11.13,14.44-10.55,5.19.71,16.27,13.11,18.08,17.98,8.73,23.49-14.43,4.39-21.25,8.32Z"/><path d="M1213.48,215.18c3.64-.27,15.97,18.92,16.44,23.33.51,4.76-4.72,20.64-9.46,21.43-2.89.48-3.84-.7-5.31-2.71-5.35-7.27-9.52-23.53-7.71-32.37.44-2.15,3.9-9.52,6.04-9.68Z"/><path d="M1725.75,271.78c-1,.69-18.89-4.7-22.15-4.15-4.74-1.27-8.09-12.81-8.67-17.31-3.02-23.71,14.13-9.73,22.42-.43,2.97,3.33,13.59,18.3,8.39,21.9Z"/><path d="M2244.4,314.04c9.53-2.8,35.16,8.11,24.78,17.76-2.5,2.32-17.1,3.06-21.69,4.3-11.09,2.99-21.3,14.28-12.27-8.27,1.35-3.36,5.77-12.79,9.18-13.79Z"/><path d="M1428.7,283.04c8.14-1.04,25.88,10.98,15.75,19.82-2.05,1.78-17.65,8.94-20.45,9.53-19.55,4.09-5.47-28.04,4.71-29.34Z"/><path d="M1257.73,97.25c6.83-1.32,13.15,2.4,14.16,9.38.29,2.03.5,8.08-.05,9.76-1.42,4.32-8.77-.31-11.37-.44-10.31-.5-8.22,14-14.98,19.04-4.06,0-6.81-18.85-6.08-21.95,1.26-5.35,12.97-14.76,18.32-15.79Z"/><path d="M2188.28,306.86c5.41,2.77,16.81,5.73,19.65,11.24,2.51,4.87,1.82,20.15-3.27,23.14-8.92,5.24-19.84-6.77-20.86-15.02-.38-3.1,1.63-18.74,4.47-19.36Z"/><path d="M2509.62,77.08c-1.68,3.75,0,12.73-1.89,15.37-.4.56-9.09,2.46-10.61,2.59-6.54.57-22.3.28-26.36-5.61-1.35-1.95-4.61-10.29-2.18-11.93,3.46-2.33,14.54-.43,18.51-.39,7.51.06,15.03-.13,22.53-.04Z"/><path d="M2170.45,149.17c6.63-1.38,17.9,12.98,17.1,17.17-.9,4.7-21.27,15.46-26.1,14.46-13.53-2.8.38-29.83,9-31.62Z"/><path d="M1724.64,383.95c4.17-.35,11.31,5.31,11.31,9.29,0,3.44-7.69,9.68-10.78,11.31-5.78,3.05-19.19,5.83-24.82,2.18-6.09-3.95-7.02-8.45-.83-12.82,3.7-2.62,20.86-9.59,25.12-9.95Z"/><path d="M969.07,56.1h-14.5c-2.12,0-10.26-2.54-11.58-4.41-.9-1.28-1.96-9.01-1.52-10.59.73-2.67,6.75-7.51,9.28-8.79,2.09-1.06,12.02-4.38,13.81-4.22,6.12.54,8.89,23.44,4.5,28.01Z"/><path d="M2872.51,170.97c-13.1-.64-28.02-2.64-27.89-18.89,6.91-.54,22.6-3.96,15.37-13.04-.9-1.14-4.34-5.59-4.63-5.85-.53-.48-11.27-1.14-10.83-7.16,6.99-4.89,22.71,9.98,25.06,15.39,2.82,6.48-1.76,13.76-1.06,19.96.24,2.11,4.79,8.83,3.98,9.58Z"/><path d="M1659.21,279.52c-1.28-1.46-2.97-4.28-3.29-6.2-.48-2.84.39-12.84.94-15.94,1.3-7.34,12.86,2.32,15.47,4.52,4.54,3.83,11.23,10.68,12.28,16.69.58,3.31,1.41,10.81-3.27,11.24-5.18.48-18.67-6.37-22.13-10.33Z"/><path d="M1380.66,328.53c-1.94,2.44-21.85,4.69-23.98,3.35-2.4-1.52-10.49-18.74-9.28-21.04,1.1-2.09,8.66-5.07,11.07-5.05,4.37.04,21.16,9.65,23.37,13.7,1.27,2.33.4,7.05-1.18,9.04Z"/><path d="M2393.14,131.13c7.69,3.53,12.79,9.54,17.91,15.97,9.7,12.19,17.83,23.49-6.44,17.42-18.02-4.5-19.83-18.61-11.47-33.39Z"/><path d="M2337.68,181.96l1.8-9.67,9.84-17.2c5.67,1.05,30.01,10.65,31.18,15.59.37,1.56-.91,5.62-2.48,6.16-3.96,1.34-17.28-.3-22.84.15-5.85.48-12.44,2.02-17.5,4.98Z"/><path d="M1504.92,116.04c9.62.43,33.9,16.66,35.76,25.7.45,2.21,1.42,13.04-2.79,10.78-2.41-1.29-7.39-6.57-10.74-7.34-1.95-.45-3.38.75-4.76.66-10.16-.68-18.05-20.8-17.46-29.79Z"/><path d="M484.07,103.91c-4.77,2.14-8.48-.72-13.93.57-9.58,2.26-9.16,11.13-21.22,4.37-6.65-3.73-21.53-15.69-5.96-18.55,6.67-1.22,31.81,3.25,37.96,6.55,3.11,1.67,3.94,3.43,3.16,7.06Z"/><path d="M2075.48,303.01c9.63-2.03,9.9,18.97,9.26,25.28-.83,8.15-3.18,12.07-12,10.01-13.36-3.13-13.24-17.01-6.82-26.81,1.51-2.3,7.01-7.94,9.56-8.48Z"/><path d="M1163.71,12.35c2.58-.78,5.73-.15,8.35.24,2.37.36,23.92,7.23,24.95,8.04,1.17.92.97,1.45.83,2.74-.57,5.16-8.5,17.24-14.06,16.57-4.32-.53-18.62-12.57-20.65-16.43-1.47-2.81-3.57-9.9.58-11.16Z"/><path d="M2251.55,392.88c2.61,4.16-4.68,12.01-6.7,15.5-1.39,2.4-.69,4.92-3.15,6.84-3.31,2.58-20.14,3.88-22.52,1.52-5.56-5.49,2.61-16.93,7.59-20.44,4.45-3.14,22.19-7.57,24.79-3.42Z"/><path d="M1931.43,229.27c3.67,3.78,7.36,9.49,3.37,14.15-1.42,1.66-19.7,11.82-22.28,12.69-1.96.66-3.62,1.07-5.72.78.97-10.65,5.26-20.8,4.14-31.83,7.23-2.62,15.13-1.31,20.5,4.21Z"/><path d="M1379.65,219.14c6.34-1.46,11.68,1.22,16.3,5.27,1.8,1.58,6.91,7.46,7.54,9.44,4.08,12.89-14.28,10.72-22.12,11.97-5.92-.24-15.13-23.59-1.71-26.68Z"/><path d="M2366.31,119.39c8.23,8.3,2.94,14.05-5.63,18.63-1.62-11.38-8.57-9.68-15.96-13.54-2.88-1.5-13.48-11.32-14.03-13.95-.2-.94-.23-5.14.03-5.42,1.77-1.84,13.83-.93,16.94.43,2.04.89,16.83,12.04,18.63,13.85Z"/><path d="M2109.65,364.87c-.7,8.97-1.05,17.69-7.93,24.36-10.19,9.89-19.28-5.62-18.91-15.82.06-1.78,2.5-11.55,3.41-12.65,3.63-4.38,9.43,3.58,13.1,4,3.55.41,6.77-2.11,10.32.11Z"/><path d="M1386.95,131.02c3.16-3.14,24.76,12.38,28,15.47,10.02,9.54,7.86,16.43-6.51,16.29-17.19-.17-19.44-18.07-21.5-31.76Z"/><path d="M2659.42,106.88c-14.84,3.38-25.02-10.76-26.84-23.81l37.03,2.45c1.45.96.98,2.27.54,3.58-1.83,5.47-9,11.79-10.73,17.78Z"/><path d="M1740.85,364.78c-9.32,1.64-14.72-2.38-21.06-8.46-3.76-3.61-16.15-19.65-6.41-21.48,18.33-3.46,30.79,12.55,27.47,29.95Z"/><path d="M1137.83,364.05c4.77-.4,5.65-.16,5.13,5.12-.49,4.89-13.36,32.48-16.97,34.11-1.84.83-5.63-.56-5.95-2.11-.2-.94,1.67-2.46,1.95-3.96,1.9-10.09-10.54-14.89-2.82-25.79,3.28-4.63,13.2-6.9,18.66-7.37Z"/><path d="M2166.44,353.98c9.61-2.19,9.55,9.47,8.07,16.07-.96,4.28-9.98,14.16-14.23,14.74-4.85.67-17.5-2.14-16.56-8.46.6-4.04,18.49-21.39,22.72-22.35Z"/><path d="M2017.73,415.75c2.3,10.23,1.06,23.99-6.93,31.47-3.99,3.74-7.82,5.8-12.95,2.87-15.08-8.63,7.26-35.43,19.88-34.34Z"/><path d="M2519.61,76.07c4.77-.69,30.7,1.98,32.56,5,1,7.25-4.69,22.92-13.39,20.32-1.22-.36-15.01-7.74-15.65-8.35-3.48-3.34-3.85-12.42-3.53-16.96Z"/><path d="M2642.58,143c-2.1-2.14,8.52-14.83,10.49-16.99,1.51-1.66,4.43-4.88,6.45-5.53,14.12-4.55,22.76,21.61,13.34,24.31-7.48,2.15-22.37-.65-30.28-1.79Z"/><path d="M2308.45,175.17c6.43-.87,15.61,3.95,15.3,11.27-.27,6.34-14.98,18.75-17.56,25.47-9.04-8.32-14.28-34.5,2.27-36.74Z"/><path d="M865.09,57.1c4.03,15.19-20.49,25.74-32.25,23.73-3.63-.62-14.7-6.04-10.73-10.25,1.04-1.1,23.49-9.25,26.77-10.21,5.33-1.55,10.78-2.26,16.21-3.27Z"/><path d="M1242.99,195.94c2.19-2.23,19.33,11.96,19.85,13.7,1.07,3.62-3.74,23.78-7.51,25.11-2.94,1.03-8.75-.6-10.89-2.78-4.25-4.32-2.19-29.17-1.44-36.03Z"/><path d="M2442.96,352.11c8.35-7.65,32.18,2.41,33.64,13.25,1.25,9.27-13.64,8.19-19.77,6.72-7.04-1.69-22.25-12.29-13.86-19.98Z"/><path d="M2498.62,418.72c11.83-.45,24.37-2.71,34.47,5.02,3.9,2.98,8.25,8.03,6.39,13.33-.73,2.09-10.08,4.87-12.87,4.2-2.9-.7-16.69-8.43-19.47-10.58-1.96-1.52-10.77-9.63-8.52-11.96Z"/><path d="M2085.47,503.86c5.3-1.1,10.15.57,14.95,2.59,7.19,3.02,13.2,5.91,5.81,13.16-4.91,4.82-22.53,9.47-28.5,6.52-7.2-3.56-1.83-20.28,7.74-22.26Z"/><path d="M1867.67,195.8c-3.6,2.29-16.32-5.36-20.16-7.04-2.84-1.24-6.04-1.45-9.07-2.93-3.22-1.57-12.91-8.08-5.17-8.92,9.16-.99,21.8-1.84,30.99-1.97,3.98-.06,11.78-1.62,11.53,3.41-.09,1.79-7.31,16.93-8.12,17.45Z"/><path d="M2172.39,450.86c3.39-.26,15.92,13.27,16.32,17.4.59,6.06-10.53,17.97-12.49,24.35-9.17-4.49-15.49-40.85-3.83-41.76Z"/><path d="M2065.43,190.08c8.25-2.66,23.8,15.26,20.86,19.85-.52.81-2.94,1.78-4.07,2.98-3.13,3.31-5.67,7.63-10.1,8.94-4.09,1.21-10.44.39-11.34-4.45-.76-4.11.6-26.01,4.65-27.32Z"/><path d="M2193.42,213.09c5.04-1.51,15.1,7.53,18.26,11.36,6.2,7.51,6.45,8.2-.46,15.47-8.69,9.14-15.6,9.06-19.23-3.78-1.31-4.65-4.61-21.23,1.43-23.04Z"/><path d="M2140.49,342.03c2.24,2.25.88,12.6-.99,14.52-2.07,2.12-12.54,1-16.18,1.31-4.62.39-6.71,4.78-9.32-2.84-1.02-2.99-3.59-17.87-3.09-20.46,1.41-7.34,7-.42,11.13,1.44,3.57,1.61,17.15,4.73,18.45,6.04Z"/><path d="M1983.54,387c18.05-2.11,17.15,8.41,6.25,18.25-7.8,7.05-24.58,10.14-26.61-3.49-1-6.71,14.81-14.12,20.36-14.77Z"/><path d="M2574.33,80.29c4.68-1.01,34.12-.08,37.27,2.26s-.58,5.93-2.51,7.5c-9.68,7.89-21.93,9.7-33.78,4.79-6.28-2.6-7.05-13.25-.98-14.56Z"/><path d="M737.13,103.55c-.24,1.63-2.23,6.53-4.47,6.03-6.65-2.4-16.98-1.48-23.12-4.44-3.42-1.65-9.81-10.87-5.16-13.37,3.29-1.77,14.15-3.15,18.38-3.58,2.21-.23,10.63-1.29,11.88-1.16.89.09,2.49.9,2.49,1.53,0,4.45.61,10.91,0,14.98Z"/><path d="M2965.14,309.18c3.59,3.81,6.39,22.05,4.9,26.68-.49,1.51-11.29,12.84-12.56,13.41-3.95,1.76-8.19,1.39-7.75-3.71.48-5.65,4.8-9.35,3.72-16.19-.39-2.47-7.04-11.47-5.95-12.54,10.01,4.91,14.38-1.06,11-10.99,1.12-.99,5.7,2.33,6.64,3.34Z"/><path d="M2210.47,424.95c4.4,4.39-3.56,25.41-7.81,28.22-5.49,3.63-20.87-6.86-19.98-12.92.73-4.98,21.51-21.58,27.79-15.31Z"/><path d="M1025.05,15.14c-2.22,9.47-13.97,24.56-24.5,24.78-7.27.16-9.85-13.11-11.03-18.84.59-1.01,9.7-4.11,11.49-4.5,1.44-.31,7.64-1.44,8.55-1.44h15.5Z"/><path d="M1626.88,370.77l1.24-8.25,12.26-18.74c5.56,2.6,19.81,14.17,19.31,20.24-.3,3.59-3.86,6.75-7.31,6.75h-25.49Z"/><path d="M2863.26,296.09c11.13-2.11,13.13,4.73,20.25,11.26,4.76,4.37,14.44,7.33,2.03,10.99-4.86,1.43-10.12,1.26-14.95,3.04-1.05-.36-15.54-13.19-15.89-14.2-2.14-6.13,3.15-10.06,8.57-11.09Z"/><path d="M1778.66,277.06c-1.47,9.94.13,20.05-2.85,29.76-9.99-1.24-15.03-13.91-24.24-17.19-2.48-.88-7.86-.31-8.72-2.28,5.14-6.61,11.91-4.53,19.21-6.77,5.56-1.7,11.12-8.1,16.6-3.52Z"/><path d="M2023.76,168.98c1.79,1.52-8.63,9.05-9.68,9.8-6.78,4.83-19.79,13.09-28.14,10.52-7.97-2.45-9.95-13.96-2.01-16.67,10.77-3.69,28.19-1.18,39.83-3.64Z"/><path d="M1977.54,342.99c5.32-.73,15.65,4.55,16.23,10.39.42,4.27-9.58,19-13.53,19.41-5.34.56-13.06-10.72-13.5-15.51-.6-6.6,4.07-13.37,10.81-14.29Z"/><path d="M1800.55,237.07c4.56-1.31,14.81,3.98,17.71,7.89,5.98,8.08,4.52,15.73-2.43,22.4-7.95,7.64-17.04-10.5-17.91-17.06-.45-3.36-1.16-12.15,2.63-13.24Z"/><path d="M1483.91,156.99c-.84.8-7.1-4.42-7.86-5.62-1.23-1.93-8.31-18.21-9.15-20.81-5.66-17.6,18.83-11.04,21.55-.57,2.65,10.19-1.33,17.89-4.54,27Z"/><path d="M1089.65,16.77c-1.41,2.16-7.78,9.51-10.03,9.38-7.95-4.44-20.15-6.76-27.5-11.58-1-.66-2.18-1.41-2-2.78.13-.77,2.7-3.07,3.55-3.5,2.39-1.22,12.32-1.98,15.82-2.17s22.02-.49,23.11.99c1.29,1.75-1.73,7.79-2.96,9.67Z"/><path d="M2392.44,207.17c4.01-.43,10.48.51,13.71,2.76,2.98,2.08,7.97,10.82,6.04,14-1.56,2.55-15.92,2.51-19.94,3.08-3.23.46-6.09,3.26-9.15.98-3.6-2.68-5.54-9.49-3.68-13.81,1.47-3.41,9.49-6.63,13.02-7.01Z"/><path d="M2347.45,201.19c22.37-2.68,3.51,34.23-7.06,31.59-5.58-1.4-6.49-17.77-5.66-22.29.93-5.08,8.06-8.74,12.72-9.3Z"/><path d="M1553.52,170.2l32.3,7.35c3.33,1.56,5.62,8.7,3.63,11.48-2.38,3.35-26.28.72-30.61-1.51-5.93-3.05-11.96-12.3-5.32-17.32Z"/><path d="M2159.84,195.07c2.17-1.37,6.26,1.85,7.73,3.53,6.03,6.9,9.35,36.07-2.51,37.08-9.17.78-9.89-23.52-9.22-29.13.21-1.75,3.21-10.97,4-11.48Z"/><path d="M2119.52,172.19c9.4-.86,12.96,3.85,10.77,12.85-1.34,5.49-11.12,13.02-16.84,11.72-2.83-.64-15.39-9.17-14.61-12.1,1.27-4.78,15.72-12.02,20.67-12.47Z"/><path d="M2466.28,425.06c3.92,3.78,9.44,13.14,9.88,18.54.09,1.13-3.69,8.06-4.14,8.16-5.27,1.13-18.71-12-21.14-16.8-8.77-17.38,4.67-20.25,15.4-9.89Z"/><path d="M1732.84,317.82c-5.28-2.63-11.28-3.68-16.66-5.81-3.31-1.31-9.9-3.44-12.25-5.74-4.17-4.09-8.91-16.54-.33-18.24,9.32-1.85,32.05,18.49,29.25,29.79Z"/><path d="M2236.94,262.12c5.13-5.12,21.97,6.01,25.8,10.21,5.46,5.99-3.1,15.4-8.49,15.59-3.31.11-11.13-3.22-13.48-5.63-3.1-3.18-7.22-16.79-3.84-20.16Z"/><path d="M2432.41,84.33c3.71-.55,15.66-.75,17.75,2.72,1.87,3.1-.34,16.66-3.51,18.56-.31.19-6.61.26-7.25.18-5.27-.66-20.06-5.8-19.76-12.14.22-4.72,8.57-8.7,12.77-9.32Z"/><path d="M2144.56,153.83c-1.51.92-13.73,1.32-16.23,1.06-3.57-.38-15.5-3.03-18.6-4.39-1.14-.5-3.4-1.3-3-2.98.52-2.19,18.26-6.42,21.53-7.46,7.32-2.32,20.48-11.87,20.25,2.47-.03,1.72-3.12,10.8-3.96,11.31Z"/><path d="M1837.61,222.71c-6.53,3.82-25.37-14.17-21.31-20.78,3.18-5.18,23.45-4.9,27.5-.48,2.04,2.23,1.54,6.03.76,8.68-.58,1.95-5.78,11.9-6.94,12.58Z"/><path d="M1800.77,188.88c-1.37,1.9-14.34-1.59-17.45-1.91-5.67-.59-17.98-.18-22.7-2.05-3.16-1.25-8.15-9.6-2.28-10.95,14.61.29,40.8-6.42,42.43,14.91Z"/><path d="M2196.71,387.75v16.48c0,2.64-3.41,9.1-6.56,9.53-3.68.5-17.18-10.15-18.21-13.74-4.06-14.13,15.58-14.95,24.77-12.27Z"/><path d="M1624.88,187.95c3.18-3.19,29.45,14.65,31.5,19,2,4.26-7.11,12.77-11.77,11.79-7.17-1.51-22.16-22.36-19.72-30.79Z"/><path d="M2443.88,216.17c5.21-5.22,22.52,7.09,24.29,13.72,1.9,7.1-3,16.93-11.49,13.47-2.89-1.18-10.89-9.61-12.46-12.51-1.73-3.18-2.81-12.19-.33-14.67Z"/><path d="M1695.63,375.53c-3.13,3.23-13.13,1.7-15.54-3.49-1.59-3.43-4.09-24.33-4.15-28.88-.08-5.91,5.19-1.14,7.94,1.13,6.34,5.23,13.78,14.54,13.88,23.1.02,1.54-1.25,7.25-2.12,8.15Z"/><path d="M1872.55,370.92c13.15-2.35,12.69,33.86,5.56,35.68-3.97,1.01-13.71-10.93-14.25-14.43-.82-5.35,2.34-20.12,8.69-21.25Z"/><path d="M2542.61,158.98c-2.5,1.02-5.62.65-8.02,1.49-6.2,2.18-9.24,7.63-16.56,4.59-8.89-3.69-11.7-25.63-1.18-23.88,7.26,1.21,23.4,10.17,25.75,17.8Z"/><path d="M2275.69,252.89c-1-1.03-1.34-18.79-1.03-21.5,1.95-16.78,31.73-1.01,25.09,8.09-1.7,2.33-8.04,3.54-10.78,5.2-4.19,2.54-7.84,7.54-13.28,8.2Z"/><path d="M2220.71,143.01c-1.21,1.2-21.58-2.87-23.96-4.54-2.7-1.89-3.9-9.4-2.51-12.44,1.54-3.38,13.66-6.96,17.13-6.96,7.39-.01,10.53,18.06,9.35,23.94Z"/><path d="M1109.03,7.15h15.5c2.27,0,17.56,3.08,19.96,4.03,9.04,3.57-1.74,16.73-6.96,17.05-6.32.39-12.97-6.99-17.58-10.51-3.84-2.93-11.84-5.55-10.92-10.57Z"/><path d="M787.93,76.32c9.74-.83-.97,15.14-5.81,17.25-8.2,3.56-22.48,5.53-25.52-5.47-2.96-10.71,5.25-6.65,10.89-7.1,6.13-.49,13.66-4.11,20.44-4.68Z"/><path d="M1241.63,384.07c4.97-.31,10.57,4.38,13.36,8.17,1.42,1.93,6.77,11.29,4.04,13.02-3.36,2.14-27.75,1.2-29.59-1.5-2.07-3.03,6.55-19.35,12.2-19.7Z"/><path d="M1556.38,303.09c7.46-.58,20.16,31.76,11.87,34.57-14.41,4.9-21.42-20.58-15.21-31.17.53-.9,2.51-3.34,3.34-3.4Z"/><path d="M2310.54,103.17c3.05,7.3-8.49,18.03-15.38,17.94-4.51-.06-11.49-9.24-15.1-11.94-3.82-2.86-16.83-7.16-1.91-8.17,10.37-.7,21.94,2.08,32.39,2.17Z"/><path d="M2310.44,124.29c7.86-1.25,13.63-.65,19.13,5.33,9.63,10.5-1.53,21.15-12.21,15.2-2.94-1.64-15.66-12.45-15.43-15.31.21-2.59,6.13-4.84,8.52-5.22Z"/><path d="M2334.65,287.85c-3.44,2.47-14.61-18.06-15.71-20.74-7.65-18.72,5.31-18.9,15.24-6.23,7.18,9.17,6.34,17.4.47,26.98Z"/><path d="M2080.57,155.21c3.63-.19,5.79,1.18,5.21,5.21-.83,5.67-19.41,13.41-24.8,14.26-.81.13-8.08.23-8.49.12-3.81-1.02-4.3-5.53-2.97-8.58,4.02-9.22,22.3-10.56,31.06-11.02Z"/><path d="M1946.51,196.17c5.31-.51,21.89,5.73,23.75,10.73,1.17,3.14-9.93,14.19-12.89,14.04-3.6-.18-18.66-15.25-18.57-18.53.07-2.59,5.17-6,7.71-6.25Z"/><path d="M2481.63,286.86c2.61,2.72-6.2,8-8.3,9.19-2.01,1.14-12.31,5.88-13.97,5.63-3.44-.5-15.45-17.64-14.68-20.22.34-1.15,1.43-1.4,2.46-1.59,10.53-1.96,23.84,6.28,34.49,6.99Z"/><path d="M2311.51,302.99c4.19,6.8-16.23,17.52-24.38,12.89-1.78-1.01-8.48-9.66-8.43-11.57.1-3.58,9.64-7.97,12.62-8.16,2.17-.13,19.62,5.9,20.19,6.83Z"/><path d="M2422.99,260.52c-5.21-3.63-14.2-14.86-5.25-18.99,17.26-7.95,29.23,14.92,19.87,21.81-3.36,2.47-11.33-.53-14.63-2.82Z"/><path d="M2382.34,245.21c4.88,5.87.99,15.6-2.43,21.39-.47.8.19,1.64-1.75,1.3-2.87-.5-11.68-8.85-13.32-11.7-2.92-5.09-6.71-18.82,2.17-18.25,4.08.26,12.73,4.14,15.32,7.25Z"/><path d="M2739.73,232.73c-.4-.24-.55-1.73-1.16-2.28-3.73-3.38-13.6-11.18-16.03-14.28-7.4-9.47,5.32-9.53,12.04-7.76,2.88.76,15.32,8.7,16.85,11.12,5.41,8.55-8.93,14.88-11.71,13.2Z"/><path d="M1622.61,249.02c6.17-.93,6.69,13.1,6.18,17.27-.49,4.05-5.61,19.12-10.36,18.61-6.65-.71-8.2-12.19-7.46-17.45.62-4.43,6.78-17.71,11.64-18.44Z"/><path d="M2292.64,259.92c.17.12.61,2.73,1.58,3.91,3.8,4.6,20.09,13.83,12.43,20.5-.89.77-9.44,4.18-10.62,4.24-10.53.54-13.63-11.84-12.28-20.14.46-2.85,6.38-10.26,8.89-8.51Z"/><path d="M2018.38,197.32c-.67-.85-2.19-1.1-2.89-2.58-5.75-12.21,25.15-6.48,27.11.94,1.1,4.18-5.34,14.41-6.83,18.8-3.21,2.54-15.4-14.65-17.4-17.16Z"/><path d="M2099.05,464.35c-2.79-2.37-7.2-11.84-7.87-15.61-1.86-10.48-.25-13.85,10.43-9.43,3.11,1.29,11.38,6.81,11.96,10.12.42,2.37-6.38,15.88-7.83,16.8-1.6,1.02-5.32-.71-6.69-1.88Z"/><path d="M1908.79,202.93c-.69.93-19.15,7.04-21.78,7.71-2.15.55-9.19,2.43-10.71,2.32-5.12-.37-1.37-13.43,1.61-16.41,6.15-6.14,15.1-3.37,22.17-.39,1.68.71,10.28,4.65,8.71,6.76Z"/><path d="M2216.13,272.45c2.97,3.42,8.94,12.71,6.09,17.42-2.02,3.34-13.73,3.31-17.38,2.85-1.79-4.64-5.99-26-.46-27.74,3.87-1.21,9.43,4.8,11.75,7.46Z"/><path d="M2690.27,217.24c.27.2,4.51,4.48,4.73,4.75,2.48,3.11,2.86,5.7,1.59,9.43-.44,1.29.79,1.59-1.51,1.51-4.71-.17-17.65-5.48-22.18-7.85-3.04-1.58-16.86-9.3-8.77-12.11,7.75-2.69,19.65-.69,26.14,4.26Z"/><path d="M2250.7,195.45c2.06-10.27,14.28-9.05,21.33-4.33,14.5,9.73-13.45,17.27-19.85,21.77-.32.1-1.48-2.32-1.48-2.46,0-4.08-.7-11.51,0-14.98Z"/><path d="M1464.92,170.97c-6.11-2.32-17.62,1.18-22.03-3.72-5.06-5.62-3.65-20.67,1.57-26.24,1.52-.36,5.3,4.4,6.3,5.67,2.95,3.74,11.71,16.64,13.38,20.59.53,1.25,1.06,2.26.78,3.71Z"/><path d="M2560.46,403.87c.59.95.26,4.79-.1,6.11-.19.71-6.16,11.96-6.89,13.08-1.81,2.81-2.46,3.13-5.42,1.73-4.93-2.33-16.42-13.41-14.31-19.44,1.31-3.75,25.64-3.24,26.73-1.49Z"/><path d="M2524.62,208.94c-7.76,3.27-22.03-11.11-24.45-17.02-2.23-5.42,4.53-14.03,9.75-12.79,4.83,1.15,17.14,27.34,14.7,29.81Z"/><path d="M2111.75,409.72c-.38-8.7,2.48-23.93,7.13-31.32,3.78-6.02,10.21,2.62,12.29,6.41,8.92,16.24-11.31,15.9-19.42,24.91Z"/><path d="M2371.04,301.45c-6.78-6.04-12.86-16.9-6.84-25.57,8.1,3.44,25.47,16.04,19.86,25.88-4.05,7.12-8.46,3.76-13.02-.31Z"/><path d="M2299.56,154.12c.48.75.15,2.22-.08,3.13-2.06,8.29-23.86,8.96-30.79,9.26-.93.04-2.91.56-2.97-1.02-.05-1.27,13.5-17.93,14.63-18.32,2.01-.7,4.35-.15,6.35.33,1.33.32,12.47,6.01,12.86,6.62Z"/><path d="M2399.51,98.19c3.59,5.61-6.63,20.53-14.87,18.38-2.93-.76-13.45-10.95-13.93-13.09-.33-1.47,1.23-2.15,2.24-2.66,4.66-2.37,15.85-5.2,20.97-4.55.78.1,5.44,1.66,5.6,1.91Z"/><path d="M1478.54,181.36c8.65,6.83,17.53,22.44,14.37,33.57-9.58-2.72-25.83-24.91-21.48-33.95,1.76-3.66,4.88-1.37,7.11.39Z"/><path d="M2467.27,252.03c4.27-1.4,20.69.36,22.85,4.85,2.54,5.28-5.53,17.25-9.73,16.83-3.13-.31-10.36-6.19-12.19-8.9-1.91-2.84-4.81-11.51-.93-12.78Z"/><path d="M2608.08,194.99c1.29-.14,15.25,4.46,17.5,5.47,1.3.59,9.24,4.99,9.56,5.44,1.98,2.83-1.54,11.64-6.02,12.1-9.83,1-17.61-6.84-20.71-15.36-.57-1.58-2.88-7.37-.33-7.64Z"/><path d="M2711.57,273.86c-6.67.2-13.34,2.09-20.04.54-2.16-3.69-7.45-21.58-4.01-24.07,1.51-1.09,2.35-.14,3.62.48,4.07,1.99,16.63,11.52,18.62,15.35,1.19,2.29,1.92,5.08,1.81,7.69Z"/><path d="M2240.01,121.74c-7.71-9.76,14.66-12.87,21.21-6.72,3.37,3.16,5.59,13.07,4.33,17.39-.58,1.97-5.8,1.26-7.35.7-1.46-.52-17.52-10.52-18.18-11.37Z"/><path d="M2062.75,442.68c-2.78.65-5.74-.98-8.27-.77-11.37.95-18.27,14.35-19.71-9.72-.32-5.45-.93-11.57,5.94-8.93,2.46.95,18.64,12.88,20.05,14.93.93,1.36,1.31,3.02,1.99,4.49Z"/><path d="M2207.5,354.08c2.14-.11,8.44-1.41,9.08,1.28.56,2.35-5.9,22.09-7.39,22.41-4.2-1.67-17.09-12.71-17.5-16.52-.76-7.11,10.72-6.91,15.81-7.16Z"/><path d="M2592.6,161c.66.67-10.39,13.81-12.45,13.92-4.74.25-13.63-7.79-16.52-11.47-4.77-6.08-3.74-8.77,4.44-8.47s16.54,3.36,24.52,6.01Z"/><path d="M1598.58,324.02c8.82-2.63,18.12,5.97,17.2,15.17-1.16,11.6-3.53,12.71-13.03,6.24-5.83-3.97-10.76-19.44-4.16-21.41Z"/><path d="M2702.18,197.34c6.82,6.48,10.56,12.3-3.04,10.51-4.43-.58-9.53-3.23-13.05-5.93-3.02-2.32-16.95-15.15-7.03-16.04,7.3-.66,17.99,6.59,23.12,11.47Z"/><path d="M1943.79,174.97c-.18,3.31.68,10.45-1.49,13-1.52,1.78-17.28,1.26-20.35.33-2.71-.82-10.12-7.51-11.15-9.84-.87-1.97,4.24-2.35,5.5-2.48,8.97-.9,18.47-.93,27.49-1.01Z"/><path d="M2722.26,233.22l12.88,13.59c1.64,5.75-4.04,13.16-10.35,10.41-1.32-.57-9.05-10.25-10.06-11.99-2.33-4.01-4.5-8.56-4.17-13.32,3.92-.04,8.03-.38,11.7,1.3Z"/><path d="M1587.63,145.27c4.36,4.11,2.91,17.52-5.14,16.72-9.3-.92-18.04-12.6-20.59-20.97,3.49.28,24.5,3.1,25.73,4.25Z"/><path d="M2467.32,313.15c1.38,1.16,5.2,7.41,5.31,9.25.05.84-2.1,7.7-2.53,8.37-1.56,2.39-12.74,2.85-14.3,1.87-.5-.31-4.82-9.81-4.97-10.57-1.64-8.3,9.75-14.61,16.49-8.92Z"/><path d="M2229.71,380.75c1.34-7.34,4.88-37.57,17.35-27.83,12.32,9.63-8.15,25.89-17.35,27.83Z"/><path d="M2560.33,136.72c-2.74,2.32-8.15.63-11.07-.85-3.06-1.55-15.87-12.22-13.21-15.91,2.55-3.54,24.35,1.37,27.59,4.54,2.8,2.74-.94,10.22-3.3,12.22Z"/><path d="M2470.64,112.04c3.73.74,7.8-.85,11.21-.73,9.29.32,22.31,8.6,13.84,18.27-7.66,8.74-27.79-14.88-25.05-17.54Z"/><path d="M2604.16,140.12c3.21-.84,8.83,4.52,11.76,6.05,3.93,2.05,7.98,3.06,11.64,5.33-5.1,3.4-10.16,11.66-16.49,11.59-12.48-.13-10.18-22.12-6.91-22.97Z"/><path d="M2610.59,103.04c8.07-3.35,36.4,10.71,21.92,18.41-4.01,2.13-8.83.6-12.59-1.24-7.72-3.78-10.72-8.42-9.32-17.17Z"/><path d="M807.11,104.05v-16.48c0-9.3,25.48.54,23.92,6.89-.86,3.5-19.56,10.99-23.92,9.59Z"/><path d="M2418.37,273.16c3.66,3.06,7.67,18.79.83,18.73-8.82-.07-17.02-2.7-17.48-12.67-.48-10.3,11.18-10.64,16.65-6.06Z"/><path d="M2930.51,151c12.22,2.38,22.73,12.35,22.07,25.48-.24,4.89-4.65,5.71-8.03,2.93-1.62-1.34-11.87-16.24-12.57-18.4-.41-1.25-1.83-9.64-1.47-10Z"/><path d="M2561.11,183.96c4.87.6,13.6,4.18,13.49,9.98-3.1.14-6.27-.28-9.37.13-12.01,1.58-27.84,12.04-22.62-10.11,5.87.51,12.77-.71,18.49,0Z"/><path d="M1687.8,226.86c-1.31,1.31-9.2-.29-10.96-2.68-2.19-2.97-7-18.06-7.01-21.79-.04-7.98,11.28-.42,13.87,3.22,2.41,3.39,6.74,18.63,4.11,21.25Z"/><path d="M2243.72,172.97c-2.32-5.39-10.46-21.11-7.09-26.29,2.37-3.65,18.59,4.03,18.78,6.8.08,1.21-4.69,13.09-5.88,14.83-.77,1.12-4.37,5.64-5.81,4.66Z"/><path d="M2664.54,167.02c1.65,1.96-5.81,10.69-6.56,10.87s-11.14-4.53-14.07-4.68c-2.81-.14-9.11,4.19-13.31-.78-1.22-4.38,13.33-10.31,16.59-10.41.9-.03,16.77,4.31,17.35,5Z"/><path d="M1636.58,229.13c13.01-2.95,17.2,8.21,9.28,17.27-1,1.15-7.63,6.38-8.51,6.31-1.41-.11-12.77-20.86-.78-23.58Z"/><path d="M2938.49,263.88c.45.34,2.87,8.72,3.83,10.66,3.51,7.1,9.66,13.69,8.17,22.3-1.05,1.19-18.55-9.63-19.47-13.85-.44-2,3.47-15.33,4.7-17.4.54-.92,1.58-2.61,2.77-1.71Z"/><path d="M2109.72,314.82c-2.4,1.74-9.35-11.01-10.04-13.43-.72-2.57-2.46-10.37.69-11.4,2.57-.84,15.24-.82,16.25,2.54,1.61,5.32-5.17,17.06-6.91,22.3Z"/><path d="M2440.65,138.02c-6.63.29-12.68-1.69-17.93-5.57-13.53-10-9.63-14.5,6.16-11.15,11.12,2.36,14,5.03,11.78,16.71Z"/><path d="M1791.83,213.93c-3.75.3-20.84-1.37-21.92-4.64-1.9-5.74,12.02-19.48,18.38-12.31,1.76,1.98,4.73,15.76,3.54,16.95Z"/><path d="M2849.23,266.07c4.38-1.31,16.7,2.28,18.76,6.81,2.28,5.01-3.83,13.75-8.91,13-3.3-.49-18.18-17.32-9.85-19.82Z"/><path d="M1655.78,162.07c1.58,1.72.73,11.58-3.41,11.94-8.08.72-23.66-13.45-33.5-12.53,0-.83,14.73-2.59,16.5-2.58,2.22,0,19.71,2.41,20.41,3.17Z"/><path d="M2598.25,124.68c-11.68,11.67-19.83-3.87-20.64-14.64,5.68.95,13.15,1.24,17.92,4.56,3.91,2.73,6.64,6.16,2.72,10.08Z"/><path d="M2396.15,192.95c-4.63-1.37,1.44-8.48,5.47-9.52,11.98-3.09,22.92,2.69,28.02,13.5l-15.5-3.99c-4.71-.87-13.99,1.19-17.99,0Z"/><path d="M2475.75,388.86c.42-.49,5.94-1.31,7.17-.96,4.19,1.2,10.91,23.52,2.99,25.68-8.44,2.29-11.7-22.9-10.16-24.72Z"/><path d="M2856.23,244.12c4.59-1.03,16.45.7,17.03,6.42.12,1.16-1.46,5.68-2.22,6.38-2.09,1.92-13.52,1.71-15.54.49-.81-.49-4.06-6.69-4.08-8.01-.03-2.78,2.25-4.7,4.81-5.28Z"/><path d="M1755.54,314.96c4.36-1.24,10.71,9.05,11.28,12.43,1.2,7.1-9.27,13.82-13.86,4.8-1.68-3.31-1.98-15.92,2.58-17.22Z"/><path d="M1483.83,102.13c.66.92.2,4.31-1.53,4.83-7.7-2.46-18.82-1.22-25.32-6.46-2.95-2.37-2.38-5.42.56-7.35,5.78-3.78,16.57,4.27,21.49,7.29,1.2.73,4.64,1.45,4.81,1.68Z"/><path d="M2226.35,211.08c3.94-.75,15.06,12.28,15.21,16.29.38,10.38-4.21,8.33-9.36,2.56-2.3-2.58-12.86-17.52-5.84-18.85Z"/><path d="M2835.52,127.03c-3.52,7.21-5.84,13.51-14.69,9.18-.82-.4-8.02-4.8-8.29-5.21-.96-1.4,1.11-2.71,2.51-2.96,6.75-1.23,13.72-.37,20.47-1.01Z"/><path d="M1679.86,310.83c11.43-2.11,17.73,9.84,9.4,17.9-5.34,1.28-8.96-13.99-9.4-17.9Z"/><path d="M2276.44,403.47c-.51.53-2.52,1.36-3.16,1.19-3.51-.94-2.66-18.16-3.59-21.91,10.88-2.37,11.02,16.28,6.74,20.72Z"/><path d="M2652.56,200.94c-2.67.73-1.86-1.63-3.44-3-1.27-1.1-3.74-3.14-5.04-4.03-1.76-1.21-5.53-.6-3.05-4.01,2.23-3.07,11.34,1.82,14.13,3l-2.59,8.03Z"/><path d="M2544.26,560.22c-5.36,5.19-9.74,1.03-12.51-4.29-1.8-3.45-8.19-21.58-5.16-23.85,5.7-4.28,24.97,3.47,26.02,11.09.4,2.89-6.18,14.95-8.35,17.06Z"/></g></svg>