<?xml version="1.0" encoding="UTF-8"?><svg id="Layer_2" xmlns="http://www.w3.org/2000/svg" viewBox="0 0 600 158.92"><defs><style>.cls-1{fill:#231f20;}</style></defs><g id="layer"><path class="cls-1" d="M32.8,25.92c-11.1-3.8-17-6.4-17-14,0-5.8,5.3-9.1,11.2-9.1,10.8,0,16.8,7.3,19.2,19.5h2.6V1.22h-2.3l-3,6.6h-.2C39.4,2.92,33.4.02,27.1.12,15.5.22,6.4,8.22,6.4,18.52c0,12.8,9.4,18,21.1,21.8,10.9,3.5,15.6,7.5,15.6,13.9,0,8.1-3.8,11.6-13.2,11.6-5.6.1-10.9-2.2-14.6-6.4-3.7-4.6-6-10.2-6.7-16.1h-2.6v24.3h2.2l3.8-7.3h.3c4.3,5.3,10.8,8.3,17.6,8.3,14.2,0,22.9-9.1,22.9-20.9s-8.3-17.8-20-21.8Z"/><path class="cls-1" d="M580,8.82c-3.9-5.7-10.4-9-17.3-8.8-19.4,0-32.4,15.8-32.4,34.4s12.4,34.4,32.2,34.4c12.8,0,22.2-6.6,25-21.7l-2.7-.8c-2.7,12.3-9.2,19.5-20.6,19.5-12.1,0-18.5-9.7-18.5-31.4s5.7-31.6,17-31.6,18,7.7,21.1,23.7h3V1.12h-1.7l-5,7.7h-.1Z"/><path class="cls-1" d="M112,8.52C108.2,2.92,101.8-.28,95.1.02,75.7.02,62.7,15.82,62.7,34.42s12.4,34.4,32.3,34.4c12.8,0,22.2-6.6,25-21.7l-2.8-.5c-3.3,12-8.5,19.1-20.6,19.1s-18.5-9.7-18.5-31.3,6-31.6,16.4-31.6c11.1,0,18,7.7,21.1,23.7h2.5V1.12h-2.3l-3.6,7.4h-.2Z"/><polygon class="cls-1" points="159.8 64.72 149.9 64.72 149.9 3.72 159.8 3.72 159.8 1.02 126.2 1.02 126.2 3.72 136.1 3.72 136.1 64.72 126.2 64.72 126.2 67.42 159.8 67.42 159.8 64.72"/><polygon class="cls-1" points="384.7 64.72 384.7 67.42 418.2 67.42 418.2 64.72 408.3 64.72 408.3 3.72 418.2 3.72 418.2 1.02 384.7 1.02 384.7 3.72 394.5 3.72 394.5 64.72 384.7 64.72"/><polygon class="cls-1" points="490.7 3.72 500.6 3.72 500.6 64.72 490.7 64.72 490.7 67.42 524.2 67.42 524.2 64.72 514.4 64.72 514.4 3.72 524.2 3.72 524.2 1.02 490.7 1.02 490.7 3.72"/><path class="cls-1" d="M230.1,42.72h-1.5c-1.7,6.3-4.6,12.1-8.7,17.2-3.8,4.3-7.4,4.7-14.4,4.7h-10.5v-29.1h5c3.1-.3,6.2.7,8.6,2.8,2.7,3,4.1,7,4,11h1.8v-30.3h-1.8c-.1,4-1.5,7.9-4,11-1.8,2-4.7,2.7-8.5,2.7h-5V3.72h11.9c5.6,0,9.4,1.4,11.7,3.6,3.9,3.3,6.5,7.8,8.9,16.4h1.6V1.02h-57.8v2.7h9.9v61h-9.9v2.7h58.8v-24.7h-.1Z"/><path class="cls-1" d="M254.5,11.12l41.8,56.3h4.3V9.42c0-3.8,1.6-5.7,4.9-5.7h4.3V1.02h-22v2.7h4.5c3.4,0,5,2,5,5.7v37.4h-.3L263.8,1.12h-25v2.7h2.8c2.8-.3,5.6.8,7.5,2.8,1.3,1.1,2,2.6,2,4.2v47.9c0,3.6-1.5,6-4.9,6h-5.1v2.7h23.8v-2.7h-5.6c-3.3,0-4.9-2.6-4.9-6l.1-47.6h0Z"/><path class="cls-1" d="M326.7,7.82c2.4-2.6,5.9-4.1,9.5-4h2.3v60.8h-10.1v2.7h34v-2.7h-10.1V3.82h1.9c3.7-.2,7.4,1.2,10,3.8,3.8,3.6,6.1,9.1,8.2,17.4h2.6V1.02h-59.1v23.8h2.6c2.1-8.2,4.4-13.3,8.2-17Z"/><path class="cls-1" d="M427.9,64.72v2.7h33.7v-2.7h-10v-29.5h4.2c2.9-.2,5.7.9,7.7,2.8,2.8,3,4.3,7,4.2,11.1h2.9v-30.5h-2.9c0,3.9-1.4,7.6-3.8,10.7-2.1,2.2-5.1,3.4-8.2,3.2h-4.2V3.72h9.7c5.8,0,9.4,1.2,12.2,4.1,2.9,2.8,5.8,7.7,8.3,16.2h2.5V1.12h-56.3v2.6h9.9v61h-9.9Z"/><path class="cls-1" d="M407.3,155.52c-3.8.1-7.5-.8-10.8-2.5-6.7-4.2-10-13.6-10-28.9s2.9-24.1,8.6-28.4c3.2-2.1,6.9-3.2,10.8-3.1,10.6,0,21.6,6.8,24.5,23.7h2.7v-25.4h-2.3l-4.7,8.2h-.2c-3.2-4.7-11.7-9.4-20.2-9.4-19,0-34.5,15.3-34.7,34.4,0,18.6,14.4,34.4,35.8,34.4,12.8,0,24.1-6.6,26.9-21.7l-2.9-.8c-2.5,12.4-10.2,19.5-23.5,19.5Z"/><polygon class="cls-1" points="328.5 93.92 338.6 93.92 338.6 154.92 328.5 154.92 328.5 157.52 362.5 157.52 362.5 154.92 352.4 154.92 352.4 93.92 362.5 93.92 362.5 91.32 328.5 91.32 328.5 93.92"/><path class="cls-1" d="M561.4,93.92h5.5c3.4,0,4.9,2,4.9,5.7v37.8h-.3l-36.3-46.1h-24.5v2.7h2.7c2.6-.2,5.2.8,7,2.6,1.3,1.1,2,2.7,2.1,4.4v47.9c0,3.6-1.5,6-4.9,6h-5.6v2.7h24.3v-2.7h-5.6c-3.3,0-4.9-2.6-4.9-6v-47.6h.2l44.9,56.9h4.3v-58.7c0-3.8,1.6-5.7,5-5.7h5.4v-2.5h-24.1c-.1,0-.1,2.6-.1,2.6Z"/><path class="cls-1" d="M221.9,149.12c-3.8,4.3-8.2,5.7-15.2,5.7h-11.7v-29.2h5.1c3.1-.3,6.2.7,8.6,2.8,2.7,3,4.1,7,4,11.1h2.9v-30.5h-2.8c0,4-1.5,8-4,11.1-1.8,2-4.7,2.7-8.5,2.7h-5.1v-28.9h12.5c4.3-.3,8.6,1,12,3.7,3.9,3.3,6.6,7.8,9,16.4h2.6v-22.8h-60v2.7h9.9v61h-10.2v2.7h61.4v-24.6h-1.5c-1.7,6-4.8,11.5-9,16.1Z"/><path class="cls-1" d="M119.4,136.92h-.8l-18.8-45.6h-26.6v2.7h10.7v54.7c0,3.8-1.6,6.2-5,6.3h-5.7v2.7h24.7v-2.7h-5.7c-3.3,0-4.9-2.6-4.9-6.3v-52.2h.3l24.5,61.3h2.7l22.1-61.3h.3v58.4h-10v2.7h34v-2.7h-10.2v-61h10.3v-2.6h-25.6l-16.3,45.6Z"/><path class="cls-1" d="M270.4,93.92h10.3c2.7-.1,5.4.5,7.9,1.6,3.9,2.2,5.3,6.3,5.3,12s-1.4,10.1-4.9,12.5c-2.3,1.3-5,1.9-7.6,1.8h-11s0-27.9,0-27.9ZM312.3,154.12c-2.3.3-4.5-1.3-4.9-3.6v-.1c-.7-3.3-1.1-6.7-1.4-10.1-1-10.2-7.5-14.3-16.9-16.1v-.2c11.7-1,18.9-7,18.9-16.4,0-10.2-7.6-16.3-24.5-16.3h-37.1v2.7h10.1v61h-10.1v2.7h33.8v-2.7h-9.8v-30.2h10.5c6.3,0,10.2,2.7,10.5,10.1,0,.6.4,8,.4,8.6.5,10.7,6.4,15.4,14.5,15.4,10.3,0,14.4-4.7,14.5-14.5h-2.9c.1,6.7-2.1,9.7-5.6,9.7Z"/><path class="cls-1" d="M19.1,134.12l9.7-25.8h.3l9.4,25.8h-19.4ZM64.2,154.92c-3,0-4-1.7-5.2-5.1l-22-58.7h-4.8l-21.6,56.5c-1.9,4.5-3.2,7.2-7.4,7.2H0v2.7h21.3v-2.7h-4.5c-4.2,0-4.3-3.3-2.7-7.5l4-10.5h21.4l4.8,13.3c.9,2.8,1.3,4.7-2,4.7h-5.1v2.7h31.6v-2.7c0,.1-4.6.1-4.6.1Z"/><path class="cls-1" d="M456.5,134.12l9.7-25.8h.3l9.4,25.8h-19.4ZM501.5,154.92c-3,0-4-1.7-5.2-5.1l-22-58.7h-4.7l-21.5,56.5c-1.8,4.6-3.2,7.2-7.4,7.2h-3.2v2.7h21.3v-2.7h-4.6c-4.2,0-4.2-3.3-2.7-7.5l3.9-10.5h21.4l4.8,13.3c.9,2.8,1.3,4.7-2,4.7h-5.2v2.7h31.8v-2.7h-4.7v.1Z"/><path class="cls-1" d="M590.4,158.82c-1.3,0-2.6-.2-3.9-.7-1.1-.5-2.2-1.1-3-2-.9-.9-1.5-1.9-2-3.1s-.7-2.5-.8-3.8c0-1.3.2-2.5.7-3.7.4-1.1,1.1-2.2,1.9-3.1.9-.9,1.9-1.6,3.1-2.1,1.3-.5,2.6-.8,4-.8,1.3,0,2.6.2,3.8.8,1.1.5,2.2,1.2,3.1,2,.9.9,1.5,1.9,2,3.1s.7,2.5.7,3.8-.2,2.6-.7,3.8c-.9,2.3-2.7,4.2-5,5.1-1.2.5-2.5.7-3.9.7ZM590.4,156.92c1.1,0,2.2-.2,3.2-.6.9-.4,1.7-.9,2.3-1.6.7-.7,1.2-1.5,1.6-2.5.4-1,.6-2.1.6-3.1s-.2-2-.6-3c-.4-.9-.9-1.8-1.6-2.5-.7-.7-1.5-1.3-2.3-1.7-1-.4-2.1-.6-3.2-.6s-2.2.2-3.2.6c-.9.4-1.7.9-2.3,1.6-.7.7-1.2,1.5-1.6,2.5-.7,2-.7,4.2,0,6.1s2.2,3.4,4,4.2c1,.4,2,.6,3.1.6ZM587.1,144.12h4.1c.8,0,1.7.2,2.3.7s.9,1.3.8,2c.1,1.4-.8,2.6-2.1,3v.1l2.7,4.1v.1h-2.3l-2.7-4.2h-.8v4.2h-2.1l.1-10h0ZM590.7,148.52c.7.1,1.4-.4,1.6-1.1v-.4c0-.4-.1-.7-.5-.9-.3-.2-.7-.3-1.1-.3h-1.7v2.7h1.7Z"/></g></svg>