<?xml version="1.0" encoding="UTF-8"?><svg id="Layer_2" xmlns="http://www.w3.org/2000/svg" viewBox="0 0 49.82 22.03"><defs><style>.cls-1{fill:#b5b580;}.cls-2{fill:#c34439;}</style></defs><g id="fonts"><path class="cls-1" d="M48.91,17.76h.9c-.15,2.78-1.51,4.17-4.1,4.17-1.11,0-1.98-.29-2.62-.88s-1.06-1.46-1.26-2.61c-1.63,1.16-3.11,2.03-4.45,2.61s-2.54.88-3.6.88c-1.35,0-2.51-.39-3.49-1.17s-1.46-1.81-1.46-3.1c0-1.68.82-3.14,2.45-4.39s3.89-2.47,6.77-3.66l3.78-1.54v-.98c0-1.38-.09-2.38-.27-3s-.64-1.17-1.39-1.66-1.73-.73-2.95-.73c-2.44,0-3.8.81-4.08,2.44-.26,1.66-.94,2.49-2.05,2.49-.99,0-1.49-.47-1.49-1.42s.66-1.92,1.98-2.99,3.37-1.6,6.15-1.6c2.07,0,3.67.33,4.81.98s1.89,1.39,2.26,2.22.55,2.1.55,3.81v8.08c0,1.89.1,3.1.29,3.64s.62.81,1.27.81c1.07,0,1.74-.8,2-2.39ZM41.83,9.22l-2.66,1.07c-4.2,1.71-6.3,3.86-6.3,6.44,0,1.02.27,1.85.81,2.48s1.24.94,2.1.94c.76,0,1.65-.25,2.66-.76s2.14-1.26,3.39-2.27v-7.91Z"/><path class="cls-2" d="M31.08,6.64c1.11,0,1.79-.83,2.05-2.49.14-.8.54-1.4,1.2-1.8V1c-1.12.27-2.05.67-2.76,1.24-1.32,1.07-1.98,2.06-1.98,2.99s.5,1.42,1.49,1.42Z"/><path class="cls-2" d="M32.89,16.74c0,1.02.27,1.85.81,2.48s1.24.94,2.1.94c.76,0,1.65-.25,2.66-.76s2.14-1.26,3.39-2.27v-7.91l-2.66,1.07c-4.2,1.71-6.3,3.86-6.3,6.44Z"/><path class="cls-2" d="M46.91,20.17c-.1,0-.16-.05-.25-.06v1.77c1.98-.31,3.03-1.68,3.16-4.1h-.9c-.26,1.59-.93,2.39-2,2.39Z"/><path class="cls-2" d="M16.13,19.23c.8,0,1.5-.4,1.75-.75.2-.25.3-.35.5-.2l.5.4c.15.15.25.4-.05.9-.4.75-1.35,2.45-3.9,2.45-1.8,0-3.1-1.3-3.55-3.35h-.1c-1.05,1.25-2.7,2.3-4.94,3.05-.95.3-1.85.3-2.95.3-1.2,0-3-1-3-4.15,0-2.3,1.05-4.3,5-6.04,2.25-1,4.84-2.2,5.64-2.9v-3.2c-.1-.85-.15-2.15-.7-2.8-.55-.65-1.55-1.1-3-1.1-1,0-2.55.4-3.25,1.05-.7.65-.25,1.4-.25,2.3,0,1.75-.6,2.85-2.65,2.85-.8,0-1.2-.45-1.2-1.6,0-1.6,1.4-3.5,3.45-4.7C5.54.5,7.29,0,9.54,0s3.3.7,4,1.35c1.05,1.05,1.1,2.2,1.1,3.55v10.59c0,2.85.6,3.75,1.5,3.75ZM10.99,10.44c-1.8,1.35-6.69,2.35-6.69,6.49,0,1.85,1.1,2.75,2.6,2.75s4.1-1.75,4.1-3.1v-6.14Z"/><path class="cls-1" d="M6.89,19.68c1.45,0,4.1-1.75,4.1-3.1v-6.14c-1.8,1.35-6.69,2.35-6.69,6.49,0,1.85,1.1,2.75,2.6,2.75Z"/><path class="cls-1" d="M18.4,18.25c-.2-.15-.3-.05-.5.2-.25.35-.95.75-1.75.75-.15,0-.29-.04-.43-.09v2.83c1.97-.3,2.77-1.72,3.12-2.38.3-.5.2-.75.05-.9l-.5-.4Z"/><path class="cls-1" d="M1.2,8.02c2.05,0,2.65-1.1,2.65-2.85,0-.9-.45-1.65.25-2.3.28-.26.7-.46,1.16-.63V.82c-.59.25-1.18.53-1.81.91C1.4,2.93,0,4.83,0,6.43,0,7.58.4,8.02,1.2,8.02Z"/></g></svg>