<?xml version="1.0" encoding="UTF-8"?><svg id="Layer_2" xmlns="http://www.w3.org/2000/svg" viewBox="0 0 55.05 35.02"><defs><style>.cls-1{fill:#b5b580;}.cls-2{fill:#c34439;}</style></defs><g id="fonts"><path class="cls-1" d="M48.37,3.21c1.38-1.56,2.78-2.34,4.2-2.34.78,0,1.39.21,1.82.63s.65.89.65,1.39c0,1.07-.49,1.61-1.46,1.61-.54,0-1-.33-1.39-1-.36-.62-.73-.93-1.12-.93-.62,0-1.3.42-2.05,1.27.85,1.33,1.27,2.75,1.27,4.25,0,1.95-.7,3.68-2.1,5.17-1.4,1.51-3.76,2.33-7.08,2.44-3.45.11-5.17.81-5.17,2.1,0,.6.39,1.02,1.17,1.27.76.26,2.37.46,4.83.59,2.68.13,4.75.38,6.2.74,1.45.37,2.6,1.1,3.46,2.21s1.29,2.42,1.29,3.95c0,2.15-.88,3.88-2.64,5.2s-4.29,1.98-7.59,1.98c-3.03,0-5.45-.59-7.27-1.76s-2.73-2.65-2.73-4.44c0-.99.26-1.81.78-2.44s1.26-.95,2.22-.95c.26,0,.5.04.71.12-1.01,1.11-1.51,2.28-1.51,3.51,0,1.43.67,2.61,2.01,3.55s3.35,1.4,6.01,1.4c2.37,0,4.23-.48,5.55-1.43s1.99-2.17,1.99-3.65c0-1.63-.59-2.77-1.78-3.44-1.19-.65-3.3-1.04-6.34-1.17-3.5-.15-5.77-.58-6.81-1.29-1.04-.7-1.56-1.6-1.56-2.71,0-2.13,1.49-3.47,4.47-4.03-1.55-.91-2.71-1.95-3.49-3.12s-1.17-2.48-1.17-3.93c0-2.03.8-3.76,2.4-5.18,1.6-1.42,3.5-2.13,5.7-2.13,2.72,0,4.9.85,6.54,2.56ZM37.39,8.53c0,2.1.43,3.64,1.29,4.61s1.96,1.46,3.29,1.46c1.24,0,2.3-.48,3.18-1.45s1.33-2.65,1.33-5.04-.47-4.07-1.42-4.98-2.01-1.37-3.2-1.37c-1.5,0-2.62.56-3.37,1.68s-1.12,2.81-1.12,5.08Z"/><path class="cls-2" d="M35.06,26.48c.23-.75.65-1.48,1.29-2.18-.21-.08-.45-.12-.71-.12-.96,0-1.7.32-2.22.95-.18.22-.28.48-.4.74l2.04.61Z"/><path class="cls-2" d="M55.05,2.88c0-.5-.22-.97-.65-1.39s-1.04-.63-1.82-.63c-1.41,0-2.8.78-4.18,2.33l.61.66s0-.01.01-.01c.75-.85,1.43-1.27,2.05-1.27.39,0,.76.31,1.12.93.39.67.85,1,1.39,1,.98,0,1.46-.54,1.46-1.61Z"/><path class="cls-2" d="M2.55,33.43c-1.8-1.1-2.55-2.4-2.55-4.05,0-2.8,2.85-4.95,5.25-5.99v-.2c-2.1-.45-3.35-2-3.35-3.5,0-2.4,2.75-4.1,4.5-4.75v-.1c-1.95-.85-4.65-3.15-4.65-7.59C1.75,4,4.65,0,10.29,0c3.8,0,5.8,2.3,6.3,2.9,1.35-.95,3.05-1.95,4.7-1.95s2.45,1.1,2.35,2.1c0,.95-.8,1.85-1.95,1.85-.85,0-1.35-.4-1.75-.75-.3-.2-.65-.45-1.05-.45-.35,0-.95,0-1.6.3.4,1,.75,2.1.75,3.8,0,1.95-.55,3.85-1.85,5.4-1.3,1.45-4.15,2.5-5.8,2.5-1.1,0-1.8-.05-2.55-.25-1,.4-2.65,1.4-2.65,2.8,0,2.05,2.5,1.9,5.85,1.7,4.1-.2,6.59.25,8.59,1.8,2.15,1.6,2.4,3.6,2.45,4.8,0,2.35-.85,4.3-3.35,6.15-1.3.95-4.3,2.35-8.54,2.35-2.4,0-5.25-.25-7.64-1.6ZM19.04,28.28c0-2.95-2.25-5.2-7.25-4.85l-4.8.35c-1.55.4-4,2.1-4,4.8,0,1.25.95,2.75,1.95,3.45,1.65,1.15,3.45,1.4,7,1.4,1.85,0,7.34-1.3,7.09-5.15ZM14.39,7c0-2.2-.45-3.5-1.35-4.5-.65-.65-1.65-1.1-2.4-1.1-1.15,0-2.35.2-3.55,1.4-1.6,1.7-1.8,4-1.8,5.9,0,1.7.55,3.25,1.6,4.35.9.85,1.8,1.25,3,1.25,3.4,0,4.5-4.15,4.5-7.29Z"/><path class="cls-1" d="M3.57,26.45c.81-1.46,2.33-2.4,3.42-2.68h.05s-1.8-.54-1.8-.54v.14c-1.25.55-2.62,1.4-3.65,2.49l1.98.59Z"/><path class="cls-1" d="M17.31,4.02s0,0,0,0c.65-.3,1.25-.3,1.6-.3.4,0,.75.25,1.05.45.4.35.9.75,1.75.75,1.15,0,1.95-.9,1.95-1.85.1-1-.7-2.1-2.35-2.1s-3.34.99-4.68,1.94l.68,1.11Z"/></g></svg>