<?xml version="1.0" encoding="UTF-8"?><svg id="Layer_2" xmlns="http://www.w3.org/2000/svg" viewBox="0 0 97.44 48.34"><defs><style>.cls-1{fill:#b4b480;}.cls-2{fill:#c34439;}</style></defs><g id="fonts"><path class="cls-2" d="M31.15,5.36c3.4,3.55,4.9,8.1,4.8,12.6.1,5.35-2.15,10.2-5.15,13.15-2.95,2.95-5.55,4.35-8.7,5.4v.2c5.15,1.9,9.35,2.9,12.8,3.65,12.65,2.85,14.6,2.3,15.55,2.3,1.4,0,2.5-.65,3.1-1.1.15-.15.3-.25.45-.05l.35.5c.1.15.05.35-.15.5-.65.65-3.9,4.05-6.7,4.05-1.5,0-4.6-.1-13.35-2.35-5-1.25-12.25-3.9-19.2-7.15-1-.35-5.5-1.1-10.1-6-2.7-2.75-4.85-7.2-4.85-13.2,0-4.8,2.1-9.7,5.75-13.05C9.6,1.31,15.05-.1,17.7,0c5.85-.1,10.35,2.1,13.45,5.35ZM30.95,19.51c0-6-1.65-10.95-4.3-13.45-3.05-2.9-5.6-4.25-9.25-4.25-2.3,0-5.2.45-8,3.25-3.3,3.3-4.35,8.25-4.35,12.4,0,6.7,2.9,11.55,5.35,13.9,3.8,3.6,6.35,3.95,7.75,3.95,10.1,0,12.8-11.55,12.8-15.8Z"/><path class="cls-1" d="M54.35,42.01l-.35-.5c-.15-.2-.3-.1-.45.05-.6.45-1.7,1.1-3.1,1.1-.95,0-2.9.55-15.55-2.3-3.45-.75-7.65-1.75-12.8-3.65v-.19c-1.75.69-3.42.82-4.86.78-.87-.02-1.68-.13-2.45-.29.06.02.12.04.16.05,6.95,3.25,14.2,5.9,19.2,7.15,8.75,2.25,11.85,2.35,13.35,2.35,2.8,0,6.05-3.4,6.7-4.05.2-.15.25-.35.15-.5Z"/><path class="cls-2" d="M96.41,40.77c-.55,2.21-2.29,3.32-5.22,3.32-2.12,0-4.98-.63-8.59-1.88-4.7-1.63-8.86-2.44-12.48-2.44-.37,0-.81.02-1.32.07l7.23-3.99c-1.35.41-2.79.7-4.34.82.15-.01.31-.02.45-.03l-4.52,2.59c-.41.23-.81.44-1.22.63-1.94.94-3.25,1.63-3.96,2.06-.7.43-1.05.85-1.05,1.26,0,.54.29.81.88.81.37,0,1.05-.41,2.03-1.22,1.46-1.24,2.98-1.86,4.54-1.86,2.6,0,5.86,1.25,9.77,3.74,2.18,1.38,3.95,2.34,5.31,2.88,1.36.54,2.87.81,4.53.81,2.52,0,4.58-.7,6.18-2.1,1.59-1.4,2.53-3.22,2.81-5.47h-1.03Z"/><path class="cls-1" d="M63.04,35.77c2,.65,4.2.99,6.6,1,.62,0,1.23-.03,1.83-.07.07,0,.15-.01.22-.02,1.54-.13,2.98-.41,4.34-.82l.07-.04c1.27-.4,2.43-.91,3.5-1.51.12-.07.25-.13.37-.2.03-.02.05-.04.08-.05.94-.59,1.81-1.27,2.62-2.04.7-.67,1.31-1.39,1.86-2.15.05-.07.1-.13.14-.19,1.44-2.14,2.35-4.51,2.74-7.12.03-.18.05-.36.07-.54.03-.28.06-.56.09-.84.04-.53.07-1.06.07-1.6s-.03-1.03-.06-1.54c-.02-.28-.04-.55-.07-.83,0-.04-.01-.07-.01-.11-.29-2.32-.99-4.47-2.12-6.47-.26-.47-.56-.91-.86-1.34-.6-.8-1.28-1.55-2.05-2.24-.86-.76-1.78-1.43-2.75-2.01-.33-.18-.67-.36-1.02-.52-2.49-1.16-5.06-1.83-7.7-2.01-.48-.03-.96-.06-1.46-.06-4.75,0-8.75,1.35-12.04,4.02-.26.21-.52.41-.77.63-3.41,3.1-5.12,7.2-5.12,12.29s1.68,9.45,5.05,12.62c1.84,1.73,3.97,2.98,6.38,3.76ZM60.39,7.68c2.12-2.68,5.18-4.02,9.17-4.02s7.15,1.37,9.28,4.11c2.13,2.74,3.2,6.69,3.2,11.83s-1.08,9.27-3.25,11.94c-2.17,2.67-5.11,4-8.84,4-4.25,0-7.43-1.33-9.56-4-2.12-2.67-3.19-6.67-3.19-11.99s1.06-9.2,3.19-11.88Z"/></g></svg>