<?xml version="1.0" encoding="UTF-8"?><svg id="Layer_2" xmlns="http://www.w3.org/2000/svg" viewBox="0 0 87.02 35.7"><defs><style>.cls-1{fill:#c24438;}.cls-2{fill:#b5b580;}</style></defs><g id="fonts"><path class="cls-1" d="M4.95,15.85c0-3.1-.1-9.85-.1-10.65,0-2.55-.35-3.25-2.2-3.25H.3c-.25,0-.3-.1-.3-.4V.35c0-.25.15-.35.4-.35,1,0,2.6.15,7,.15,3.9,0,5.7-.15,6.65-.15.35,0,.5.05.5.25v1.3c0,.3-.1.4-.4.4h-2.55c-1.7,0-1.95.85-1.95,2.85,0,.7-.1,7.3-.1,10.1v.85c0,.25.15.4.6.4h18.5c.75,0,1-.1,1-.75v-.5c0-2.85-.15-9.8-.15-10.4,0-1.6-.2-2.55-1.65-2.55h-2.6c-.25,0-.35-.1-.35-.35V.3c0-.2.05-.3.3-.3,1.05,0,3.2.15,6.6.15s5.45-.15,6.4-.15c.35,0,.4.1.4.4v1.2c0,.3-.1.35-.4.35h-2.25c-1.45,0-1.6.85-1.6,2.65,0,.7-.1,9.15-.1,11v1.7c0,1.6.1,11.1.15,13.95,0,1.8.5,2.5,2,2.5h2.2c.35,0,.45.1.45.35v1.2c0,.3-.1.4-.4.4-.95,0-2.65-.15-6.3-.15-4.35,0-5.95.15-7.45.15-.2,0-.3-.15-.3-.35v-1.25c0-.25.1-.35.4-.35h3.15c1.2,0,1.35-.95,1.35-2.3.05-2.35.15-10.4.15-12.2v-.7c0-.55-.25-.6-1.1-.6H10.25c-.55,0-.7.15-.7.5v1.05c0,1.35.05,9.05.1,12.55.05,1.2.55,1.7,1.6,1.7h2.45c.3,0,.4.1.4.35v1.25c0,.25-.1.35-.4.35-.95,0-2.7-.15-6.3-.15-4.3,0-5.8.15-6.95.15-.25,0-.35-.1-.35-.35v-1.3c0-.2.15-.3.35-.3h2.95c1.25,0,1.4-1.2,1.4-2.4.05-2.35.15-12.05.15-13.35v-2.15Z"/><path class="cls-2" d="M77.28,18.95h-17.29v7.98c0,2.6.06,4.31.2,5.12.13.81.46,1.4.99,1.79.53.39,1.53.59,3.01.59h.85v1.12h-14.89v-1.12h.85c1.42,0,2.4-.18,2.94-.54.54-.36.89-.92,1.05-1.67.16-.76.23-2.52.23-5.29V10.7c0-2.64-.08-4.34-.23-5.1-.15-.76-.48-1.29-.98-1.59-.5-.29-1.58-.44-3.26-.44h-.61v-1.12h14.89v1.12h-.61c-1.61,0-2.67.13-3.17.4-.5.27-.84.77-1.01,1.5-.17.73-.26,2.47-.26,5.22v6.57h17.29v-6.57c0-2.64-.07-4.34-.22-5.1-.15-.76-.47-1.29-.96-1.59-.5-.29-1.58-.44-3.26-.44h-.88v-1.12h15.06v1.12h-.49c-1.63,0-2.69.13-3.2.4-.5.27-.84.77-1.01,1.5-.17.73-.26,2.47-.26,5.22v16.24c0,2.6.06,4.31.18,5.12.12.81.45,1.4.99,1.79s1.55.59,3.03.59h.76v1.12h-15.06v-1.12h1.15c1.4,0,2.37-.18,2.92-.54.54-.36.89-.92,1.04-1.67s.22-2.52.22-5.29v-7.98Z"/></g></svg>