<?xml version="1.0" encoding="UTF-8"?><svg id="Layer_2" xmlns="http://www.w3.org/2000/svg" viewBox="0 0 54.01 22.26"><defs><style>.cls-1{fill:#c24438;}.cls-2{fill:#b5b580;}</style></defs><g id="fonts"><path class="cls-1" d="M2.75,18.6C.45,15.85,0,14,0,10.45,0,7.9,1.35,4.7,4.3,2.4,6.9.4,9.35,0,11,0c2.75,0,5.5,1.4,7,2.9,2.25,2.3,3.4,4.9,3.4,8.15,0,5.45-4.9,11-11.05,11-2.4,0-5.5-.95-7.6-3.45ZM17.2,10.55c0-5.55-4.05-9.05-6.6-9.05-1.35,0-2.65.3-3.85,1.6-1.95,2-2.65,4.05-2.65,7.85,0,2.8.3,4.7,1.9,7,1.15,1.65,2.6,2.6,4.95,2.6,3.8,0,6.25-4.65,6.25-10Z"/><path class="cls-2" d="M32.7,11.42c0-3.06,1.03-5.62,3.08-7.68s4.57-3.09,7.57-3.09,5.54,1.03,7.59,3.1c2.05,2.07,3.08,4.62,3.08,7.67,0,3.37-1.04,6.02-3.12,7.95-2.08,1.93-4.6,2.89-7.54,2.89s-5.46-.98-7.53-2.94c-2.08-1.96-3.11-4.59-3.11-7.9ZM36.75,11.54c0,3.55.58,6.04,1.73,7.46,1.16,1.42,2.77,2.14,4.86,2.14s3.76-.71,4.89-2.14c1.13-1.42,1.7-3.91,1.7-7.46s-.56-6.02-1.68-7.52c-1.12-1.5-2.76-2.25-4.91-2.25s-3.76.75-4.89,2.23c-1.13,1.49-1.7,4-1.7,7.53Z"/></g></svg>