<?xml version="1.0" encoding="UTF-8"?><svg id="Layer_2" xmlns="http://www.w3.org/2000/svg" viewBox="0 0 47.12 22.26"><defs><style>.cls-1{fill:#c24438;}.cls-2{fill:#b5b580;}</style></defs><g id="fonts"><path class="cls-1" d="M3.9,8.15c-.1.45-.15,1.25-.15,2.4,0,4.9,3.1,8.6,7.1,8.6,3.05,0,5.2-1.75,6.05-3.4.1-.2.3-.3.45-.25l.65.35c.15.05.25.2,0,.75-.9,2-3.5,5.45-7.95,5.45-2.85,0-6-.85-7.85-3.55C.45,15.95,0,14.1,0,10.6c0-1.95.5-5.3,3.15-7.95C5.3.45,7.8,0,10.3,0c5.75,0,7.35,5.4,7.35,7.35,0,.7-.6.8-1.4.8H3.9ZM11.85,6.65c.95,0,1.35-.25,1.35-.7,0-1.15-.6-4.45-3.85-4.45-2.2,0-4.3,1.45-5.25,5.15h7.75Z"/><path class="cls-2" d="M47.12,8.22h-13.94c-.07.96-.1,1.68-.1,2.15,0,3.52.55,6.16,1.65,7.92,1.1,1.77,2.74,2.65,4.92,2.65,2.96,0,5.06-1.33,6.3-3.98h1.17c-.52,1.66-1.55,2.96-3.1,3.89-1.55.94-3.23,1.4-5.05,1.4-1.69,0-3.29-.43-4.8-1.28-1.51-.85-2.74-2.06-3.7-3.63-.96-1.56-1.44-3.46-1.44-5.69,0-3.16.93-5.78,2.78-7.87s4.17-3.14,6.96-3.14c2.62,0,4.65.8,6.08,2.39,1.43,1.6,2.19,3.32,2.27,5.18ZM42.84,7.24c.05-.37.07-.71.07-1,0-1.43-.42-2.54-1.26-3.33-.84-.79-1.87-1.18-3.09-1.18-2.96,0-4.73,1.84-5.3,5.52h9.57Z"/></g></svg>