<?xml version="1.0" encoding="UTF-8"?><svg id="Layer_2" xmlns="http://www.w3.org/2000/svg" viewBox="0 0 2146.41 696.56"><defs><style>.cls-1{font-family:HelveticaNeue-Medium, 'Helvetica Neue';font-size:75.84px;font-weight:500;letter-spacing:-.01em;}.cls-1,.cls-2{fill:#f9f4e7;}</style></defs><g id="artwork"><path class="cls-2" d="M1183.13,187.33c12.53,1.07,23.58,2.06,34.65,2.94,21.05,1.67,42.11,3.14,63.15,4.93,18.37,1.56,36.81,2.81,55.05,5.38,13.59,1.91,27,5.4,40.34,8.79,6.16,1.56,10.18,12.09,7.17,17.74-.77,1.44-3.44,2.65-5.22,2.64-5.97-.04-12-.28-17.9-1.17-18.71-2.82-37.31-6.33-56.06-8.87-15.64-2.12-31.39-3.48-47.13-4.79-21.7-1.82-43.43-3.42-65.16-4.82-8.64-.56-17.33-.46-25.99-.32-1.71.03-3.86,1.19-5.01,2.52-15.92,18.38-31.89,36.73-47.47,55.4-11.51,13.8-22.6,27.97-33.62,42.17-3.66,4.71-6.6,9.98-9.74,15.08-.79,1.27-1.08,2.85-1.6,4.29.4.42.81.84,1.21,1.26,5.55-3.02,11.28-5.74,16.61-9.11,19.84-12.58,39.51-25.41,59.29-38.06,15-9.59,31.44-15.91,48.47-20.78,6.47-1.85,10.41.2,13.22,6.36,4,8.77,3.3,15.16-4.04,21.63-15.6,13.77-31.92,26.74-47.42,40.62-13.63,12.21-26.67,25.09-39.71,37.93-7.84,7.72-12.84,17.4-16.85,27.53-6.72,16.98,4.87,34.69,23.22,34.55,13.76-.11,27.62-1.01,41.24-2.91,17.9-2.49,35.73-5.81,53.39-9.68,20.92-4.58,41.5-10.74,62.46-15.12,30.06-6.28,60.27-11.85,90.51-17.2,24.51-4.33,49.12-8.14,73.76-11.71,17.24-2.5,34.59-4.31,51.91-6.25,32.45-3.64,65.03-5.21,97.65-4.73,20.78.3,41.56,1.54,62.3,3.05,19.71,1.43,39.4,3.38,59.02,5.76,38.3,4.65,76.28,11.05,113.42,21.93,18.34,5.38,37.2,9.1,55.3,15.12,30.62,10.18,61.21,20.66,91.1,32.76,30.54,12.36,59.62,28.02,88.1,44.7,20.68,12.11,41.61,23.8,62.33,35.85,5.02,2.92,9.75,6.38,14.43,9.85,8.03,5.95,8.98,12.44,3.13,20.59-1.23,1.71-2.89,3.12-4.52,4.84-1.63-1.2-3.03-2.1-4.26-3.17-19.06-16.65-40.72-29.43-62.64-41.75-14.5-8.14-29.01-16.35-44.01-23.49-37.88-18.02-76.42-34.53-116.6-46.84-21.44-6.57-42.82-13.47-64.56-18.92-25.77-6.46-51.75-12.26-77.89-17-26.77-4.86-53.81-8.32-80.79-11.96-21.58-2.91-43.2-5.79-64.89-7.58-26.91-2.22-53.86-1.07-80.75,1.38-14.89,1.36-29.88,1.76-44.76,3.2-17.37,1.68-34.74,3.54-51.98,6.2-22.81,3.52-45.56,7.56-68.21,11.97-32.14,6.26-64.21,12.9-96.24,19.7-25.03,5.31-49.83,11.82-74.98,16.47-21.19,3.92-42.78,5.69-64.12,8.89-18.83,2.82-31.49-6.86-42.43-20.05-11.25-13.56-14.53-29.03-10.67-46.34,3.94-17.7,14.71-31.51,24.87-45.69,4.55-6.35,9.64-12.31,14.43-18.48.95-1.22,1.66-2.63,2.48-3.94-.36-.49-.72-.99-1.08-1.48-2.31,1.12-4.72,2.09-6.92,3.4-20.77,12.29-38.9,28-56.57,44.25-13.61,12.52-26.89,25.39-40.47,37.95-3.64,3.37-7.67,6.39-11.83,9.09-3.77,2.44-8.14,2.45-11.7-.39-3.7-2.95-4.88-7.45-3.39-11.79,2.56-7.5,5.49-14.91,8.87-22.08,2.76-5.85,6.45-11.25,9.61-16.92.83-1.49,1.24-3.22,2.28-6.01-2.19.93-3.24,1.21-4.11,1.76-32.42,20.39-64.79,40.87-97.28,61.17-6.12,3.83-12.87,7.47-19.94,2.36-3.07-2.22-6.05-5.46-7.42-8.89-1.93-4.84-2.62-10.26-3.27-15.5-.49-3.94.02-7.99-.1-11.99-.18-5.62-2.01-6.81-6.71-4-10.73,6.4-21.32,13.01-31.97,19.55-2.7,1.65-5.27,3.55-8.09,4.94-10.98,5.43-19.86,2.03-24.63-9.29-2.41-5.72-2.28-5.46-7.99-2.66-18.08,8.86-36.17,17.71-54.45,26.16-9.02,4.17-17.56,2.02-23.63-5.85-2.13-2.77-2.99-6.89-3.43-10.51-.65-5.39-.87-5.41-5.98-3.47-17.87,6.78-35.61,14.1-53.9,19.52-19.74,5.85-36.09-1.05-47.98-17.76-2.77-3.89-5.16-4.25-9.06-2.03-15.88,9.04-33.14,14.66-50.56,19.83-15.65,4.64-28.94.71-39.6-11.59-2.29-2.65-3.81-2.66-6.54-.63-12.01,8.94-24.06,17.82-36.36,26.35-6.81,4.73-14.51,7.36-23.03,6.99-8.15-.35-14.07-4.03-18.44-10.95-10.06-15.96-10.87-32.59-5.22-50.26,6.65-20.8,18.49-38.64,30.83-56.25,4.88-6.95,10.14-13.65,14.71-20.79,1.7-2.66,3.69-7.54,2.5-9.16-2.59-3.5-6,.31-8.56,1.87-18.82,11.44-34.24,26.89-49.78,42.25-17.96,17.75-33.34,37.63-48.62,57.62-2.42,3.17-5.08,6.18-7.78,9.12-2.44,2.66-4.99,2.69-7.81.18-5.85-5.2-7.93-15.69-4-24.58,2.68-6.05,6.21-11.72,9.36-17.55.72-1.33,1.46-2.65,1.36-4.66-.7.29-1.47.48-2.11.89-22.32,14.22-44.55,28.61-66.98,42.67-22.85,14.33-45.88,28.37-68.87,42.48-19.58,12.02-38.78,24.73-58.92,35.73-24.22,13.23-48.81,26.01-74.11,36.96-15.24,6.6-31.94,10.48-49.23,6.33-20.42-4.9-37.55-23.95-40.62-44.68-2.38-16.11,2.45-30.56,8.42-44.94,19.76-47.61,48.79-89.35,82.27-128.08,27.59-31.92,58.18-60.97,88.8-89.97,18.75-17.76,36.83-36.23,55.74-53.8,39.21-36.44,79.69-71.52,124.42-101,29.99-19.76,61.49-37.28,92.71-55.1,6.21-3.54,14.29-5.68,21.38-5.38,12.8.54,21.12,10.22,22.96,24.25,1.04,7.9,1.08,15.94,2.06,23.85.41,3.33,1.55,6.85,3.33,9.67,2.57,4.08,2.51,7.54-.75,10.81-6.59,6.59-13.2,13.18-20.05,19.5-28.76,26.55-54.64,55.55-76.26,88.28-4.48,6.78-9.72,13.12-15.07,19.25-4.7,5.39-8.26,5.91-12.59,3.07-3.58-2.35-5.14-7.9-2.51-13.11,4.94-9.78,10.38-19.31,15.86-28.8,15.29-26.48,35.59-48.93,56.59-70.9,7.63-7.98,14.15-17.15,20.41-26.3,4.54-6.63,5.19-14.61,4.61-22.62-.43-5.95-2.31-7.36-7.55-4.44-11.62,6.49-23.57,12.59-34.45,20.19-33.58,23.47-67.48,46.61-99.83,71.71-30.63,23.77-59.71,49.58-89.01,75.02-21.25,18.45-42.35,37.15-62.44,56.84-26.64,26.1-52.9,52.66-77.98,80.25-12.34,13.57-22.24,29.53-32.22,45.05-13.59,21.12-26.58,42.65-39.11,64.42-7.62,13.25-11.28,28.04-12.91,43.26-1.11,10.36,7.52,20.73,18.28,20.54,10.49-.18,20.04-3.51,29.09-8.1,14.1-7.14,27.92-14.84,41.74-22.53,30.55-17,61.12-33.98,91.5-51.28,38.06-21.67,75.81-43.81,112.33-68.08,36.16-24.03,70.78-50.01,102.5-79.54,17.99-16.75,34.21-35.5,50.36-54.12,23.89-27.55,47.43-55.43,70.31-83.83,16.41-20.37,30.63-42.35,41.73-66.2.9-1.93,3.29-3.16,4.99-4.72,1.62,1.97,4.11,3.71,4.7,5.95,2.54,9.56,1.74,19.09-1.49,28.45-6.34,18.34-16.83,34.29-28.18,49.81-25.79,35.29-54.18,68.41-83.35,100.9-1.21,1.34-2.1,2.97-3.14,4.46.35.37.7.74,1.06,1.12,2.26-1.48,4.44-3.1,6.8-4.41,8.98-4.97,17.84-10.18,27.08-14.61,6.78-3.26,13.15-.75,18.21,4.22,5.37,5.29,4.44,12.09,1.33,17.68-6.77,12.18-14.09,24.11-21.9,35.66-19.06,28.19-37.93,56.46-48.59,89.17-1.64,5.04-1.83,10.74-1.68,16.1.12,4.36,3.49,6.28,7.85,5.33,2.42-.52,4.95-1.16,7.05-2.4,16.98-10.04,33.26-21.26,46.68-35.69,6.66-7.16,11.08-16.56,15.83-25.31,19.47-35.92,46.34-65.31,78.73-89.85,3.55-2.69,7.74-5.86,12.3-3.02,5.73,3.57,9.06,9.15,9.8,16.04,1.64,15.32-5.6,27.44-14.45,38.74-15.93,20.36-32.7,40-52.47,56.82-10.53,8.96-21.36,17.56-32.08,26.3-4.78,3.89-4.68,7.46,1.2,9.24,4.38,1.33,9.79,1.66,14.11.36,13.66-4.12,27.04-9.2,40.52-13.94,3.61-1.27,7.17-2.65,10.76-3.96,8.38-3.04,14.7-7.91,19.04-16.24,6.68-12.83,13.98-25.43,22.16-37.35,13.08-19.05,26.69-37.78,40.93-55.98,5.01-6.4,12.28-11.15,18.93-16.11,14.12-10.54,28.57.92,31.38,13.41,2.47,11.01.24,21.79-5.04,31.38-10,18.19-21.94,35.14-38.85,47.68-15.38,11.4-31.19,22.22-47.02,32.99-3.79,2.58-6.09,5.35-4.79,9.8,1.33,4.54,4.74,7.03,9.53,6.12,7.63-1.44,15.31-2.91,22.74-5.16,15.93-4.82,31.25-11.06,46.17-18.64,15.45-7.84,28.43-18.06,37.54-32.66,14.7-23.57,32.33-44.84,50.41-65.77,13.6-15.74,27.82-30.94,41.74-46.4.53-.59.87-1.34,2.32-3.6-6.36.44-11.52.4-16.54,1.2-24.6,3.92-49.16,8.13-73.75,12.08-7.71,1.24-15.44,1.59-21.27-5.15-1.4-1.61-2.74-3.41-3.58-5.35-2.55-5.9-1.23-8.84,5.02-9.88,14.57-2.42,29.23-4.35,43.83-6.66,30.84-4.87,61.58-10.44,92.54-14.42,9.6-1.24,16.18-5.47,22.93-11.28,16.63-14.3,31-30.68,44.96-47.47,1.06-1.28,1.98-2.81,3.31-3.71,1.91-1.3,5.16-3.51,6.03-2.88,2.14,1.57,4.08,4.38,4.61,6.99,1.29,6.34-2.12,11.69-5.42,16.66-6.35,9.57-13.13,18.86-19.69,28.3-.87,1.25-1.46,2.69-2.51,4.67,4.39,0,7.85.13,11.3-.02,36.26-1.52,72.43-4.66,108.79-3.97,31.79.61,63.62-.48,95.38.6,9.31.32,14.79-2.61,20.2-9.02,9.98-11.83,20.32-23.35,30.48-35.03,2.81-3.23,5.75-6.46,10.5-4.92,2.99.97,6.11,9.97,4.53,13.92-2.01,5.02-4.55,9.93-7.58,14.41-3.53,5.22-7.85,9.91-11.76,14.88-.96,1.22-1.66,2.64-3.3,5.3ZM1134.62,210.42c-2.3-.77-3.35-1.37-4.44-1.44-11.45-.73-22.93-2.13-34.37-1.88-26.61.57-53.21,1.78-79.8,3.06-15.11.72-30.23,1.79-45.29,3.23-23.99,2.3-47.95,4.95-71.89,7.7-3.81.44-8.23,1.26-11.05,3.54-13.22,10.66-26.93,20.97-38.7,33.11-20.26,20.89-39.81,42.55-58.5,64.86-11.6,13.85-21.74,29.09-31.19,44.52-4.35,7.1-6.01,16.05-7.86,24.38-1.03,4.61,2.12,6.68,6.85,5.49,2.89-.73,5.82-1.64,8.43-3.02,13.51-7.17,26.98-14.43,40.34-21.87,6.68-3.72,13.66-7.2,19.53-11.99,26.54-21.71,52.7-43.86,79.04-65.81,10.46-8.72,21.95-15.68,35.2-19.31,8.91-2.44,12.84-.79,18.3,6.63.81,1.1,3.28,2.26,4.17,1.81,4.51-2.29,6.88.13,9.07,3.4,4.03,6.02,5.17,12.2.86,18.6-2.41,3.58-4.67,7.3-7.41,10.62-10.83,13.09-21.95,25.93-32.7,39.08-8.64,10.56-17.16,21.24-25.16,32.28-1.94,2.68-3.38,8.27-1.94,10.29,2.86,4,7.77,1.46,11.27-.64,14.99-8.98,29.98-17.97,44.63-27.48,14.94-9.69,29.42-20.11,44.23-30.01,26.08-17.43,48.63-38.83,69.57-61.99,14.18-15.67,27.98-31.68,41.92-47.57,5.46-6.22,10.82-12.53,16.91-19.59ZM650.87,352.96c1.4.06,2.03.29,2.34.08,3.4-2.36,6.83-4.69,10.12-7.2,18.89-14.44,35.71-30.9,48.31-51.21,2.7-4.36,4.24-9.68,5.27-14.77.93-4.6-1.56-6.16-6.22-5.29-7.51,1.41-11.9,7.13-16.5,12.22-16.92,18.73-29.88,40.21-42.27,62.05-.59,1.05-.64,2.41-1.05,4.12ZM850.39,369.31c.23.44.47.88.7,1.32,2.32-.36,4.7-.5,6.96-1.1,10.9-2.9,19.14-10.28,27.83-16.84,22.08-16.69,41.52-36.28,60.99-55.83.99-1,1.85-2.13,2.78-3.2-.19-.53-.39-1.06-.58-1.6-2.7.46-5.83.21-8.04,1.51-7.95,4.71-15.87,9.57-23.31,15.04-23.22,17.07-44.78,36.07-64.51,57.1-1.04,1.11-1.88,2.41-2.81,3.61ZM554.98,346.01c.46.27.92.53,1.38.8,1.17-.84,2.39-1.62,3.51-2.53,15.47-12.47,29.5-26.37,41.27-42.41,3.71-5.06,6.84-10.57,9.97-16.03.55-.95-.22-2.66-.39-4.02-1.22.22-2.48.34-3.66.69-.59.18-1.08.76-1.58,1.19-19.19,16.7-36.24,35.22-48.78,57.55-.81,1.45-1.16,3.16-1.72,4.75Z"/><text class="cls-1" transform="translate(1134.62 674.79)"><tspan x="0" y="0">HUMAN POWERED VEHICLE</tspan></text></g></svg>