<?xml version="1.0" encoding="UTF-8"?><svg id="Layer_2" xmlns="http://www.w3.org/2000/svg" viewBox="0 0 1234.49 408.39"><defs><style>.cls-1{fill:#231f20;stroke-width:0px;}</style></defs><g id="Layer_1-2"><path class="cls-1" d="M108.24,68.45c19.1,0,34.22-14.73,34.22-34.23S127.34,0,108.24,0s-35.02,14.33-35.02,34.23,15.52,34.23,35.02,34.23Z"/><path class="cls-1" d="M155.97,107.93l-116.18,4.69v8.36c7.16.4,27.85,4.77,33.03,8.76,6.37,4.77,10.34,13.13,10.34,21.09v139.68c0,54.91-4.77,83.96-27.06,83.96-.79,0-2.79-.4-4.77-.8,2.79-10.34,5.18-19.9,5.18-30.24,0-17.91-16.32-25.07-28.25-25.07-18.3,0-28.25,17.51-28.25,28.25,0,18.71,9.55,38.6,52.53,38.6,27.06,0,48.15-12.34,63.67-29.05,19.1-20.29,24.67-46.96,24.67-79.99V120.66h9.92c50.94,0,81.58,52.13,81.58,124.56s-20.69,121.77-74.42,121.77c-9.74,0-33.69,0-33.69,0l-21.2,12.73h45.34c79.99,0,158.38-41.39,158.38-134.1,0-109.04-93.91-137.69-150.82-137.69Z"/><path class="cls-1" d="M467.61,139.94c0,7.67-8.33,9.39-16.4,11.11-4.23,10.18-5.95,17.72-7.41,25.92l17.06-.4-1.32,4.63-16.53-.13c-1.99,7.8-4.5,19.57-8.86,33.86-6.74,22.61-22.75,32.14-36.5,32.14-10.58,0-15.21-6.08-15.21-11.9,0-2.38,2.64-7.14,7.41-7.14,4.5,0,7.67,1.98,7.67,6.74,0,1.72-1.19,3.7-2.78,5.95,0,2.25,2.51,3.57,3.31,3.57,9.92,0,17.06-4.89,23.27-27.24,3.17-11.51,6.74-28.3,8.33-35.44h-17.33l.66-3.57,17.46-.4c3.31-10.05,7.14-14.55,15.87-25.52-3.57.93-11.5,2.12-14.15,2.12-11.77,0-14.41-14.42-25.52-14.81-5.03-.26-7.54,2.38-7.54,5.03,0,.79,1.19,3.97,1.98,5.16,3.57.13,6.88,2.51,6.88,6.61,0,2.91-2.65,5.82-6.22,5.82-5.29,0-7.27-5.16-7.27-10.84,0-8.86,9.12-19.84,20.1-19.84,16.53,0,13.89,16.66,30.29,18.25h3.57c5.42-6.48,10.45-13.75,14.28-13.75,2.38,0,4.89.93,4.89,4.1Z"/><path class="cls-1" d="M538.23,205.67c-4.76,11.77-9.52,19.97-18.91,19.97-7.41,0-12.56-2.91-12.56-12.3l-.53-.13c-4.63,6.61-11.77,12.7-19.31,12.7-8.86,0-15.34-7.01-15.34-14.81,0-1.85,1.19-6.22,2.64-9.79l7.54-19.44c1.85-4.63,2.78-8.6,2.78-10.71,0-3.84-1.45-4.76-3.97-4.76-6.22,0-9.92,6.61-14.28,17.85l-2.38-.93c4.63-11.64,9.13-19.84,18.52-19.84,5.69,0,13.23,2.91,13.23,10.32,0,3.17-.93,6.35-2.78,10.98l-8.07,20.63c-1.32,3.44-2.51,7.14-2.51,9.52,0,5.69,3.04,6.74,6.48,6.74,7.27,0,14.41-6.88,18.51-14.15l13.36-42.32h12.17l-13.89,42.06c-.93,2.64-2.12,7.93-2.12,9.52,0,4.36,1.85,5.55,4.36,5.55,6.22,0,10.05-6.22,14.41-17.46l2.64.79Z"/><path class="cls-1" d="M589.54,177.11c0,4.89-2.38,8.33-6.22,8.33-3.31,0-6.48-1.59-6.48-5.42,0-5.29,6.88-6.88,7.41-8.33-.26-1.72-2.38-5.82-11.24-5.82-4.1,0-10.58,3.31-10.58,10.98,0,12.83,21.82,13.62,21.82,30.55,0,9.52-10.98,18.65-22.75,18.65-14.55,0-19.71-8.99-19.71-15.34,0-4.89,3.57-9.13,7.27-9.13,5.82,0,7.01,3.7,7.01,5.82,0,2.38-1.32,5.82-5.82,5.82-2.38,0-3.57-.13-3.57,1.85,0,4.1,6.61,8.2,13.36,8.2,7.67,0,14.68-3.31,14.68-10.45,0-15.08-22.08-15.08-22.08-31.61,0-8.46,9.79-17.99,20.5-17.99,14.41,0,16.4,10.58,16.4,13.89Z"/><path class="cls-1" d="M641.77,165.34l-1.45,4.36h-16.8c-3.57,12.03-9.92,33.19-11.11,37.82-1.06,3.97-2.51,8.07-2.51,10.05,0,4.23,2.51,4.76,4.89,4.76,6.35,0,11.11-6.48,15.47-17.72l2.51.79c-4.76,11.77-10.45,20.23-19.71,20.23-5.69,0-13.75-2.12-13.75-10.18,0-3.04.92-6.22,1.32-7.67,1.59-5.95,10.45-35.05,11.37-38.09h-12.7l1.45-4.36h12.83l5.82-20.5h11.51l-6.08,20.5h16.93Z"/><path class="cls-1" d="M767.8,168.91c0,34.65-29.36,55.28-62.42,55.28h-39.15l.66-2.78c2.25-.13,7.94-.66,9.92-1.32,3.44-1.19,4.89-3.7,5.69-6.48l18.91-67.98c.26-1.19.53-2.25.53-3.04,0-1.72-.79-2.64-2.64-3.57-1.85-.79-6.88-2.12-8.86-2.25l.79-2.91h39.15c18.12,0,37.43,8.99,37.43,35.05ZM753.65,170.1c0-21.95-10.32-32.53-28.04-32.53-3.04,0-5.95.13-8.86.26l-20.23,72.34c-1.72,6.35,1.45,10.18,10.45,10.18,26.45,0,46.68-22.48,46.68-50.26Z"/><path class="cls-1" d="M822.55,172.08c0,14.28-21.69,21.82-34.65,23.8-.93,4.36-1.98,8.73-1.98,12.43,0,8.99,2.91,13.36,9.79,13.36,9.65,0,16-7.67,21.42-17.72l2.38,1.19c-8.2,15.6-17.19,20.9-25.79,20.9-9.39,0-20.24-4.36-20.24-21.16,0-13.62,13.09-41.66,37.82-41.66,5.95,0,11.24,2.91,11.24,8.86ZM813.42,172.87c0-4.23-1.59-7.01-5.82-7.01-7.67,0-15.47,14.02-19.04,27.24,18.65-3.31,24.86-14.15,24.86-20.23Z"/><path class="cls-1" d="M876.64,175.12c0,4.5-2.25,8.86-6.75,8.86-3.04,0-7.01-1.72-7.01-5.95,0-2.78,2.78-5.69,6.75-7.8-.66-3.44-2.91-4.76-7.67-4.76-11.51,0-21.95,26.58-21.95,42.45,0,8.86,2.64,13.75,9.52,13.75,9.65,0,16.27-7.67,21.69-17.72l2.64,1.19c-8.46,15.6-17.72,20.9-26.45,20.9-9.26,0-19.84-4.1-19.84-20.9,0-13.62,13.23-41.92,35.58-41.92,8.46,0,13.49,6.08,13.49,11.9Z"/><path class="cls-1" d="M950.03,205.67c-4.76,11.77-9.52,19.97-18.91,19.97-7.93,0-12.43-3.44-12.43-12.3l-.53-.13c-5.03,7.27-10.98,12.83-18.52,12.83-8.86,0-18.12-4.36-18.12-20.9,0-13.62,12.96-41.92,36.77-41.92,5.69,0,10.71,3.04,11.9,9.65h.4l3.04-8.86h11.9l-14.94,43.25c-1.32,3.7-2.12,8.2-2.12,9.79,0,4.36,1.98,5.29,4.5,5.29,6.22,0,10.05-6.22,14.41-17.46l2.64.79ZM929,177.77c-1.59-8.07-4.76-11.77-11.11-11.77-13.62,0-23.94,26.19-23.94,41.92,0,12.17,4.23,13.62,7.67,13.62,7.54,0,13.23-6.08,17.33-12.96l10.05-30.81Z"/><path class="cls-1" d="M1031.36,126.06l-25.52,81.2c-.93,3.04-2.12,8.2-2.12,9.79,0,4.36,1.85,5.29,4.36,5.29,6.22,0,10.05-6.22,14.42-17.46l2.64.79c-4.76,11.77-9.52,19.97-18.91,19.97-7.8,0-12.03-3.31-12.03-12.03l-.53-.13c-5.16,7.27-12.03,12.56-19.57,12.56-8.86,0-18.52-4.36-18.52-20.9,0-13.62,13.36-41.92,37.16-41.92,5.42,0,10.45,2.91,12.43,8.46h.4l8.46-28.04c1.19-4.1,1.98-7.14,1.98-8.86,0-2.91-2.38-3.84-5.42-4.23-3.31-.4-5.95-.4-9.26-.53v-2.64l30.02-1.32ZM1004.12,176.31c-2.25-7.41-5.55-10.32-11.77-10.32-13.75,0-24.33,26.19-24.33,41.92,0,12.17,4.63,13.62,8.07,13.62,7.54,0,14.02-5.82,18.12-12.7l9.92-32.53Z"/><path class="cls-1" d="M1080.16,172.08c0,14.28-21.69,21.82-34.65,23.8-.93,4.36-1.98,8.73-1.98,12.43,0,8.99,2.91,13.36,9.79,13.36,9.65,0,16-7.67,21.42-17.72l2.38,1.19c-8.2,15.6-17.19,20.9-25.79,20.9-9.39,0-20.24-4.36-20.24-21.16,0-13.62,13.09-41.66,37.82-41.66,5.95,0,11.24,2.91,11.24,8.86ZM1071.03,172.87c0-4.23-1.59-7.01-5.82-7.01-7.67,0-15.47,14.02-19.04,27.24,18.65-3.31,24.86-14.15,24.86-20.23Z"/><path class="cls-1" d="M1159.77,205.67c-4.76,11.77-9.52,19.97-18.91,19.97-5.55,0-14.15-2.25-14.15-10.32,0-3.17,1.19-6.48,2.91-10.98l7.8-20.63c1.19-3.17,2.51-7.41,2.51-9.92,0-5.55-3.04-6.35-6.48-6.35-7.14,0-14.68,7.54-19.18,16.4l-13.22,40.34h-12.03l14.28-42.32c1.06-3.17,2.51-9.13,2.51-10.71,0-3.7-1.19-4.76-3.7-4.76-6.22,0-9.92,6.61-14.28,17.85l-2.64-.93c4.76-11.64,9.39-20.1,18.78-20.1,5.69,0,12.17,2.12,12.17,12.04l.53.13c4.63-6.35,11.11-12.17,18.78-12.17,8.86,0,15.21,6.88,15.21,14.81,0,1.85-1.32,6.61-2.51,9.79l-7.41,19.44c-1.72,4.63-2.91,8.33-2.91,10.32,0,4.23,2.38,4.76,4.89,4.76,6.22,0,10.18-6.22,14.55-17.46l2.51.79Z"/><path class="cls-1" d="M1211.08,165.34l-1.45,4.36h-16.79c-3.57,12.03-9.92,33.19-11.11,37.82-1.06,3.97-2.51,8.07-2.51,10.05,0,4.23,2.51,4.76,4.89,4.76,6.35,0,11.11-6.48,15.47-17.72l2.51.79c-4.76,11.77-10.45,20.23-19.71,20.23-5.69,0-13.75-2.12-13.75-10.18,0-3.04.93-6.22,1.32-7.67,1.59-5.95,10.45-35.05,11.37-38.09h-12.7l1.45-4.36h12.83l5.82-20.5h11.51l-6.08,20.5h16.93Z"/><path class="cls-1" d="M471.18,303.25c0,14.28-13.75,20.76-27.38,24.33v1.19c11.51,2.12,21.69,7.27,21.69,18.78,0,17.46-17.59,29.23-43.11,29.23h-39.15l.66-2.78c2.25-.13,7.93-.66,9.92-1.32,3.44-1.19,4.89-3.7,5.69-6.48l18.91-67.98c.26-1.19.53-2.25.53-3.04,0-1.72-.79-2.64-2.64-3.57-1.85-.79-6.88-2.12-8.86-2.25l.79-2.91h39.68c14.02,0,23.28,5.69,23.28,16.8ZM451.48,347.82c0-10.32-7.93-17.06-20.37-17.06-2.38,0-6.21.13-8.73.26l-9.39,33.99c-.79,5.95,2.38,8.07,10.19,8.07,18.25,0,28.3-13.23,28.3-25.26ZM457.17,304.44c0-8.86-4.63-14.41-14.15-14.41-2.91,0-6.09.13-9.26.26l-10.32,36.9h4.89c17.99,0,28.83-11.24,28.83-22.75Z"/><path class="cls-1" d="M545.11,358.26c-4.76,11.77-9.52,19.97-18.91,19.97-7.94,0-12.43-3.44-12.43-12.3l-.53-.13c-5.03,7.27-10.98,12.83-18.52,12.83-8.86,0-18.12-4.36-18.12-20.9,0-13.62,12.96-41.92,36.77-41.92,5.69,0,10.71,3.04,11.9,9.65h.4l3.04-8.86h11.9l-14.94,43.25c-1.32,3.7-2.12,8.2-2.12,9.79,0,4.36,1.98,5.29,4.5,5.29,6.22,0,10.05-6.22,14.42-17.46l2.64.79ZM524.08,330.36c-1.59-8.07-4.76-11.77-11.11-11.77-13.62,0-23.94,26.19-23.94,41.92,0,12.17,4.23,13.62,7.67,13.62,7.54,0,13.22-6.08,17.32-12.96l10.05-30.81Z"/><path class="cls-1" d="M619.96,325.2c0,3.97-3.04,8.33-7.54,8.33-2.64,0-5.69-1.85-5.69-4.36,0-7.14,4.36-5.16,5.03-8.86-.66-1.98-1.59-2.51-3.97-2.51-7.41,0-7.01,18.91-23.27,23.8,4.89,1.85,11.11,4.23,11.11,12.3,0,7.14-2.25,11.9-2.25,16.27s2.12,4.76,4.5,4.76c6.35,0,10.58-6.22,14.81-17.46l2.51.79c-4.76,11.77-9.79,19.97-19.04,19.97-7.14,0-14.15-2.25-14.15-10.32,0-5.95,2.64-13.09,2.64-17.06,0-5.42-3.97-7.8-9.52-7.8-1.45,0-2.51.13-4.1.26l-10.71,33.46h-11.64l25.53-80.54c1.45-4.5,1.85-7.14,1.85-8.86,0-2.91-2.25-3.84-5.16-4.23-3.44-.4-4.76-.4-7.93-.53v-2.64l28.83-1.32-19.97,61.89c1.98.13,3.44.13,5.82.13,16.93,0,14.55-24.86,31.34-24.86,8.6,0,10.98,3.84,10.98,9.39Z"/><path class="cls-1" d="M673.51,324.67c0,14.28-21.69,21.82-34.65,23.8-.93,4.36-1.99,8.73-1.99,12.43,0,8.99,2.91,13.36,9.79,13.36,9.65,0,16-7.67,21.42-17.72l2.38,1.19c-8.2,15.6-17.19,20.9-25.79,20.9-9.39,0-20.23-4.36-20.23-21.16,0-13.62,13.09-41.66,37.82-41.66,5.95,0,11.24,2.91,11.24,8.86ZM664.39,325.46c0-4.23-1.59-7.01-5.82-7.01-7.67,0-15.47,14.02-19.04,27.24,18.65-3.31,24.86-14.15,24.86-20.23Z"/><path class="cls-1" d="M734.48,323.88c0,4.1-2.25,8.33-6.88,8.33s-6.48-2.51-6.48-5.55,3.04-4.5,3.04-5.69.13-1.72-1.98-1.72c-4.63,0-10.71,10.05-14.55,17.06l-12.3,40.47h-11.9l13.23-42.32c.93-2.78,2.51-9.13,2.51-10.71,0-3.84-1.19-4.76-3.7-4.76-6.22,0-10.05,7.01-14.28,17.85l-2.64-.93c4.76-11.64,9.39-20.1,18.78-20.1,5.69,0,11.24,3.7,11.24,13.36l.53.13c4.36-6.75,8.33-13.49,16.8-13.49,5.55,0,8.6,3.97,8.6,8.07Z"/><path class="cls-1" d="M803.51,317.79l-13.89,44.97c-10.05,32.4-27.38,45.63-45.89,45.63-15.34,0-17.46-8.73-17.46-12.43,0-7.01,4.63-9.12,8.73-9.12s6.08,3.57,6.08,5.55c0,3.84-1.06,5.29-2.64,6.08-2.51,1.32-5.16-.13-5.69,2.78.4,5.03,7.14,4.63,10.18,4.63,12.56,0,25.26-11.51,34.12-38.75l-.53-.13c-4.63,5.95-11.24,11.37-18.78,11.37-8.86,0-15.34-7.01-15.34-14.81,0-1.98,1.19-6.35,2.64-9.92l7.54-19.18c1.85-4.63,2.91-8.86,2.91-10.98,0-3.84-1.32-4.5-3.84-4.5-6.22,0-10.05,6.61-14.41,17.85l-2.38-.93c4.63-11.64,9.26-20.1,18.65-20.1,5.69,0,13.09,2.91,13.09,10.32,0,3.17-1.06,6.61-2.91,11.24l-8.2,20.37c-1.32,3.44-2.51,7.27-2.51,9.65,0,5.69,3.17,6.61,6.61,6.61,7.27,0,14.28-6.22,18.52-12.3l13.62-43.91h11.77Z"/><path class="cls-1" d="M948.32,300.73c0,10.18-8.07,16.4-21.29,16.4,7.14,3.04,12.3,7.8,12.3,21.03,0,15.87-14.15,40.87-52.9,40.87-21.95,0-39.68-13.09-39.68-30.02,0-11.24,7.01-15.61,14.02-19.44-4.63-3.17-9.12-7.41-9.12-16.4,0-8.33,8.46-17.85,19.57-17.85,12.03,0,19.97,6.74,22.35,16.27l-2.12,1.06c-4.36-6.88-8.2-10.31-15.34-10.31-8.6,0-14.81,6.48-14.81,16.66,0,2.64.26,6.61,3.17,8.99,3.57-1.19,6.88-2.51,10.58-2.51,5.16,0,8.33,2.38,8.33,5.69,0,2.64-1.85,5.03-5.82,5.03-5.95,0-10.18-2.64-14.15-5.03-1.45.66-7.54,3.31-7.54,11.51,0,13.09,15.21,26.05,41.53,26.05,23.94,0,37.16-15.61,37.16-31.21s-9.39-20.9-19.18-20.9c-7.27,0-14.02,4.23-14.02,11.64,0,8.2,4.5,11.51,10.18,11.51,2.91,0,3.97-.66,6.08-1.98-3.57-1.45-7.67-2.51-7.67-7.14,0-4.89,3.84-6.22,6.08-6.22,3.7,0,8.46,1.45,8.46,7.8,0,4.89-4.1,10.71-11.37,10.71-7.67,0-16.53-5.69-16.53-16.13,0-13.89,13.09-17.59,22.08-17.59,3.44,0,11.11.66,14.02.66,7.14,0,11.24-5.69,11.24-10.05,0-7.94-4.36-9.92-9.26-9.92-3.7,0-4.23,1.45-4.23,2.78.93,1.19,5.03,1.45,5.03,5.42s-2.64,5.69-5.69,5.69c-3.57,0-7.27-2.12-7.27-7.67,0-4.23,4.36-8.86,11.77-8.86s14.02,4.89,14.02,13.49Z"/><path class="cls-1" d="M1071.44,285.13l-6.35,32.67h-3.17c-1.72-16.93-6.22-29.23-23.28-29.23s-35.84,23.28-35.84,53.3c0,18.12,7.8,31.34,24.73,31.34,13.62,0,21.82-8.6,30.29-21.16l3.04,1.85c-8.07,12.3-18.51,24.86-38.62,24.86-21.69,0-34.12-13.62-34.12-34.52,0-33.46,26.45-59.51,52.77-59.51,9.39,0,14.02,2.38,19.7,7.14l5.42-6.74h5.42Z"/><path class="cls-1" d="M1137.82,358.26c-4.76,11.77-9.52,19.97-18.91,19.97-7.93,0-12.43-3.44-12.43-12.3l-.53-.13c-5.03,7.27-10.98,12.83-18.52,12.83-8.86,0-18.12-4.36-18.12-20.9,0-13.62,12.96-41.92,36.77-41.92,5.69,0,10.71,3.04,11.9,9.65h.4l3.04-8.86h11.9l-14.94,43.25c-1.32,3.7-2.12,8.2-2.12,9.79,0,4.36,1.98,5.29,4.5,5.29,6.22,0,10.05-6.22,14.41-17.46l2.64.79ZM1116.79,330.36c-1.59-8.07-4.76-11.77-11.11-11.77-13.62,0-23.94,26.19-23.94,41.92,0,12.17,4.23,13.62,7.67,13.62,7.54,0,13.23-6.08,17.33-12.96l10.05-30.81Z"/><path class="cls-1" d="M1211.22,289.76c0,2.25-2.25,6.61-6.74,6.61-2.64,0-7.41-1.45-7.41-5.82,0-1.85,1.59-4.36,1.98-7.14-.66-1.98-1.45-2.25-2.91-2.25-8.46,0-14.68,8.86-19.97,27.51l-2.64,9.26h16.66l-1.45,4.36h-16.4c-4.23,16.27-9.26,36.9-13.75,51.31-3.17,10.18-7.94,20.1-16,26.71-6.88,5.82-12.04,7.67-18.52,7.67-10.45,0-13.36-5.29-13.36-10.58,0-2.91,2.38-6.88,6.88-6.88,2.78,0,7.14,1.59,7.14,6.35,0,2.78-1.19,3.97-2.78,6.22.26,1.85,1.72,2.38,2.64,2.38,9.79,0,15.61-8.73,21.56-28.17,6.48-21.29,10.98-41.13,14.55-55.02h-14.02l1.32-4.36h14.02l1.45-5.29c2.91-10.71,7.27-19.44,15.47-26.85,6.22-5.69,12.56-7.27,18.78-7.27,9.12,0,13.49,5.82,13.49,11.24Z"/><path class="cls-1" d="M1234.49,324.67c0,14.28-21.69,21.82-34.65,23.8-.93,4.36-1.98,8.73-1.98,12.43,0,8.99,2.91,13.36,9.79,13.36,9.65,0,16-7.67,21.42-17.72l2.38,1.19c-8.2,15.6-17.19,20.9-25.79,20.9-9.39,0-20.24-4.36-20.24-21.16,0-13.62,13.09-41.66,37.82-41.66,5.95,0,11.24,2.91,11.24,8.86ZM1225.37,325.46c0-4.23-1.59-7.01-5.82-7.01-7.67,0-15.47,14.02-19.04,27.24,18.65-3.31,24.86-14.15,24.86-20.23Z"/></g></svg>